<svg xmlns="http://www.w3.org/2000/svg" width="291" height="103" fill="none" viewBox="0 0 291 103">
  <g clip-path="url(#a)">
    <rect width="291" height="101.656" y=".672" fill="gray" fill-opacity=".1" rx="50.828" style="mix-blend-mode:luminosity"/>
    <rect width="291" height="101.656" y=".672" fill="#454545" fill-opacity=".15" rx="50.828" style="mix-blend-mode:darken"/>
    <path fill="url(#b)" fill-opacity=".6" fill-rule="evenodd" d="m113.782 39.114 1.627-1.26c11.653-9.038 28.21-7.996 38.638 2.432a29.27 29.27 0 0 0 26.79 7.933l20.923-4.452 12.119-1.957a86.914 86.914 0 0 1 37.733 2.233l1.614.461a86.908 86.908 0 0 0 22.442 3.332l152.999 2.526a.624.624 0 0 1 .143.02c.656.18.527 1.145-.153 1.145H-61.682a.398.398 0 0 1-.02-.795l36.87-1.92 32.13.446c6.496.09 12.98-.548 19.333-1.903l16.825-3.588 12.36-3.862a31.46 31.46 0 0 1 24.035 2.188 31.459 31.459 0 0 0 33.931-2.979Zm-138.614 15.13 32.13-.447c6.496-.09 12.98.548 19.333 1.903l16.825 3.587 12.36 3.863a31.459 31.459 0 0 0 24.034-2.19 31.459 31.459 0 0 1 33.931 2.98l1.627 1.26c11.653 9.038 28.21 7.996 38.638-2.432a29.271 29.271 0 0 1 26.79-7.933l20.923 4.451 12.119 1.958a86.914 86.914 0 0 0 37.733-2.233l1.614-.461a86.917 86.917 0 0 1 22.442-3.333l152.999-2.525a.579.579 0 0 0 .143-.02c.656-.18.527-1.146-.153-1.146H-61.682a.398.398 0 0 0-.02.796l36.87 1.92Z" clip-rule="evenodd"/>
    <g filter="url(#c)">
      <path fill="url(#d)" fill-rule="evenodd" d="m113.782 39.114 1.627-1.26c11.653-9.038 28.21-7.996 38.638 2.432a29.27 29.27 0 0 0 26.79 7.933l20.923-4.452 12.119-1.957a86.914 86.914 0 0 1 37.733 2.233l1.614.461a86.908 86.908 0 0 0 22.442 3.332l152.999 2.526a.624.624 0 0 1 .143.02c.656.18.527 1.145-.153 1.145H-61.682a.398.398 0 0 1-.02-.795l36.87-1.92 32.13.446c6.496.09 12.98-.548 19.333-1.903l16.825-3.588 12.36-3.862a31.46 31.46 0 0 1 24.035 2.188 31.459 31.459 0 0 0 33.931-2.979Zm-138.614 15.13 32.13-.447c6.496-.09 12.98.548 19.333 1.903l16.825 3.587 12.36 3.863a31.459 31.459 0 0 0 24.034-2.19 31.459 31.459 0 0 1 33.931 2.98l1.627 1.26c11.653 9.038 28.21 7.996 38.638-2.432a29.271 29.271 0 0 1 26.79-7.933l20.923 4.451 12.119 1.958a86.914 86.914 0 0 0 37.733-2.233l1.614-.461a86.917 86.917 0 0 1 22.442-3.333l152.999-2.525a.579.579 0 0 0 .143-.02c.656-.18.527-1.146-.153-1.146H-61.682a.398.398 0 0 0-.02.796l36.87 1.92Z" clip-rule="evenodd"/>
    </g>
    <path fill="url(#e)" d="m247.81 44.135-.151-.357.151.357Zm.495-.209-.151-.357.151.357ZM214.318 41.5l.205-.329-.205.33Zm-2.325-1.447-.205.33.205-.33Zm-37.675 2.256.243.303-.243-.303Zm-25.923 6.72-.065.382.065-.382Zm-21.999-3.758.05-.385.008.001.008.002-.066.382Zm-15.799-2.048.05-.385-.05.385ZM79.992 44.7l.087.378-.087-.378Zm-7.041 1.615.087.379-.087-.379Zm-18.279 2.193-.005-.388.005.388Zm-155.208 2.057.005.388-.005-.388Zm-.094.01-.083-.378.083.379Zm490.562.29-.017.387.017-.388Zm-36.944-1.546-.004-.388h.021l-.017.389Zm-34.031.38.005.388-.005-.388Zm-15.633-1.24-.066.382.066-.383ZM284.7 45.27l-.065.383-.015-.003-.014-.004.094-.376Zm-12.655-3.175.094-.376-.094.376Zm0 18.81.094.376-.094-.376ZM284.7 57.73l-.094-.377.014-.003.015-.003.065.383Zm-36.395 1.344-.151.357.151-.357Zm-.495-.21-.151.358.151-.358ZM214.318 61.5l.205.33-.205-.33Zm-2.325 1.447.206.33-.206-.33Zm-37.675-2.255.243-.303-.243.303Zm-25.923-6.72-.065-.382.065.382Zm-21.999 3.758.066.382-.008.002h-.008l-.05-.384Zm-15.799 2.048-.05-.385.05.385ZM79.992 58.3l.087-.379-.087.379Zm-7.041-1.615.087-.379-.087.379Zm-18.279-2.193-.005.388.005-.388Zm-155.208-2.057.005-.388-.005.388Zm-.094-.01-.083.378.083-.379Zm490.562-.29-.017-.387.017.388Zm-36.944 1.545.017.388h-.021l.004-.388Zm-34.031-.379.005-.388-.005.388Zm-15.633 1.24-.066-.382.066.383Zm-55.665-10.763.495-.21.302.716-.495.209-.302-.715Zm-33.136-2.608a36.106 36.106 0 0 0 33.136 2.608l.302.715a36.881 36.881 0 0 1-33.848-2.664l.41-.659Zm-2.324-1.447 2.324 1.447-.41.659-2.325-1.447.411-.659Zm-38.124 2.282a33.02 33.02 0 0 1 38.124-2.282l-.411.659a32.243 32.243 0 0 0-37.227 2.229l-.486-.606Zm-25.615 6.64a32.245 32.245 0 0 0 25.615-6.64l.486.605a33.02 33.02 0 0 1-26.231 6.8l.13-.765Zm-21.998-3.757 21.998 3.757-.13.765-21.999-3.757.131-.765Zm-15.815-2.051 15.799 2.048-.1.77-15.799-2.048.1-.77Zm-30.742 1.485a87.299 87.299 0 0 1 30.742-1.485l-.1.77a86.525 86.525 0 0 0-30.468 1.471l-.174-.756Zm-7.04 1.615 7.04-1.615.174.756-7.041 1.616-.174-.757ZM54.666 48.12a86.524 86.524 0 0 0 18.197-2.183l.174.757a87.297 87.297 0 0 1-18.36 2.202l-.011-.776Zm-155.208 2.057L54.667 48.12l.01.776-155.208 2.057-.01-.776Zm-.172.02a.852.852 0 0 1 .172-.02l.01.776a.08.08 0 0 0-.016.002l-.166-.758Zm.183 1.69c-1.024 0-1.183-1.471-.183-1.69l.166.758a.107.107 0 0 0-.039.015.036.036 0 0 0-.012.012.09.09 0 0 0-.011.059.09.09 0 0 0 .023.055.045.045 0 0 0 .014.01.11.11 0 0 0 .042.006v.776Zm490.448 0H-100.53v-.775h490.448v.776Zm.706-.705c0 .39-.316.706-.706.706v-.776a.07.07 0 0 0-.07.07h.776Zm-.676-.706a.706.706 0 0 1 .676.706h-.776c0 .037.03.068.067.07l.033-.776Zm-36.943-1.544 36.943 1.544-.033.776-36.943-1.545.033-.775Zm-34.052.379 34.031-.38.009.776-34.031.38-.009-.776Zm-15.564-1.235c5.14.88 10.35 1.293 15.564 1.235l.009.776a87.296 87.296 0 0 1-15.704-1.246l.131-.765Zm-18.623-3.188 18.623 3.188-.131.765-18.623-3.188.131-.765Zm-12.627-3.17 12.656 3.176-.189.752-12.656-3.175.189-.752Zm-23.985 1.85a37.917 37.917 0 0 1 23.985-1.85l-.189.753a37.14 37.14 0 0 0-23.494 1.813l-.302-.715Zm23.796 16.96 12.656-3.175.189.753-12.656 3.175-.189-.752Zm-23.494-1.812a37.14 37.14 0 0 0 23.494 1.813l.189.752a37.917 37.917 0 0 1-23.985-1.85l.302-.715Zm-.495-.209.495.21-.302.714-.495-.21.302-.714Zm-33.848 2.664a36.881 36.881 0 0 1 33.848-2.664l-.302.715a36.106 36.106 0 0 0-33.136 2.608l-.41-.659Zm-2.325 1.447 2.325-1.447.41.659-2.324 1.447-.411-.659Zm-37.227-2.229a32.243 32.243 0 0 0 37.227 2.229l.411.659a33.02 33.02 0 0 1-38.124-2.282l.486-.606Zm-26.231-6.8a33.02 33.02 0 0 1 26.231 6.8l-.486.605a32.244 32.244 0 0 0-25.615-6.64l-.13-.764Zm-21.999 3.758 21.999-3.757.13.765-21.998 3.757-.131-.765Zm-15.784 2.046 15.799-2.048.1.77-15.799 2.048-.1-.77Zm-30.468-1.472a86.52 86.52 0 0 0 30.468 1.472l.1.77a87.299 87.299 0 0 1-30.742-1.485l.174-.757Zm-7.041-1.615 7.04 1.615-.173.757-7.04-1.615.173-.757Zm-18.36-2.202c6.18.082 12.335.82 18.36 2.202l-.174.757a86.524 86.524 0 0 0-18.197-2.183l.01-.776Zm-155.209-2.057 155.208 2.057-.01.776-155.208-2.057.01-.776Zm-.016-.002a.073.073 0 0 0 .016.002l-.01.776a.86.86 0 0 1-.172-.02l.166-.758Zm.017-.157a.11.11 0 0 0-.042.006.045.045 0 0 0-.014.01.09.09 0 0 0-.023.055.09.09 0 0 0 .011.059.036.036 0 0 0 .012.012c.005.004.017.01.039.015l-.166.758c-1-.219-.841-1.691.183-1.691v.776Zm490.448 0H-100.53v-.776h490.448v.776Zm-.07-.07c0 .039.032.07.07.07v-.776c.39 0 .706.316.706.706h-.776Zm.067-.07a.07.07 0 0 0-.067.07h.776c0 .378-.298.69-.676.705l-.033-.775Zm-36.943 1.545 36.943-1.545.033.775-36.943 1.545-.033-.775Zm-34.01-.38 34.031.38-.009.775-34.031-.379.009-.776Zm-15.704 1.246a87.296 87.296 0 0 1 15.704-1.246l-.009.776a86.515 86.515 0 0 0-15.564 1.235l-.131-.765Zm-18.623 3.188 18.623-3.188.131.765-18.623 3.188-.131-.765Z"/>
  </g>
  <rect width="290.448" height="101.104" x=".276" y=".948" stroke="url(#f)" stroke-width=".552" rx="50.552"/>
  <defs>
    <radialGradient id="b" cx="0" cy="0" r="1" gradientTransform="matrix(0 19.8154 -245.66 0 183.58 51.527)" gradientUnits="userSpaceOnUse">
      <stop stop-color="#907EFF" stop-opacity="0"/>
      <stop offset="1" stop-color="#907EFF"/>
    </radialGradient>
    <radialGradient id="d" cx="0" cy="0" r="1" gradientTransform="matrix(0 19.8154 -245.66 0 183.58 51.527)" gradientUnits="userSpaceOnUse">
      <stop stop-color="#3A5AFF" stop-opacity="0"/>
      <stop offset="1" stop-color="#907EFF"/>
    </radialGradient>
    <linearGradient id="e" x1="-100.887" x2="390.236" y1="57.57" y2="57.57" gradientUnits="userSpaceOnUse">
      <stop stop-color="#907EFF" stop-opacity="0"/>
      <stop offset=".5" stop-color="#907EFF"/>
      <stop offset="1" stop-color="#907EFF" stop-opacity="0"/>
    </linearGradient>
    <linearGradient id="f" x1="20.386" x2="43.573" y1=".672" y2="131.908" gradientUnits="userSpaceOnUse">
      <stop stop-color="#fff" stop-opacity=".4"/>
      <stop offset=".406" stop-color="#fff" stop-opacity=".01"/>
      <stop offset=".574" stop-color="#fff" stop-opacity=".01"/>
      <stop offset="1" stop-color="#fff" stop-opacity=".1"/>
    </linearGradient>
    <clipPath id="a">
      <rect width="291" height="101.656" y=".672" fill="#fff" rx="50.828"/>
    </clipPath>
    <filter id="c" width="535.553" height="52.047" x="-100.104" y="25.504" color-interpolation-filters="sRGB" filterUnits="userSpaceOnUse">
      <feFlood flood-opacity="0" result="BackgroundImageFix"/>
      <feBlend in="SourceGraphic" in2="BackgroundImageFix" result="shape"/>
      <feGaussianBlur result="effect1_foregroundBlur_4278_1888" stdDeviation="3.104"/>
    </filter>
  </defs>
</svg>
