<svg xmlns="http://www.w3.org/2000/svg" width="303" height="73" fill="none" viewBox="0 0 303 73">
  <g clip-path="url(#a)">
    <rect width="303" height="72.064" fill="gray" fill-opacity=".1" rx="8" style="mix-blend-mode:luminosity"/>
    <rect width="303" height="72.064" fill="#454545" fill-opacity=".15" rx="8" style="mix-blend-mode:darken"/>
    <path fill="#fff" fill-rule="evenodd" d="M2.023 35.593a1.034 1.034 0 0 0-.365-.564.994.994 0 0 0-.622-.216c-.224 0-.44.075-.622.216-.182.141-.306.34-.364.564a2.177 2.177 0 0 0-.05.323v.265c0 .108.017.216.05.324.058.223.182.422.364.563a.993.993 0 0 0 .622.216c.224 0 .44-.075.622-.216.182-.14.307-.34.365-.563.033-.108.041-.216.05-.324v-.265c0-.108-.017-.215-.05-.323Zm-2.015.215v.481-.481Zm2.064.232v.233-.473.24ZM303 35.394v.364c0 .1-.016.191-.041.282.025.092.033.191.041.282v.365-1.301.008Zm-2.072 0v1.301-.373c0-.1.016-.19.041-.282-.025-.09-.033-.19-.041-.282v-.364Zm1.649.041a.986.986 0 0 0-.613-.215.986.986 0 0 0-.613.215 1.03 1.03 0 0 0-.365.564v.083c.058.224.191.423.365.564a.986.986 0 0 0 1.226 0 1.03 1.03 0 0 0 .365-.564v-.083a1.076 1.076 0 0 0-.365-.564Zm-6.623-.041v1.301-.364c0-.1.016-.191.041-.282-.025-.091-.033-.191-.041-.282v-.373Zm2.023.646c.024.092.033.191.041.282v.365-1.301.364c0 .1-.017.19-.041.282v.008Zm-.373-.613a.988.988 0 0 0-.614-.216.987.987 0 0 0-.613.216 1.03 1.03 0 0 0-.365.564v.083c.058.223.191.422.365.563a.988.988 0 0 0 .613.216c.216 0 .44-.075.614-.216.182-.14.306-.34.364-.563v-.083a1.08 1.08 0 0 0-.364-.564Zm-4.56.323c0 .1-.016.19-.041.282.025.091.033.19.041.282v.365-1.302.373Zm-2.064-.364v1.301-.373c0-.1.017-.19.041-.282a1.712 1.712 0 0 1-.041-.282v-.364Zm1.65.041a.988.988 0 0 0-.614-.216.987.987 0 0 0-.613.216 1.03 1.03 0 0 0-.365.564v.083c.058.223.191.422.365.563a.988.988 0 0 0 .613.216c.216 0 .44-.075.614-.216.182-.14.306-.34.364-.563v-.083a1.08 1.08 0 0 0-.364-.564Zm-4.609-.265a1.082 1.082 0 0 0-.365-.564.989.989 0 0 0-.614-.216.988.988 0 0 0-.613.216c-.182.14-.307.34-.365.564a2.257 2.257 0 0 0-.05.323v1.086c0 .108.017.215.05.323.058.224.191.423.365.564a.987.987 0 0 0 1.227 0c.182-.141.307-.34.365-.564.024-.108.041-.215.049-.323v-1.086c0-.108-.016-.216-.049-.323Zm-4.56-.415a1.076 1.076 0 0 0-.365-.563.986.986 0 0 0-.613-.216.986.986 0 0 0-.613.215 1.03 1.03 0 0 0-.365.564 2.127 2.127 0 0 0-.05.324v1.914c0 .108.017.216.05.324.058.224.19.422.365.563a.985.985 0 0 0 .613.216.985.985 0 0 0 .613-.216c.183-.14.307-.34.365-.563.025-.108.042-.216.05-.324v-1.914a1.1 1.1 0 0 0-.05-.324Zm-4.924-.92a1.1 1.1 0 0 0-.05-.323 1.08 1.08 0 0 0-.364-.564.99.99 0 0 0-.614-.215.988.988 0 0 0-.613.215 1.03 1.03 0 0 0-.365.564 2.261 2.261 0 0 0-.05.323v4.402c0 .108.017.215.05.323.058.224.191.423.365.564.174.14.398.215.613.215a.99.99 0 0 0 .614-.215c.182-.141.306-.34.364-.564.025-.108.042-.215.05-.323v-4.41.008Zm-4.974 0c0-.108-.016-.215-.05-.323a1.08 1.08 0 0 0-.364-.564.989.989 0 0 0-.614-.215.988.988 0 0 0-.613.215 1.03 1.03 0 0 0-.365.564 2.261 2.261 0 0 0-.05.323v4.402c0 .108.017.215.05.323.058.224.191.423.365.564a.987.987 0 0 0 1.227 0c.182-.141.306-.34.364-.564.025-.108.042-.215.05-.323v-4.41.008Zm-5.023 1.335a1.082 1.082 0 0 0-.365-.564.989.989 0 0 0-.614-.216.988.988 0 0 0-.613.216c-.182.14-.307.34-.365.564a2.257 2.257 0 0 0-.05.323v1.086c0 .108.017.215.05.323.058.224.191.423.365.564a.987.987 0 0 0 1.227 0c.182-.141.307-.34.365-.564.024-.108.041-.215.049-.323v-1.086c0-.108-.016-.216-.049-.323Zm-4.925-2.993c0-.108-.016-.215-.049-.323a1.082 1.082 0 0 0-.365-.564.988.988 0 0 0-.614-.215.987.987 0 0 0-.613.215c-.174.141-.307.34-.365.564a1.446 1.446 0 0 0-.049.323v7.718c0 .108.016.215.049.323.058.224.191.423.365.564a.987.987 0 0 0 1.227 0c.182-.141.307-.34.365-.564a2.12 2.12 0 0 0 .049-.323v-7.718Zm-5.023-1.567a1.082 1.082 0 0 0-.365-.563.988.988 0 0 0-.613-.216.989.989 0 0 0-.614.216 1.08 1.08 0 0 0-.365.563 1.446 1.446 0 0 0-.049.324V41.13c0 .108.016.216.049.324.058.224.191.422.365.563a.988.988 0 0 0 .614.216.987.987 0 0 0 .613-.216c.174-.14.307-.34.365-.563.033-.108.041-.216.05-.324V30.926a1.1 1.1 0 0 0-.05-.324Zm-4.924-1.749a1.1 1.1 0 0 0-.05-.323 1.083 1.083 0 0 0-.365-.564.988.988 0 0 0-.613-.215.989.989 0 0 0-.614.215 1.08 1.08 0 0 0-.364.564 1.39 1.39 0 0 0-.05.323v14.35c0 .107.016.215.05.323.058.224.19.423.364.572a.988.988 0 0 0 .614.216.988.988 0 0 0 .613-.216c.174-.14.307-.34.365-.572.033-.108.041-.216.05-.323v-14.35Zm-5.024-1.152a1.082 1.082 0 0 0-.365-.564.987.987 0 0 0-.613-.215.99.99 0 0 0-.614.215 1.08 1.08 0 0 0-.364.564 1.448 1.448 0 0 0-.05.323v16.008c0 .108.017.215.05.323.058.224.19.423.364.572a.99.99 0 0 0 .614.216.988.988 0 0 0 .613-.216c.174-.14.307-.34.365-.572a1.45 1.45 0 0 0 .05-.323V28.024a1.1 1.1 0 0 0-.05-.323Zm-4.924-1.335a1.1 1.1 0 0 0-.05-.323 1.076 1.076 0 0 0-.365-.564.986.986 0 0 0-.613-.215.986.986 0 0 0-.613.215c-.175.141-.307.34-.365.564a1.448 1.448 0 0 0-.05.323V45.69c0 .108.017.215.05.323.058.224.19.423.365.572.174.14.397.216.613.216a.986.986 0 0 0 .613-.216c.175-.14.307-.34.365-.572.033-.108.042-.215.05-.323V26.366Zm-5.024 7.138a1.08 1.08 0 0 0-.364-.564.99.99 0 0 0-.614-.215.988.988 0 0 0-.613.215c-.174.14-.307.34-.365.564a1.45 1.45 0 0 0-.05.323v4.402c0 .108.017.215.05.323.058.224.191.423.365.564.174.14.398.215.613.215a.99.99 0 0 0 .614-.215 1.08 1.08 0 0 0 .364-.564c.033-.108.042-.215.05-.323v-4.402a1.1 1.1 0 0 0-.05-.323Zm-4.509-.506a1.1 1.1 0 0 0-.05-.323 1.083 1.083 0 0 0-.365-.564.988.988 0 0 0-.613-.215.989.989 0 0 0-.614.215 1.08 1.08 0 0 0-.364.564 1.39 1.39 0 0 0-.05.323v6.06c0 .108.016.215.05.323.058.224.19.423.364.564.174.14.398.215.614.215a.988.988 0 0 0 .613-.215c.174-.141.307-.34.365-.564.033-.108.041-.215.05-.323v-6.06Zm-5.024-6.54a1.082 1.082 0 0 0-.365-.564.988.988 0 0 0-.613-.216.989.989 0 0 0-.614.216 1.08 1.08 0 0 0-.364.563 1.448 1.448 0 0 0-.05.324v18.494c0 .108.017.216.05.324.058.223.19.422.364.572a.988.988 0 0 0 .614.215.987.987 0 0 0 .613-.216c.174-.14.307-.34.365-.572.033-.107.041-.215.05-.323V26.781a1.1 1.1 0 0 0-.05-.324Zm-4.924-10.04a1.1 1.1 0 0 0-.05-.323 1.076 1.076 0 0 0-.365-.563.985.985 0 0 0-.613-.216.985.985 0 0 0-.613.215c-.175.141-.307.34-.365.564a1.448 1.448 0 0 0-.05.324v39.227c0 .108.017.215.05.323.058.224.19.423.365.564a.986.986 0 0 0 1.226 0c.175-.141.307-.34.365-.564a1.45 1.45 0 0 0 .05-.323V16.419Zm-5.024 15.428a1.08 1.08 0 0 0-.364-.564.99.99 0 0 0-.614-.215.987.987 0 0 0-.613.215c-.174.141-.307.34-.365.564a1.448 1.448 0 0 0-.05.323v7.718c0 .108.017.215.05.323.058.224.191.423.365.564.174.14.398.215.613.215a.99.99 0 0 0 .614-.215 1.08 1.08 0 0 0 .364-.564 1.45 1.45 0 0 0 .05-.323v-7.718a1.1 1.1 0 0 0-.05-.323Zm-4.924-3.822c0-.108-.016-.215-.05-.323a1.08 1.08 0 0 0-.364-.564.988.988 0 0 0-.614-.215.987.987 0 0 0-.613.215c-.174.141-.307.34-.365.564-.033.108-.041.215-.05.323v16.008c0 .108.017.215.05.323.058.224.191.423.365.572a.988.988 0 0 0 .613.216c.216 0 .44-.075.614-.216.174-.14.306-.34.364-.572a1.39 1.39 0 0 0 .05-.323V28.024Zm-5.023 2.164a1.036 1.036 0 0 0-.365-.564.972.972 0 0 0-.614-.215.971.971 0 0 0-.613.215c-.182.141-.307.34-.365.564-.033.108-.041.215-.05.323v11.034c0 .108.017.215.05.323.058.224.183.423.365.572a.988.988 0 0 0 .613.216c.216 0 .44-.075.614-.216.182-.14.307-.34.365-.572.033-.108.041-.215.049-.323V30.51c0-.108-.016-.215-.049-.323Zm-4.925-2.164c0-.108-.016-.215-.049-.323a1.036 1.036 0 0 0-.365-.564.972.972 0 0 0-.614-.215.97.97 0 0 0-.613.215c-.182.141-.307.34-.365.564a1.446 1.446 0 0 0-.049.323v16.008c0 .108.016.215.049.323.058.224.183.423.365.572a.988.988 0 0 0 .613.216c.216 0 .44-.075.614-.216.182-.14.307-.34.365-.572.033-.108.041-.215.049-.323V28.024ZM199.32 12.78a1.036 1.036 0 0 0-.365-.563.971.971 0 0 0-.613-.216.972.972 0 0 0-.614.216c-.182.14-.307.34-.365.563-.033.108-.041.216-.049.323v45.851c0 .108.016.216.049.324.058.224.183.422.365.572.174.14.398.215.614.215a.988.988 0 0 0 .613-.215c.182-.141.307-.34.365-.572.033-.108.041-.216.05-.324V13.12a1.1 1.1 0 0 0-.05-.323v-.017Zm-4.924 11.1a1.1 1.1 0 0 0-.05-.323 1.03 1.03 0 0 0-.365-.564.969.969 0 0 0-.613-.215.972.972 0 0 0-.614.215c-.182.141-.306.34-.364.564a1.39 1.39 0 0 0-.05.323v24.298c0 .107.016.215.05.323.058.224.182.423.364.564a.95.95 0 0 0 1.227 0 1.03 1.03 0 0 0 .365-.564c.033-.108.041-.216.05-.323V23.879Zm-5.024 4.65a1.03 1.03 0 0 0-.365-.563.97.97 0 0 0-.613-.215.972.972 0 0 0-.614.215c-.182.141-.306.34-.364.564a1.39 1.39 0 0 0-.05.323v14.35c0 .107.016.215.05.323.058.224.182.423.364.572a.988.988 0 0 0 .614.216 1.023 1.023 0 0 0 .978-.788c.033-.108.041-.215.05-.323v-14.35a1.1 1.1 0 0 0-.05-.323Zm-4.924-5.479a1.1 1.1 0 0 0-.05-.323 1.03 1.03 0 0 0-.365-.564.97.97 0 0 0-.613-.215.97.97 0 0 0-.613.215 1.03 1.03 0 0 0-.365.564 1.448 1.448 0 0 0-.05.323v25.955c0 .107.017.215.05.323.058.224.182.423.365.564a.949.949 0 0 0 1.226 0 1.03 1.03 0 0 0 .365-.564c.033-.108.042-.216.05-.323V23.05Zm-4.974-.829a1.1 1.1 0 0 0-.05-.323 1.034 1.034 0 0 0-.364-.564.974.974 0 0 0-.614-.215.97.97 0 0 0-.613.215 1.03 1.03 0 0 0-.365.564 1.448 1.448 0 0 0-.05.323v27.613c0 .107.017.215.05.323.058.224.182.423.365.564a.952.952 0 0 0 1.227 0c.182-.141.306-.34.364-.564.033-.108.042-.216.05-.323V22.22Zm-4.559 7.461a1.1 1.1 0 0 0-.05-.323 1.03 1.03 0 0 0-.365-.564.97.97 0 0 0-.613-.215.972.972 0 0 0-.614.215c-.182.141-.306.34-.364.564a1.39 1.39 0 0 0-.05.323v12.692c0 .108.016.215.05.323.058.224.182.423.364.572a.988.988 0 0 0 .614.216 1.023 1.023 0 0 0 .978-.788c.033-.108.041-.215.05-.323V29.682Zm-5.024-1.567a1.03 1.03 0 0 0-.365-.563.969.969 0 0 0-.613-.216.972.972 0 0 0-.614.216c-.182.14-.306.34-.364.563a1.392 1.392 0 0 0-.05.324v15.178c0 .108.016.216.05.324.058.223.182.422.364.572.174.14.398.215.614.215a1.023 1.023 0 0 0 .978-.787c.033-.108.041-.216.05-.324V28.44a1.1 1.1 0 0 0-.05-.324Zm-4.924-10.453a1.1 1.1 0 0 0-.05-.323 1.03 1.03 0 0 0-.365-.564.97.97 0 0 0-.613-.216.97.97 0 0 0-.613.216 1.03 1.03 0 0 0-.365.564 1.45 1.45 0 0 0-.05.323v36.74c0 .108.017.216.05.324.058.223.182.422.365.563a.986.986 0 0 0 .613.216.988.988 0 0 0 .613-.216c.183-.14.307-.34.365-.563.033-.108.042-.216.05-.324V17.662Zm-5.024 12.111a1.034 1.034 0 0 0-.364-.563.974.974 0 0 0-.614-.216.97.97 0 0 0-.613.216 1.03 1.03 0 0 0-.365.563 1.45 1.45 0 0 0-.05.324v11.861c0 .108.017.216.05.324.058.223.182.422.365.572.174.14.398.215.613.215a.99.99 0 0 0 .614-.215c.182-.141.306-.34.364-.572.033-.108.042-.216.05-.324V30.097a1.1 1.1 0 0 0-.05-.324Zm-4.924-15.012c0-.108-.016-.216-.05-.324a1.034 1.034 0 0 0-.364-.563.972.972 0 0 0-.614-.216.97.97 0 0 0-.613.216 1.03 1.03 0 0 0-.365.563c-.033.108-.041.216-.05.324v42.541c0 .107.017.215.05.323.058.224.182.423.365.564.174.14.398.224.613.224a.95.95 0 0 0 .614-.224c.182-.141.306-.34.364-.564.034-.108.042-.216.05-.323V14.76Zm-5.023.505a1.041 1.041 0 0 0-.365-.563.972.972 0 0 0-.614-.216.969.969 0 0 0-.613.216 1.03 1.03 0 0 0-.365.563c-.033.108-.041.216-.05.323v40.877c0 .108.017.216.05.324.058.224.182.422.365.563a.95.95 0 0 0 1.227 0c.182-.14.306-.34.365-.563.033-.108.041-.216.049-.324v-40.86c0-.108-.016-.216-.049-.323v-.017Zm-4.925 9.857c0-.108-.016-.216-.049-.324a1.036 1.036 0 0 0-.365-.563.972.972 0 0 0-.614-.216.971.971 0 0 0-.613.216c-.182.14-.307.34-.365.563a1.453 1.453 0 0 0-.049.324v21.81c0 .108.016.216.049.324.058.223.183.422.365.563a.95.95 0 0 0 1.227 0c.182-.14.307-.34.365-.563.033-.108.041-.216.049-.324V25.123Zm-5.023-2.81a1.036 1.036 0 0 0-.365-.564.971.971 0 0 0-.613-.216.972.972 0 0 0-.614.216c-.182.14-.307.34-.365.564a1.446 1.446 0 0 0-.049.323V49.42c0 .108.016.216.049.323.058.224.183.423.365.564a.95.95 0 0 0 1.227 0c.182-.14.307-.34.365-.564.033-.107.041-.215.05-.323V22.652a1.1 1.1 0 0 0-.05-.323v-.017Zm-4.924-7.552a1.1 1.1 0 0 0-.05-.324 1.03 1.03 0 0 0-.365-.563.97.97 0 0 0-.613-.216.972.972 0 0 0-.614.216 1.04 1.04 0 0 0-.365.563 1.446 1.446 0 0 0-.049.324v42.541c0 .107.016.215.049.323.059.224.183.423.365.564.174.14.398.224.614.224a.95.95 0 0 0 .613-.224 1.03 1.03 0 0 0 .365-.564c.033-.108.041-.216.05-.323V14.76Zm-4.974 5.802a1.1 1.1 0 0 0-.05-.323 1.03 1.03 0 0 0-.365-.564.97.97 0 0 0-.613-.215.972.972 0 0 0-.614.215c-.182.141-.306.34-.364.564a1.392 1.392 0 0 0-.05.323v30.929c0 .107.016.215.05.323.058.224.182.423.364.564a.95.95 0 0 0 1.227 0 1.03 1.03 0 0 0 .365-.564c.033-.108.041-.216.05-.323v-30.93Zm-4.56 14.093c0-.108-.016-.215-.049-.323a1.036 1.036 0 0 0-.365-.564.972.972 0 0 0-.614-.215.971.971 0 0 0-.613.215c-.182.14-.307.34-.365.564-.033.108-.041.215-.05.323V37.4c0 .108.017.215.05.323.058.224.183.423.365.564a.987.987 0 0 0 .613.215c.216 0 .44-.074.614-.215.182-.141.307-.34.365-.564.033-.108.041-.215.049-.323v-2.752.008Zm-5.023-1.981a1.036 1.036 0 0 0-.365-.564.971.971 0 0 0-.613-.215.972.972 0 0 0-.614.215c-.182.141-.307.34-.365.564a1.444 1.444 0 0 0-.049.323v6.059c0 .108.016.215.049.323.058.224.183.423.365.564.174.14.398.215.614.215a.988.988 0 0 0 .613-.215c.182-.141.307-.34.365-.564.033-.108.041-.215.049-.323v-6.06c0-.108-.016-.215-.049-.323Zm-4.924-2.164a1.1 1.1 0 0 0-.05-.323 1.036 1.036 0 0 0-.365-.564.97.97 0 0 0-.613-.215.972.972 0 0 0-.614.215c-.182.141-.306.34-.365.564a1.446 1.446 0 0 0-.049.323v11.034c0 .108.016.215.049.323.059.224.183.423.365.572a.988.988 0 0 0 .614.216.988.988 0 0 0 .613-.216c.182-.14.307-.34.365-.572.033-.108.041-.215.05-.323V30.51Zm-5.024 1.335a1.03 1.03 0 0 0-.365-.564.969.969 0 0 0-.613-.215.972.972 0 0 0-.614.215c-.182.141-.306.34-.364.564a1.392 1.392 0 0 0-.05.323v7.717c0 .108.016.215.05.323.058.224.182.423.364.564.174.14.398.215.614.215a.988.988 0 0 0 .613-.215 1.03 1.03 0 0 0 .365-.564c.033-.108.041-.215.05-.323v-7.718a1.1 1.1 0 0 0-.05-.323Zm-4.924-7.138a1.1 1.1 0 0 0-.05-.323 1.03 1.03 0 0 0-.365-.564.993.993 0 0 0-.621-.215c-.224 0-.44.074-.622.215-.174.141-.307.34-.365.564-.033.108-.041.215-.05.323v22.639c0 .107.017.215.05.323.058.224.183.423.365.564a.97.97 0 0 0 1.243 0c.174-.141.307-.34.365-.564a1.45 1.45 0 0 0 .05-.323v-22.64Zm-5.024-1.981a1.03 1.03 0 0 0-.365-.564.992.992 0 0 0-.621-.215c-.224 0-.44.074-.622.215-.174.141-.307.34-.365.564a1.454 1.454 0 0 0-.05.323v25.955c0 .107.017.215.05.323.058.224.183.423.365.564a.97.97 0 0 0 1.243 0c.175-.141.307-.34.365-.564.033-.108.042-.216.05-.323V23.067a1.1 1.1 0 0 0-.05-.323v-.017Zm-4.924 6.126c0-.108-.016-.215-.05-.323a1.034 1.034 0 0 0-.364-.564.994.994 0 0 0-.622-.215c-.224 0-.44.074-.622.215-.174.141-.307.34-.365.564-.033.108-.041.215-.05.323v14.35c0 .107.017.215.05.323.058.224.183.423.365.572a.994.994 0 0 0 .622.216c.224 0 .44-.075.622-.216.174-.14.306-.34.364-.572.034-.108.042-.216.05-.323v-14.35Zm-4.974-5.803c0-.108-.016-.215-.05-.323a1.033 1.033 0 0 0-.364-.564.994.994 0 0 0-.622-.215c-.224 0-.44.074-.622.215a1.08 1.08 0 0 0-.364.564 1.46 1.46 0 0 0-.05.323v25.955c0 .107.016.215.05.323.058.224.182.423.364.564a.97.97 0 0 0 1.243 0c.175-.141.308-.34.366-.564.033-.108.04-.216.05-.323V23.05Zm-5.023-2.81a1.034 1.034 0 0 0-.365-.564.994.994 0 0 0-.622-.215c-.224 0-.44.074-.622.215a1.08 1.08 0 0 0-.364.564c-.034.108-.042.216-.05.323v30.929c0 .107.016.215.05.323.058.224.182.423.364.564.174.14.398.223.622.223.224 0 .44-.074.622-.223.174-.141.307-.34.365-.564.033-.108.041-.216.05-.323V20.58c0-.108-.017-.216-.05-.323v-.017Zm-4.924 5.297c0-.107-.017-.215-.05-.323a1.034 1.034 0 0 0-.365-.564.994.994 0 0 0-.622-.215c-.224 0-.44.074-.621.215-.175.141-.307.34-.365.564a1.455 1.455 0 0 0-.05.323V46.52c0 .108.017.215.05.323.058.224.182.423.365.564a.971.971 0 0 0 1.243 0c.174-.141.307-.34.365-.564.033-.108.041-.215.05-.323V25.537Zm-5.024 9.625a1.034 1.034 0 0 0-.365-.564.994.994 0 0 0-.622-.216 1.01 1.01 0 0 0-.621.216c-.174.14-.307.34-.365.564-.033.107-.041.215-.05.323v1.085c0 .108.017.215.05.323.058.224.182.423.365.564a1.01 1.01 0 0 0 1.243 0c.174-.141.307-.34.365-.564.033-.108.041-.215.05-.323v-1.086c0-.108-.017-.216-.05-.323Zm-4.56-6.218a1.034 1.034 0 0 0-.364-.563.994.994 0 0 0-.622-.216c-.224 0-.44.075-.622.216-.174.14-.306.34-.365.563-.033.108-.04.216-.05.324v13.519c0 .108.017.216.05.324.058.223.183.422.365.572a1.011 1.011 0 0 0 1.243 0c.175-.141.308-.34.366-.572a1.46 1.46 0 0 0 .05-.324v-13.52c0-.108-.017-.216-.05-.324Zm-4.924 3.225c0-.108-.016-.215-.05-.323a1.033 1.033 0 0 0-.364-.564.994.994 0 0 0-.622-.215c-.224 0-.44.074-.622.215a1.08 1.08 0 0 0-.364.564 1.459 1.459 0 0 0-.05.323v7.717c0 .108.017.215.05.323.058.224.182.423.364.564a1.012 1.012 0 0 0 1.243 0c.175-.141.308-.34.366-.564.033-.108.041-.215.05-.323v-7.718Zm-5.023-8.198a1.033 1.033 0 0 0-.365-.564.994.994 0 0 0-.622-.216c-.224 0-.44.075-.621.216a1.08 1.08 0 0 0-.365.564 1.453 1.453 0 0 0-.05.323v23.468c0 .108.017.216.05.324.058.223.182.422.364.563a.971.971 0 0 0 1.243 0c.175-.14.308-.34.366-.563.033-.108.041-.216.05-.324V24.31c0-.107-.017-.215-.05-.323v-.016Zm-4.924 9.856c0-.108-.017-.215-.05-.323a1.034 1.034 0 0 0-.365-.564.994.994 0 0 0-.622-.215c-.224 0-.439.074-.621.215-.175.14-.307.34-.365.564a1.446 1.446 0 0 0-.05.323v4.402c0 .108.017.215.05.323.058.224.182.423.365.564a1.01 1.01 0 0 0 1.243 0c.174-.141.307-.34.365-.564a1.46 1.46 0 0 0 .05-.323v-4.41.008Zm-4.974-6.217c0-.108-.017-.216-.05-.324a1.082 1.082 0 0 0-.365-.563.97.97 0 0 0-.613-.216.97.97 0 0 0-.614.216c-.182.14-.306.34-.364.563a2.175 2.175 0 0 0-.05.324v16.836c0 .108.016.216.05.324.058.223.19.422.364.572a.988.988 0 0 0 .614.215.99.99 0 0 0 .613-.215c.183-.141.307-.34.365-.572.025-.108.041-.216.05-.324V27.61Zm-4.974 1.243c0-.108-.017-.215-.05-.323a1.082 1.082 0 0 0-.365-.564.971.971 0 0 0-.613-.215.97.97 0 0 0-.614.215c-.182.141-.306.34-.364.564a2.179 2.179 0 0 0-.05.323v14.35c0 .107.017.215.05.323.058.224.19.423.364.572a.99.99 0 0 0 .614.216 1.02 1.02 0 0 0 .978-.788c.025-.108.042-.216.05-.323v-14.35Zm-4.974 4.974c0-.108-.017-.215-.05-.323a1.081 1.081 0 0 0-.364-.564.971.971 0 0 0-.614-.215.971.971 0 0 0-.613.215c-.183.14-.307.34-.365.564a2.192 2.192 0 0 0-.05.323v4.402c0 .108.017.215.05.323.058.224.19.423.365.564a.987.987 0 0 0 1.227 0c.182-.141.306-.34.364-.564.025-.108.042-.215.05-.323v-4.41.008Zm-5.024-4.054a1.082 1.082 0 0 0-.364-.563.971.971 0 0 0-.614-.216.971.971 0 0 0-.613.216c-.183.14-.307.34-.365.563a2.179 2.179 0 0 0-.05.324v11.861c0 .108.017.216.05.324.058.223.19.422.365.572.174.14.398.215.613.215.216 0 .44-.075.614-.215.182-.141.306-.34.364-.572a2.19 2.19 0 0 0 .05-.324V30.097c0-.108-.017-.216-.05-.324Zm-4.924 4.883c0-.108-.016-.215-.05-.323a1.082 1.082 0 0 0-.364-.564.971.971 0 0 0-.614-.215.971.971 0 0 0-.613.215c-.183.14-.307.34-.365.564a2.177 2.177 0 0 0-.05.323V37.4c0 .108.017.215.05.323.058.224.19.423.365.564a.988.988 0 0 0 .613.215c.216 0 .44-.074.614-.215.182-.141.306-.34.364-.564.025-.108.042-.215.05-.323v-2.752.008Zm-5.023.091a1.081 1.081 0 0 0-.365-.563.994.994 0 0 0-.622-.216c-.224 0-.44.075-.622.215a1.08 1.08 0 0 0-.364.564 2.19 2.19 0 0 0-.05.324v1.913c0 .108.017.216.05.324.058.224.19.422.364.563a.993.993 0 0 0 .622.216c.224 0 .44-.075.622-.216.174-.14.307-.34.365-.563a2.42 2.42 0 0 0 .05-.324v-1.914c0-.108-.017-.216-.05-.324Zm-4.552 1.285a1.6 1.6 0 0 1 .042.282v.365-1.302.365c0 .1-.017.19-.041.282v.008Zm-.372-.613a.994.994 0 0 0-.622-.216c-.224 0-.44.075-.622.216a1.08 1.08 0 0 0-.365.563v.083c.058.224.19.423.365.564a1.011 1.011 0 0 0 1.244 0c.174-.14.306-.34.364-.564v-.083a1.081 1.081 0 0 0-.364-.563Zm-1.659-.042v1.302-.365c0-.1.017-.19.042-.282-.025-.091-.033-.19-.042-.282v-.373Zm-2.91-.306c0-.108-.016-.216-.049-.324a1.081 1.081 0 0 0-.365-.563.994.994 0 0 0-.621-.216c-.224 0-.44.075-.622.215-.174.141-.307.34-.365.564a2.177 2.177 0 0 0-.05.324v1.913c0 .108.017.216.05.324.058.224.19.422.365.563a.994.994 0 0 0 .622.216c.223 0 .439-.075.621-.216.174-.14.307-.34.365-.563.025-.108.041-.216.05-.324v-1.923.009Zm-7.037.72v.482-.481Zm2.072.473v-.472.471Zm-.05-.696a1.082 1.082 0 0 0-.364-.564.97.97 0 0 0-.614-.215.97.97 0 0 0-.613.215 1.03 1.03 0 0 0-.365.564 2.174 2.174 0 0 0-.05.323v.266c0 .107.017.215.05.323.058.224.19.423.365.564.174.14.398.215.613.215.216 0 .44-.075.614-.215.182-.141.306-.34.364-.564.025-.108.042-.216.05-.323v-.266c0-.108-.016-.215-.05-.323Zm-4.924.456v.232-.473.24Zm-.05-.456a1.081 1.081 0 0 0-.364-.564.97.97 0 0 0-.614-.215.97.97 0 0 0-.613.215c-.182.141-.307.34-.365.564a2.179 2.179 0 0 0-.05.323v.266c0 .107.017.215.05.323.058.224.183.423.365.564.174.14.398.215.613.215.216 0 .44-.075.614-.215.182-.141.307-.34.365-.564a2.43 2.43 0 0 0 .05-.323v-.266c0-.108-.017-.215-.05-.323Zm-2.022.215v.481-.481Z" clip-rule="evenodd" opacity=".2"/>
    <path fill="#6366F1" fill-rule="evenodd" d="M2.023 35.593a1.034 1.034 0 0 0-.365-.564.994.994 0 0 0-.622-.215c-.224 0-.44.074-.622.215-.182.141-.306.34-.364.564a2.18 2.18 0 0 0-.05.323v.266c0 .107.017.215.05.323.058.224.182.423.364.564a1.011 1.011 0 0 0 1.243 0c.183-.141.308-.34.366-.564.033-.108.041-.216.05-.323v-.266c0-.107-.017-.215-.05-.323Zm-2.015.215v.481-.48Zm2.064.233v.232-.473.24Zm147.924-20.775a1.041 1.041 0 0 0-.365-.563.972.972 0 0 0-.614-.216.97.97 0 0 0-.613.216 1.03 1.03 0 0 0-.365.563c-.033.108-.041.216-.05.324v40.877c0 .108.017.215.05.323.058.224.182.423.365.564.174.14.398.224.613.224a.95.95 0 0 0 .614-.224c.182-.141.306-.34.365-.564.033-.108.041-.215.049-.323V15.606c0-.107-.016-.215-.049-.323v-.017Zm-4.925 9.857c0-.108-.016-.216-.049-.323a1.036 1.036 0 0 0-.365-.564.972.972 0 0 0-.614-.216.971.971 0 0 0-.613.216c-.182.14-.307.34-.365.564a1.446 1.446 0 0 0-.049.323v21.81c0 .108.016.216.049.324.058.224.183.422.365.563a.95.95 0 0 0 1.227 0c.182-.14.307-.34.365-.563.033-.108.041-.216.049-.324v-21.81Zm-5.023-2.81a1.036 1.036 0 0 0-.365-.564.971.971 0 0 0-.613-.215.972.972 0 0 0-.614.215c-.182.141-.307.34-.365.564a1.444 1.444 0 0 0-.049.323V49.42c0 .108.016.216.049.324.058.224.183.422.365.563a.95.95 0 0 0 1.227 0c.182-.14.307-.34.365-.563.033-.108.041-.216.05-.324V22.653a1.1 1.1 0 0 0-.05-.324v-.016Zm-4.924-7.552a1.1 1.1 0 0 0-.05-.324 1.03 1.03 0 0 0-.365-.563.97.97 0 0 0-.613-.216.972.972 0 0 0-.614.216 1.04 1.04 0 0 0-.365.563 1.453 1.453 0 0 0-.049.324v42.543c0 .108.016.215.049.323.059.224.183.423.365.564a.95.95 0 0 0 1.227 0 1.03 1.03 0 0 0 .365-.564c.033-.108.041-.215.05-.323V14.761Zm-4.974 5.803a1.1 1.1 0 0 0-.05-.324 1.03 1.03 0 0 0-.365-.563.97.97 0 0 0-.613-.216.972.972 0 0 0-.614.216c-.182.14-.306.34-.364.563a1.393 1.393 0 0 0-.05.324v30.929c0 .108.016.215.05.323.058.224.182.423.364.564a.95.95 0 0 0 1.227 0 1.03 1.03 0 0 0 .365-.564c.033-.108.041-.215.05-.323V20.564Zm-4.56 14.092c0-.108-.016-.215-.049-.323a1.036 1.036 0 0 0-.365-.564.972.972 0 0 0-.614-.215.971.971 0 0 0-.613.215c-.182.141-.307.34-.365.564-.033.108-.041.215-.05.323V37.4c0 .108.017.216.05.324.058.223.183.422.365.563a.988.988 0 0 0 .613.216c.216 0 .44-.075.614-.216.182-.14.307-.34.365-.563.033-.108.041-.216.049-.324v-2.752.008Zm-5.023-1.981a1.036 1.036 0 0 0-.365-.564.971.971 0 0 0-.613-.215.972.972 0 0 0-.614.215c-.182.141-.307.34-.365.564a1.446 1.446 0 0 0-.049.323v6.06c0 .108.016.216.049.323.058.224.183.423.365.564a.988.988 0 0 0 .614.216.987.987 0 0 0 .613-.216c.182-.14.307-.34.365-.564.033-.107.041-.215.049-.323v-6.06c0-.107-.016-.215-.049-.323Zm-4.924-2.164a1.1 1.1 0 0 0-.05-.323 1.036 1.036 0 0 0-.365-.564.97.97 0 0 0-.613-.215.972.972 0 0 0-.614.215c-.182.141-.306.34-.365.564-.033.108-.041.216-.049.323v11.034c0 .108.016.216.049.323.059.224.183.423.365.572a.988.988 0 0 0 .614.216.988.988 0 0 0 .613-.216c.182-.14.307-.34.365-.572.033-.107.041-.215.05-.323V30.511Zm-5.024 1.335a1.03 1.03 0 0 0-.365-.564.97.97 0 0 0-.613-.215.972.972 0 0 0-.614.215c-.182.141-.306.34-.364.564a1.393 1.393 0 0 0-.05.323v7.718c0 .108.016.216.05.323.058.224.182.423.364.564a.988.988 0 0 0 .614.216.988.988 0 0 0 .613-.216c.183-.14.307-.34.365-.564.033-.107.041-.215.05-.323V32.17a1.1 1.1 0 0 0-.05-.323Zm-4.924-7.137a1.1 1.1 0 0 0-.05-.324 1.03 1.03 0 0 0-.365-.564.993.993 0 0 0-.621-.215c-.224 0-.44.075-.622.215-.174.141-.307.34-.365.564-.033.108-.041.216-.05.323v22.641c0 .108.017.215.05.323.058.224.183.423.365.564a.97.97 0 0 0 1.243 0c.174-.141.307-.34.365-.564.033-.108.042-.215.05-.323v-22.64Zm-5.024-1.982a1.03 1.03 0 0 0-.365-.564.992.992 0 0 0-.621-.215c-.224 0-.44.075-.622.215-.174.142-.307.34-.365.564-.033.108-.041.216-.05.323v25.956c0 .108.017.215.05.323.058.224.183.423.365.564.174.14.398.224.622.224a.97.97 0 0 0 .621-.224c.175-.141.307-.34.365-.564a1.45 1.45 0 0 0 .05-.323V23.067a1.1 1.1 0 0 0-.05-.323v-.017Zm-4.924 6.126a1.07 1.07 0 0 0-.05-.323 1.034 1.034 0 0 0-.364-.564.994.994 0 0 0-.622-.215c-.224 0-.44.075-.622.215-.174.141-.307.34-.365.564-.033.108-.041.216-.05.323v14.35c0 .108.017.216.05.323.058.224.183.423.365.572a.994.994 0 0 0 .622.216c.224 0 .44-.075.622-.216.174-.14.306-.34.364-.572.034-.107.042-.215.05-.323v-14.35Zm-4.974-5.803a1.07 1.07 0 0 0-.05-.323 1.034 1.034 0 0 0-.364-.564.994.994 0 0 0-.622-.215c-.224 0-.44.075-.622.215-.174.142-.306.34-.364.564-.034.108-.042.216-.05.323v25.956c0 .108.016.215.05.323.058.224.182.423.364.564a.971.971 0 0 0 1.243 0c.175-.141.308-.34.366-.564.033-.108.04-.215.05-.323V23.05Zm-5.023-2.81a1.034 1.034 0 0 0-.365-.563.994.994 0 0 0-.622-.216c-.224 0-.44.075-.622.216-.174.14-.306.34-.364.563a1.454 1.454 0 0 0-.05.324v30.929c0 .108.016.215.05.323.058.224.182.423.364.564a.971.971 0 0 0 1.243 0c.175-.141.308-.34.366-.564.033-.108.041-.215.05-.323V20.58c0-.108-.017-.215-.05-.323v-.017Zm-4.924 5.298c0-.108-.017-.216-.05-.324a1.033 1.033 0 0 0-.365-.563.993.993 0 0 0-.622-.216c-.224 0-.44.075-.621.216-.175.14-.307.34-.365.563a1.454 1.454 0 0 0-.05.324v20.981c0 .108.017.215.05.323.058.224.182.423.365.564a.97.97 0 0 0 1.243 0c.174-.141.307-.34.365-.564.033-.108.041-.215.05-.323V25.538Zm-5.024 9.624a1.034 1.034 0 0 0-.365-.564.994.994 0 0 0-.622-.215c-.223 0-.439.074-.621.215-.174.141-.307.34-.365.564-.033.108-.041.215-.05.323v1.086c0 .108.017.216.05.324.058.223.182.422.365.563a.993.993 0 0 0 .621.216c.224 0 .44-.075.622-.216.174-.14.307-.34.365-.563a1.46 1.46 0 0 0 .05-.324v-1.086c0-.108-.017-.215-.05-.323Zm-4.56-6.217a1.033 1.033 0 0 0-.364-.564.993.993 0 0 0-.622-.216c-.224 0-.44.075-.622.216-.174.14-.306.34-.365.564a1.459 1.459 0 0 0-.05.323v13.52c0 .108.017.216.05.324.058.224.183.423.365.572a.993.993 0 0 0 .622.215c.224 0 .44-.074.622-.215.174-.141.306-.34.365-.572.033-.108.04-.216.05-.324v-13.52c0-.108-.017-.216-.05-.323Zm-4.924 3.224a1.07 1.07 0 0 0-.05-.323 1.034 1.034 0 0 0-.364-.564.994.994 0 0 0-.622-.215c-.224 0-.44.074-.622.215a1.08 1.08 0 0 0-.364.564 1.46 1.46 0 0 0-.05.323v7.718c0 .108.017.216.05.323.058.224.182.423.364.564a.996.996 0 0 0 .622.216c.224 0 .44-.075.622-.216.174-.14.307-.34.365-.564.033-.107.041-.215.05-.323V32.17Zm-5.023-8.198a1.033 1.033 0 0 0-.365-.564.994.994 0 0 0-.622-.215c-.224 0-.44.074-.621.215-.175.14-.307.34-.365.564a1.454 1.454 0 0 0-.05.323v23.468c0 .108.017.216.05.324.058.224.182.422.364.563a.971.971 0 0 0 1.243 0c.175-.14.308-.34.366-.563.033-.108.041-.216.05-.324V24.311c0-.108-.017-.216-.05-.324v-.016Zm-4.924 9.856c0-.108-.017-.215-.05-.323a1.034 1.034 0 0 0-.365-.564.993.993 0 0 0-.622-.215c-.224 0-.439.074-.621.215a1.08 1.08 0 0 0-.365.564 1.453 1.453 0 0 0-.05.323v4.402c0 .108.017.216.05.324.058.223.182.422.365.563a.993.993 0 0 0 .621.216c.224 0 .44-.075.622-.216.174-.14.307-.34.365-.563.033-.108.041-.216.05-.324v-4.41.008Zm-4.974-6.217c0-.108-.017-.216-.05-.323a1.082 1.082 0 0 0-.365-.564.971.971 0 0 0-.613-.216.971.971 0 0 0-.614.216c-.182.14-.306.34-.364.564a2.179 2.179 0 0 0-.05.323v16.836c0 .108.016.216.05.324.058.224.19.423.364.572a.988.988 0 0 0 1.227 0c.183-.141.307-.34.365-.572a2.19 2.19 0 0 0 .05-.324V27.61Zm-4.974 1.243c0-.107-.017-.215-.05-.323a1.082 1.082 0 0 0-.365-.564.971.971 0 0 0-.613-.215.97.97 0 0 0-.614.215c-.182.141-.306.34-.364.564a2.177 2.177 0 0 0-.05.323v14.35c0 .108.017.216.05.323.058.224.19.423.364.572a.99.99 0 0 0 .614.216 1.02 1.02 0 0 0 .978-.788c.025-.107.042-.215.05-.323v-14.35Zm-4.974 4.974c0-.108-.017-.215-.05-.323a1.08 1.08 0 0 0-.364-.564.97.97 0 0 0-.614-.215.97.97 0 0 0-.613.215 1.03 1.03 0 0 0-.365.564 2.188 2.188 0 0 0-.05.323v4.403c0 .107.017.215.05.323.058.223.19.422.365.563a.988.988 0 0 0 .613.216c.216 0 .44-.075.614-.216.182-.14.306-.34.364-.563.025-.108.042-.216.05-.324v-4.41.008Zm-5.024-4.053a1.081 1.081 0 0 0-.364-.564.97.97 0 0 0-.614-.216.97.97 0 0 0-.613.216c-.183.14-.307.34-.365.564a2.175 2.175 0 0 0-.05.323V41.96c0 .107.017.215.05.323.058.224.19.423.365.572a.987.987 0 0 0 1.227 0c.182-.141.306-.34.364-.572.025-.108.042-.216.05-.323V30.097c0-.108-.017-.216-.05-.323Zm-4.924 4.882c0-.108-.016-.215-.05-.323a1.082 1.082 0 0 0-.364-.564.971.971 0 0 0-.614-.215.971.971 0 0 0-.613.215 1.03 1.03 0 0 0-.365.564 2.179 2.179 0 0 0-.05.323V37.4c0 .108.017.216.05.324.058.223.19.422.365.563a.988.988 0 0 0 .613.216c.216 0 .44-.075.614-.216.182-.14.306-.34.364-.563.025-.108.042-.216.05-.324v-2.752.008Zm-5.023.091a1.082 1.082 0 0 0-.365-.563.994.994 0 0 0-.622-.216c-.224 0-.44.075-.622.216-.174.14-.306.34-.364.563a2.192 2.192 0 0 0-.05.324v1.915c0 .107.017.215.05.323.058.224.19.423.364.564a1.011 1.011 0 0 0 1.243 0c.175-.141.308-.34.366-.564a2.43 2.43 0 0 0 .05-.323V35.07c0-.108-.017-.216-.05-.324Zm-4.552 1.285c.025.092.034.191.042.282v.365-1.302.365c0 .1-.017.19-.041.282v.008Zm-.372-.613a.994.994 0 0 0-.622-.216c-.224 0-.44.075-.622.216-.174.14-.307.34-.365.564v.082c.058.224.19.423.365.564a.994.994 0 0 0 .622.216c.224 0 .44-.075.622-.216.174-.14.306-.34.364-.563v-.083a1.082 1.082 0 0 0-.364-.564Zm-1.659-.041v1.301-.365c0-.1.017-.19.042-.282-.025-.09-.033-.19-.042-.281v-.374Zm-2.91-.307c0-.108-.016-.216-.049-.324a1.081 1.081 0 0 0-.365-.563.994.994 0 0 0-.621-.216c-.224 0-.44.075-.622.216a1.08 1.08 0 0 0-.365.563 2.179 2.179 0 0 0-.05.324v1.915c0 .107.017.215.05.323.058.224.19.423.365.564a1.011 1.011 0 0 0 1.244 0c.173-.141.306-.34.364-.564.025-.108.041-.216.05-.323v-1.924.009Zm-7.037.721v.48-.48Zm2.072.472v-.472.472Zm-.05-.696a1.082 1.082 0 0 0-.364-.564.971.971 0 0 0-.614-.215.971.971 0 0 0-.613.215 1.03 1.03 0 0 0-.365.564 2.178 2.178 0 0 0-.05.323v.266c0 .108.017.215.05.323.058.224.19.423.365.564a.987.987 0 0 0 1.227 0c.182-.141.306-.34.364-.564a2.19 2.19 0 0 0 .05-.323v-.266a1.07 1.07 0 0 0-.05-.323Zm-4.924.456v.232-.472.24Zm-.05-.456a1.081 1.081 0 0 0-.364-.564.971.971 0 0 0-.614-.215.971.971 0 0 0-.613.215c-.182.141-.307.34-.365.564a2.183 2.183 0 0 0-.05.323v.266c0 .108.017.215.05.323.058.224.183.423.365.564a.987.987 0 0 0 1.227 0c.182-.141.307-.34.365-.564a2.18 2.18 0 0 0 .05-.323v-.266c0-.107-.017-.215-.05-.323Zm-2.022.216v.48-.48Z" clip-rule="evenodd"/>
  </g>
  <rect width="302.448" height="71.513" x=".276" y=".276" stroke="url(#b)" stroke-width=".552" rx="7.724"/>
  <defs>
    <linearGradient id="b" x1="21.227" x2="32.602" y1="0" y2="94.57" gradientUnits="userSpaceOnUse">
      <stop stop-color="#fff" stop-opacity=".4"/>
      <stop offset=".406" stop-color="#fff" stop-opacity=".01"/>
      <stop offset=".574" stop-color="#fff" stop-opacity=".01"/>
      <stop offset="1" stop-color="#fff" stop-opacity=".1"/>
    </linearGradient>
    <clipPath id="a">
      <rect width="303" height="72.064" fill="#fff" rx="8"/>
    </clipPath>
  </defs>
</svg>
