<svg width="188" height="26" viewBox="0 0 188 26" fill="none" xmlns="http://www.w3.org/2000/svg">
<path fill-rule="evenodd" clip-rule="evenodd" d="M23.2476 25.7354L18.0592 20.5493L12.8708 15.3633L10.3713 12.865L12.8708 10.3666L18.0592 5.18601L23.2476 0H12.8708L0 12.865L12.8708 25.7354H23.2476ZM46.7657 19.1055H46.8198L50.5636 15.3633L53.0631 12.865L50.5636 10.3666L46.8144 6.62446H33.5594L29.8101 10.3666L27.3106 12.865L29.8101 15.3633L33.554 19.1055H43.1246L46.955 25.7354H29.8101L16.9393 12.865L29.8101 0H50.5636L63.4344 12.865L50.5853 25.7137L46.7657 19.1055Z" fill="url(#paint0_radial_4117_2386)"/>
<path d="M169.667 23.2042H166.965V9.15236H169.379L169.638 10.9915C170.356 9.66961 171.85 8.75006 173.833 8.75006C176.017 8.75006 177.569 9.84202 178.287 11.5949C178.948 9.84202 180.644 8.75006 182.828 8.75006C186.046 8.75006 188 10.7616 188 14.0087V23.2042H185.356V14.6697C185.356 12.457 184.121 11.1926 182.224 11.1926C180.184 11.1926 178.833 12.6294 178.833 14.8708V23.2042H176.161V14.6409C176.161 12.4283 174.954 11.2213 173.057 11.2213C171.017 11.2213 169.667 12.6294 169.667 14.8708V23.2042Z" fill="white"/>
<path d="M160.374 9.15234H163.046V23.2042H160.633L160.345 21.0777C159.541 22.5433 157.673 23.549 155.604 23.549C152.328 23.549 150.489 21.3364 150.489 17.8881V9.15234H153.19V16.9972C153.19 20.0145 154.483 21.1639 156.552 21.1639C159.023 21.1639 160.374 19.5835 160.374 16.5662V9.15234Z" fill="white"/>
<path d="M145.478 23.2042H142.777V11.4225H140.019V9.15233H142.777V4.75574H145.478V9.15233H148.237V11.4225H145.478V23.2042Z" fill="white"/>
<path d="M127.685 23.2042H124.984V9.15236H127.426L127.714 11.3076C128.605 9.69835 130.386 8.75006 132.369 8.75006C136.076 8.75006 137.771 11.0202 137.771 14.6122V23.2042H135.07V15.2156C135.07 12.3708 133.748 11.2213 131.679 11.2213C129.151 11.2213 127.685 13.0317 127.685 15.7616V23.2042Z" fill="white"/>
<path d="M113.743 23.549C110.726 23.549 108.944 21.8536 108.944 19.2961C108.944 16.7099 110.869 15.1007 114.174 14.8421L118.599 14.4972V14.0949C118.599 11.7386 117.191 10.9053 115.295 10.9053C113.025 10.9053 111.731 11.911 111.731 13.6064H109.375C109.375 10.6754 111.789 8.75006 115.41 8.75006C118.887 8.75006 121.243 10.5892 121.243 14.3823V23.2042H118.944L118.657 20.9341C117.938 22.5433 116.013 23.549 113.743 23.549ZM114.519 21.4513C117.076 21.4513 118.628 19.7846 118.628 17.1409V16.3938L115.036 16.6812C112.651 16.9111 111.674 17.8306 111.674 19.2099C111.674 20.7042 112.766 21.4513 114.519 21.4513Z" fill="white"/>
<path d="M103.042 9.15234H105.715V23.2042H103.301L103.013 21.0777C102.209 22.5433 100.341 23.549 98.272 23.549C94.9961 23.549 93.157 21.3364 93.157 17.8881V9.15234H95.8582V16.9972C95.8582 20.0145 97.1513 21.1639 99.2203 21.1639C101.692 21.1639 103.042 19.5835 103.042 16.5662V9.15234Z" fill="white"/>
<path d="M87.8312 24.5835L85.5898 22.0547C84.038 23.003 82.1989 23.549 80.1587 23.549C74.2966 23.549 70.2161 19.1237 70.2161 12.8018C70.2161 6.50863 74.3253 2.05457 80.1874 2.05457C86.0783 2.05457 90.1875 6.47989 90.1875 12.8018C90.1875 15.9053 89.1817 18.549 87.4863 20.4455L89.6703 22.9168L87.8312 24.5835ZM87.2277 12.8018C87.2277 7.97416 84.4116 4.78447 80.1874 4.78447C75.9632 4.78447 73.1759 7.97416 73.1759 12.8018C73.1759 17.6294 75.9632 20.8478 80.1874 20.8478C81.5093 20.8478 82.6874 20.5317 83.6932 19.9283L80.9633 16.8535L82.8024 15.1869L85.561 18.2903C86.6243 16.911 87.2277 15.0144 87.2277 12.8018Z" fill="white"/>
<defs>
<radialGradient id="paint0_radial_4117_2386" cx="0" cy="0" r="1" gradientUnits="userSpaceOnUse" gradientTransform="translate(12.7347 -0.505136) rotate(17.7592) scale(53.2366 33.7784)">
<stop stop-color="#907EFF"/>
<stop offset="1" stop-color="#4738A5"/>
</radialGradient>
</defs>
</svg>
