<svg xmlns="http://www.w3.org/2000/svg" width="1196" height="578" fill="none" viewBox="0 0 1196 578">
  <path fill="#6FD195" d="M46.02 431.344C15.872 394.788 0 353.321 0 311.11s15.872-83.679 46.02-120.234c30.149-36.556 73.511-66.912 125.73-88.018 52.219-21.105 111.453-32.216 171.75-32.216V311.11L46.02 431.344Z"/>
  <path fill="url(#a)" d="M343.5 27c-60.297 0-119.531 11.111-171.75 32.217v43.642c52.219-21.106 111.453-32.217 171.75-32.217V27Z"/>
  <path fill="url(#b)" d="M171.75 59.217c-52.219 21.105-95.581 51.461-125.73 88.017v43.642c30.149-36.555 73.511-66.912 125.73-88.017V59.217Z"/>
  <path fill="url(#c)" d="M46.02 147.234C15.872 183.79 0 225.257 0 267.468v43.643c0-42.211 15.872-83.679 46.02-120.235v-43.642Z"/>
  <path fill="#6F63BC" d="M0 267.468c0 42.211 15.872 83.678 46.02 120.234v43.642C15.872 394.788 0 353.321 0 311.11v-43.642Z"/>
  <path fill="url(#d)" d="M46.02 387.702 343.5 267.468v43.642L46.02 431.344v-43.642Z"/>
  <path fill="#907EFF" d="M46.02 387.702C15.872 351.146 0 309.679 0 267.468s15.872-83.678 46.02-120.234c30.149-36.556 73.511-66.912 125.73-88.017C223.969 38.11 283.203 27 343.5 27v240.468L46.02 387.702Z"/>
  <path fill="#537FF1" d="M122.702 495.32c-30.695-18.031-56.647-39.683-76.682-63.976L343.5 311.11 122.702 495.32Z"/>
  <path fill="url(#e)" d="M343.5 267.469 46.02 387.703v43.642L343.5 311.111v-43.642Z"/>
  <path fill="url(#f)" d="M122.702 451.678 343.5 267.469v43.642L122.702 495.32v-43.642Z"/>
  <path fill="#023840" d="M46.02 387.703c20.035 24.293 45.987 45.944 76.682 63.975v43.642c-30.695-18.03-56.647-39.682-76.682-63.975v-43.642Z"/>
  <path fill="#005F6C" d="M122.702 451.677c-30.695-18.031-56.647-39.682-76.682-63.975L343.5 267.468 122.702 451.677Z"/>
  <path fill="#8979FF" d="M343.5 190.876V70.642c80.758 0 158.933 19.919 220.797 56.258 61.864 36.34 103.461 86.777 117.484 142.453L343.5 311.11V190.876Z"/>
  <path fill="url(#g)" d="M564.297 83.259C502.433 46.919 424.258 27 343.5 27v43.642c80.758 0 158.933 19.92 220.797 56.259V83.259Z"/>
  <path fill="url(#h)" d="M681.781 225.711c-14.023-55.676-55.619-106.112-117.483-142.452V126.9c61.864 36.34 103.46 86.777 117.483 142.452V225.71Z"/>
  <path fill="url(#i)" d="m343.5 267.468 338.281-41.757v43.642L343.5 311.11v-43.642Z"/>
  <path fill="#5136F4" d="M343.5 27c80.758 0 158.933 19.919 220.797 56.259 61.864 36.34 103.461 86.776 117.484 142.452L343.5 267.468V27Z"/>
  <path fill="#FF928A" d="M681.781 269.353c3.483 13.825 5.216 27.782 5.219 41.714.007 27.959-6.952 55.814-20.716 82.287-20.622 39.666-55.796 74.832-101.987 101.965L343.5 311.109l338.281-41.756Z"/>
  <path fill="url(#j)" d="M687 267.425c-.003-13.931-1.736-27.889-5.219-41.714v43.642c3.483 13.825 5.216 27.783 5.219 41.714v-43.642Z"/>
  <path fill="url(#k)" d="M681.781 225.711 343.5 267.468v43.642l338.281-41.757v-43.642Z"/>
  <path fill="#1F3479" d="M666.284 349.712c13.751-26.447 20.709-54.273 20.716-82.204v43.559c.007 27.959-6.951 55.814-20.716 82.287v-43.642Z"/>
  <path fill="url(#l)" d="m343.5 267.468 220.797 184.209v43.642L343.5 311.11v-43.642Z"/>
  <path fill="#1F3479" d="M564.298 451.677c46.19-27.132 81.364-62.299 101.986-101.964v43.642c-20.622 39.665-55.796 74.832-101.986 101.964v-43.642Z"/>
  <path fill="#294CBD" d="M681.781 225.711c10.471 41.57 5.126 84.337-15.497 124.002-20.623 39.665-55.797 74.832-101.987 101.964L343.5 267.468l338.281-41.757Z"/>
  <path fill="#3CC3DF" d="M564.298 495.32c-61.865 36.339-140.04 56.258-220.798 56.258V311.11l220.798 184.21Z"/>
  <path fill="url(#m)" d="M564.297 451.678 343.5 267.469v43.642L564.297 495.32v-43.642Z"/>
  <path fill="#266977" d="M343.5 507.937c80.758 0 158.933-19.919 220.798-56.259v43.642c-61.865 36.34-140.04 56.259-220.798 56.259v-43.642Z"/>
  <path fill="#2B889B" d="M564.297 451.677c-61.864 36.34-140.039 56.259-220.797 56.259V267.468l220.797 184.209Z"/>
  <path fill="#FFAE4C" d="M343.5 431.344v120.234c-80.758 0-158.934-19.919-220.798-56.258L343.5 311.11v120.234Z"/>
  <path fill="url(#n)" d="M343.5 267.469 122.702 451.678v43.642L343.5 311.111v-43.642Z"/>
  <path fill="#0D5021" d="M122.702 451.678c61.864 36.34 140.04 56.259 220.798 56.259v43.642c-80.758 0-158.934-19.919-220.798-56.259v-43.642Z"/>
  <path fill="#0F732D" d="M343.5 507.936c-80.758 0-158.934-19.919-220.798-56.259L343.5 267.468v240.468Z"/>
  <path fill="url(#o)" d="M750 109.561a7.764 7.764 0 0 1 7.764-7.764h429.616c4.29 0 7.77 3.476 7.77 7.764v53.487c0 4.288-3.48 7.764-7.77 7.764H757.764a7.764 7.764 0 0 1-7.764-7.764v-53.487Z"/>
  <path fill="#5136F4" d="M750 106.973a5.176 5.176 0 1 1 10.352 0v58.663a5.176 5.176 0 0 1-10.352 0v-58.663Z"/>
  <path fill="url(#p)" d="M750 7.764A7.764 7.764 0 0 1 757.764 0h429.616c4.29 0 7.77 3.476 7.77 7.764v53.487c0 4.288-3.48 7.764-7.77 7.764H757.764A7.764 7.764 0 0 1 750 61.25V7.764Z"/>
  <path fill="#907EFF" d="M750 5.176a5.176 5.176 0 1 1 10.352 0V63.84a5.176 5.176 0 1 1-10.352 0V5.176Z"/>
  <path fill="url(#q)" d="M750 211.358a7.764 7.764 0 0 1 7.764-7.764h429.616c4.29 0 7.77 3.476 7.77 7.764v53.486a7.768 7.768 0 0 1-7.77 7.765H757.764a7.764 7.764 0 0 1-7.764-7.765v-53.486Z"/>
  <path fill="#294CBD" d="M750 208.77a5.176 5.176 0 1 1 10.352 0v58.663a5.176 5.176 0 0 1-10.352 0V208.77Z"/>
  <path fill="url(#r)" d="M750 313.155a7.764 7.764 0 0 1 7.764-7.764h429.616c4.29 0 7.77 3.476 7.77 7.764v53.486c0 4.288-3.48 7.765-7.77 7.765H757.764a7.765 7.765 0 0 1-7.764-7.765v-53.486Z"/>
  <path fill="#2B889B" d="M750 310.567a5.176 5.176 0 1 1 10.352 0v58.662a5.176 5.176 0 1 1-10.352 0v-58.662Z"/>
  <path fill="url(#s)" d="M750 414.953a7.765 7.765 0 0 1 7.764-7.765h429.616c4.29 0 7.77 3.477 7.77 7.765v53.486c0 4.288-3.48 7.764-7.77 7.764H757.764a7.764 7.764 0 0 1-7.764-7.764v-53.486Z"/>
  <path fill="#0F732D" d="M750 412.365a5.176 5.176 0 1 1 10.352 0v58.662a5.176 5.176 0 1 1-10.352 0v-58.662Z"/>
  <path fill="url(#t)" d="M750 516.75a7.764 7.764 0 0 1 7.764-7.765h429.616c4.29 0 7.77 3.476 7.77 7.765v53.486c0 4.288-3.48 7.764-7.77 7.764H757.764a7.764 7.764 0 0 1-7.764-7.764V516.75Z"/>
  <path fill="#005F6C" d="M750 514.161a5.176 5.176 0 0 1 10.352 0v58.663a5.176 5.176 0 1 1-10.352 0v-58.663Z"/>
  <path fill="#fff" d="M1054.11 146.658v-7.169c0-.932-.29-1.7-.88-2.304-.59-.604-1.35-.906-2.28-.906-.62 0-1.17.138-1.66.415-.48.276-.86.655-1.13 1.138-.28.483-.42 1.035-.42 1.657l-.96-.544c0-.932.21-1.76.63-2.484.41-.725.99-1.294 1.73-1.709.74-.431 1.58-.647 2.51-.647.93 0 1.75.233 2.46.699a5.09 5.09 0 0 1 1.71 1.838c.41.742.62 1.535.62 2.381v7.635h-2.33Zm-8.7 0v-12.294h2.33v12.294h-2.33Zm-7.75.258c-1.2 0-2.29-.284-3.26-.854a6.45 6.45 0 0 1-2.3-2.303c-.57-.984-.85-2.079-.85-3.287 0-1.19.28-2.26.85-3.209a6.45 6.45 0 0 1 2.3-2.303c.97-.57 2.06-.855 3.26-.855 1.19 0 2.27.285 3.24.855a6.181 6.181 0 0 1 2.33 2.277c.57.966.85 2.045.85 3.235 0 1.208-.28 2.303-.85 3.287a6.377 6.377 0 0 1-2.33 2.303c-.97.57-2.05.854-3.24.854Zm0-2.251c.78 0 1.47-.181 2.07-.544a3.903 3.903 0 0 0 1.43-1.475c.34-.638.52-1.363.52-2.174 0-.794-.19-1.501-.55-2.122a3.692 3.692 0 0 0-1.42-1.449c-.59-.363-1.27-.544-2.05-.544-.77 0-1.46.181-2.07.544-.6.345-1.08.828-1.42 1.449-.35.621-.52 1.328-.52 2.122 0 .811.17 1.536.52 2.174.34.621.82 1.113 1.42 1.475.61.363 1.3.544 2.07.544Zm-10.08 1.993v-12.293h2.33v12.293h-2.33Zm1.16-14.752c-.43 0-.78-.138-1.06-.414a1.549 1.549 0 0 1-.41-1.087c0-.414.14-.759.41-1.035.28-.294.63-.44 1.06-.44.44 0 .79.146 1.07.44.27.276.41.621.41 1.035 0 .431-.14.794-.41 1.087-.28.276-.63.414-1.07.414Zm-7.53 14.751v-17.443h2.33v17.443h-2.33Zm-3.03-10.171v-2.122h8.39v2.122h-8.39Zm-7.35 10.43c-1.12 0-2.14-.276-3.06-.828a6.264 6.264 0 0 1-2.17-2.303c-.52-.966-.78-2.053-.78-3.261 0-1.208.26-2.295.78-3.261.54-.966 1.25-1.734 2.15-2.303.91-.57 1.94-.855 3.08-.855.93 0 1.76.199 2.48.596a4.54 4.54 0 0 1 1.79 1.604c.45.673.7 1.458.75 2.355v3.701c-.05.88-.3 1.665-.75 2.356a4.586 4.586 0 0 1-1.76 1.63c-.73.38-1.56.569-2.51.569Zm.39-2.199c1.15 0 2.08-.389 2.79-1.165.71-.794 1.06-1.803 1.06-3.028 0-.846-.16-1.579-.49-2.2a3.41 3.41 0 0 0-1.34-1.475c-.59-.363-1.27-.544-2.05-.544-.78 0-1.47.181-2.07.544-.59.362-1.05.862-1.4 1.501-.32.621-.49 1.337-.49 2.148 0 .828.17 1.561.49 2.2.35.621.82 1.113 1.43 1.475.6.362 1.29.544 2.07.544Zm3.7 1.941v-3.313l.44-3.002-.44-2.977v-3.002h2.35v12.294h-2.35Z"/>
  <path fill="#fff" d="M1000.1 146.916c-1.206 0-2.302-.284-3.285-.854a6.406 6.406 0 0 1-2.304-2.303c-.552-.984-.828-2.071-.828-3.261 0-1.208.276-2.295.828-3.261a6.206 6.206 0 0 1 2.304-2.277c.983-.57 2.079-.855 3.285-.855.95 0 1.83.182 2.64.544.81.345 1.51.854 2.1 1.527l-1.56 1.553a3.482 3.482 0 0 0-1.39-1.01 4.321 4.321 0 0 0-1.79-.362c-.775 0-1.465.181-2.069.544a3.706 3.706 0 0 0-1.423 1.449c-.345.621-.518 1.337-.518 2.148 0 .811.173 1.527.518 2.148a3.892 3.892 0 0 0 1.423 1.475c.604.363 1.294.544 2.069.544.66 0 1.25-.112 1.79-.337a4.062 4.062 0 0 0 1.42-1.035l1.53 1.553a5.825 5.825 0 0 1-2.1 1.527c-.81.362-1.69.543-2.64.543Zm-13.363 0c-1.208 0-2.295-.284-3.261-.854a6.406 6.406 0 0 1-2.304-2.303c-.569-.984-.854-2.079-.854-3.287 0-1.19.285-2.26.854-3.209a6.406 6.406 0 0 1 2.304-2.303c.966-.57 2.053-.855 3.261-.855 1.19 0 2.268.285 3.235.855a6.157 6.157 0 0 1 2.329 2.277c.569.966.854 2.045.854 3.235 0 1.208-.285 2.303-.854 3.287a6.352 6.352 0 0 1-2.329 2.303c-.967.57-2.045.854-3.235.854Zm0-2.251c.776 0 1.466-.181 2.07-.544a3.892 3.892 0 0 0 1.423-1.475c.345-.638.518-1.363.518-2.174 0-.794-.181-1.501-.544-2.122a3.706 3.706 0 0 0-1.423-1.449c-.587-.363-1.268-.544-2.044-.544-.777 0-1.467.181-2.071.544a3.706 3.706 0 0 0-1.423 1.449c-.345.621-.518 1.328-.518 2.122 0 .811.173 1.536.518 2.174a3.892 3.892 0 0 0 1.423 1.475c.604.363 1.294.544 2.071.544Zm-10.06 1.992v-18.478h2.329v18.478h-2.329Zm-4.443 0v-18.478h2.329v18.478h-2.329Zm-17.632 0 7.35-17.961h1.76l7.324 17.961h-2.64l-6.03-15.191h.906l-6.082 15.191h-2.588Zm3.494-4.063v-2.122h9.446v2.122h-9.446Zm-12.832 4.322c-1.225 0-2.329-.276-3.313-.828a6.344 6.344 0 0 1-2.329-2.303c-.569-.966-.854-2.062-.854-3.287 0-1.208.276-2.295.828-3.261a6.27 6.27 0 0 1 2.277-2.277c.967-.57 2.045-.855 3.236-.855 1.138 0 2.139.259 3.002.777a5.327 5.327 0 0 1 2.044 2.148c.501.914.751 1.95.751 3.106 0 .172-.009.362-.026.569a6.39 6.39 0 0 1-.104.673h-10.378v-1.941h9.136l-.854.75c0-.828-.147-1.527-.44-2.096a3.13 3.13 0 0 0-1.242-1.346c-.535-.328-1.182-.491-1.941-.491-.794 0-1.493.172-2.097.517a3.54 3.54 0 0 0-1.397 1.449c-.328.622-.492 1.355-.492 2.2 0 .863.173 1.622.518 2.278a3.744 3.744 0 0 0 1.475 1.501c.638.345 1.372.518 2.2.518.69 0 1.32-.121 1.889-.363a3.904 3.904 0 0 0 1.501-1.087l1.501 1.527a5.7 5.7 0 0 1-2.174 1.579 6.827 6.827 0 0 1-2.717.543Zm-10.137-.259v-18.478h2.329v18.478h-2.329Zm-8.541.259c-1.122 0-2.14-.276-3.054-.828a6.194 6.194 0 0 1-2.174-2.303c-.518-.966-.777-2.053-.777-3.261 0-1.208.259-2.295.777-3.261a6.273 6.273 0 0 1 2.148-2.303c.914-.57 1.941-.855 3.08-.855.931 0 1.759.199 2.484.596a4.577 4.577 0 0 1 1.786 1.604c.448.673.699 1.458.75 2.355v3.701c-.051.88-.302 1.665-.75 2.356a4.58 4.58 0 0 1-1.76 1.63c-.725.38-1.561.569-2.51.569Zm.388-2.199c1.156 0 2.088-.389 2.795-1.165.707-.794 1.061-1.803 1.061-3.028 0-.846-.164-1.579-.492-2.2a3.38 3.38 0 0 0-1.346-1.475c-.586-.363-1.268-.544-2.044-.544s-1.467.181-2.071.544a3.906 3.906 0 0 0-1.397 1.501c-.328.621-.492 1.337-.492 2.148 0 .828.164 1.561.492 2.2a3.892 3.892 0 0 0 1.423 1.475c.604.362 1.294.544 2.071.544Zm3.701 1.941v-3.313l.44-3.002-.44-2.977v-3.002h2.355v12.294h-2.355Zm-15.16.258a7.34 7.34 0 0 1-1.967-.258 7.104 7.104 0 0 1-1.682-.777 6.028 6.028 0 0 1-1.346-1.216l1.501-1.501c.448.552.966.966 1.553 1.242.586.259 1.242.388 1.967.388.724 0 1.285-.121 1.682-.362.397-.259.595-.613.595-1.061 0-.449-.164-.794-.492-1.036-.31-.258-.716-.465-1.216-.621a25.55 25.55 0 0 0-1.605-.491 9.874 9.874 0 0 1-1.578-.647 3.525 3.525 0 0 1-1.243-1.061c-.31-.449-.465-1.044-.465-1.786s.181-1.381.543-1.915a3.495 3.495 0 0 1 1.501-1.269c.656-.293 1.441-.44 2.355-.44.966 0 1.821.173 2.562.518.76.328 1.381.828 1.864 1.501l-1.501 1.501a3.461 3.461 0 0 0-1.294-1.035c-.501-.242-1.07-.362-1.708-.362-.673 0-1.191.12-1.553.362a1.077 1.077 0 0 0-.518.958c0 .414.155.733.466.957.311.224.716.414 1.216.57.518.155 1.053.319 1.605.491a7.47 7.47 0 0 1 1.579.647c.5.276.906.647 1.216 1.113.328.466.492 1.079.492 1.838 0 1.156-.414 2.07-1.242 2.743-.811.673-1.907 1.009-3.287 1.009Zm-10.796 0c-1.225 0-2.329-.276-3.313-.828a6.352 6.352 0 0 1-2.329-2.303c-.569-.966-.854-2.062-.854-3.287 0-1.208.276-2.295.828-3.261a6.272 6.272 0 0 1 2.278-2.277c.966-.57 2.044-.855 3.235-.855 1.139 0 2.139.259 3.002.777a5.329 5.329 0 0 1 2.045 2.148c.5.914.75 1.95.75 3.106 0 .172-.008.362-.026.569-.017.19-.051.414-.103.673h-10.378v-1.941h9.135l-.854.75c0-.828-.146-1.527-.44-2.096a3.13 3.13 0 0 0-1.242-1.346c-.535-.328-1.182-.491-1.941-.491-.794 0-1.492.172-2.096.517a3.536 3.536 0 0 0-1.398 1.449c-.328.622-.491 1.355-.491 2.2 0 .863.172 1.622.517 2.278a3.744 3.744 0 0 0 1.475 1.501c.639.345 1.372.518 2.2.518.69 0 1.32-.121 1.889-.363a3.915 3.915 0 0 0 1.502-1.087l1.501 1.527a5.716 5.716 0 0 1-2.174 1.579 6.836 6.836 0 0 1-2.718.543Zm-14.383-.258v-12.294h2.329v12.294h-2.329Zm2.329-7.014-.88-.388c0-1.57.363-2.821 1.087-3.753.725-.932 1.769-1.398 3.132-1.398.621 0 1.182.113 1.682.337.501.207.966.561 1.398 1.061l-1.527 1.579a2.34 2.34 0 0 0-.854-.596 3.008 3.008 0 0 0-1.087-.181c-.863 0-1.57.276-2.122.828-.553.553-.829 1.389-.829 2.511Zm-14.685.026v-2.123h4.891c.673 0 1.268-.138 1.786-.414a2.998 2.998 0 0 0 1.242-1.164c.311-.501.466-1.096.466-1.786s-.155-1.285-.466-1.786a2.998 2.998 0 0 0-1.242-1.164c-.518-.276-1.113-.415-1.786-.415h-4.891v-2.122h5.046c1.105 0 2.088.225 2.951.673a5.043 5.043 0 0 1 2.07 1.915c.518.811.777 1.777.777 2.899 0 1.104-.259 2.07-.777 2.899a5.28 5.28 0 0 1-2.07 1.915c-.863.448-1.846.673-2.951.673h-5.046Zm-1.631 6.987v-17.961h2.433v17.961h-2.433Zm-52.654 4.314 16.056-26.798h5.315l-16.057 26.798h-5.314Zm16.778.38a5.502 5.502 0 0 1-2.847-.76 5.885 5.885 0 0 1-2.012-2.011 5.516 5.516 0 0 1-.759-2.847c0-1.063.253-1.999.759-2.809a5.888 5.888 0 0 1 2.012-2.012c.835-.506 1.771-.759 2.809-.759 1.088 0 2.049.253 2.885.759a5.784 5.784 0 0 1 2.049 2.012c.506.81.759 1.746.759 2.809a5.516 5.516 0 0 1-.759 2.847 5.685 5.685 0 0 1-2.049 2.049c-.836.481-1.784.722-2.847.722Zm0-3.948c.48 0 .873-.152 1.176-.456.304-.303.456-.708.456-1.214 0-.456-.152-.835-.456-1.139-.303-.329-.696-.493-1.176-.493-.456 0-.835.164-1.139.493-.304.304-.456.683-.456 1.139 0 .506.152.911.456 1.214.304.304.683.456 1.139.456Zm-12.223-12.45a5.738 5.738 0 0 1-2.847-.722 5.893 5.893 0 0 1-2.012-2.011c-.506-.861-.759-1.822-.759-2.885 0-1.038.253-1.974.759-2.809a5.58 5.58 0 0 1 2.012-1.974c.835-.506 1.772-.759 2.809-.759 1.088 0 2.05.253 2.885.759a5.487 5.487 0 0 1 2.05 1.974c.506.835.759 1.771.759 2.809 0 1.063-.253 2.024-.759 2.885a5.784 5.784 0 0 1-2.05 2.011c-.835.481-1.784.722-2.847.722Zm0-3.948c.481 0 .873-.152 1.177-.455.304-.304.455-.696.455-1.177 0-.481-.151-.873-.455-1.177-.304-.304-.696-.455-1.177-.455-.455 0-.835.151-1.139.455-.303.304-.455.696-.455 1.177 0 .481.152.873.455 1.177a1.55 1.55 0 0 0 1.139.455Zm-17.575 20.383c-2.151 0-4.1-.582-5.846-1.746-1.746-1.164-3.125-2.783-4.137-4.858-.987-2.101-1.481-4.517-1.481-7.25 0-2.759.494-5.163 1.481-7.212.987-2.075 2.341-3.682 4.061-4.821 1.721-1.164 3.67-1.746 5.846-1.746 2.201 0 4.163.582 5.883 1.746 1.721 1.139 3.075 2.746 4.062 4.821 1.012 2.075 1.518 4.491 1.518 7.25 0 2.758-.506 5.175-1.518 7.25-.987 2.075-2.341 3.694-4.062 4.858-1.695 1.139-3.631 1.708-5.807 1.708Zm-.038-5.276c1.113 0 2.075-.316 2.885-.949.809-.658 1.429-1.619 1.86-2.885.455-1.29.683-2.859.683-4.706 0-1.873-.228-3.442-.683-4.707-.431-1.265-1.051-2.214-1.86-2.847-.81-.658-1.784-.987-2.923-.987-1.088 0-2.05.316-2.885.949-.81.633-1.43 1.582-1.86 2.847-.43 1.265-.645 2.834-.645 4.707 0 1.872.215 3.441.645 4.707.43 1.265 1.05 2.226 1.86 2.884.835.658 1.809.987 2.923.987Zm-31.257 1.519 10.287-10.629c.632-.632 1.138-1.214 1.518-1.746.38-.531.658-1.025.835-1.48.177-.481.266-.962.266-1.443 0-1.037-.342-1.847-1.025-2.429-.658-.607-1.531-.911-2.619-.911a5.033 5.033 0 0 0-2.885.873c-.835.557-1.645 1.481-2.429 2.771l-3.986-3.454c1.063-1.797 2.417-3.151 4.062-4.062 1.644-.911 3.53-1.366 5.655-1.366 1.848 0 3.442.342 4.783 1.025 1.367.683 2.417 1.657 3.151 2.923.759 1.265 1.138 2.745 1.138 4.441 0 1.062-.139 2.049-.417 2.96-.279.886-.734 1.772-1.367 2.657-.607.861-1.429 1.81-2.467 2.847l-7.136 7.099-7.364-.076Zm0 3.34v-3.34l5.048-1.746h14.235v5.086H779.38ZM977.342 45.118c-1.225 0-2.33-.276-3.313-.828a6.346 6.346 0 0 1-2.329-2.303c-.57-.966-.854-2.062-.854-3.287 0-1.208.276-2.295.828-3.26a6.262 6.262 0 0 1 2.277-2.278c.967-.57 2.045-.854 3.235-.854 1.139 0 2.14.258 3.003.776a5.328 5.328 0 0 1 2.044 2.148c.501.915.751 1.95.751 3.106 0 .172-.009.362-.026.57a6.415 6.415 0 0 1-.104.672h-10.378v-1.94h9.136l-.854.75c0-.828-.147-1.526-.44-2.096a3.13 3.13 0 0 0-1.242-1.346c-.535-.327-1.182-.491-1.941-.491-.794 0-1.493.172-2.097.517a3.534 3.534 0 0 0-1.397 1.45c-.328.62-.492 1.354-.492 2.2 0 .862.173 1.621.518 2.277a3.738 3.738 0 0 0 1.475 1.501c.638.345 1.372.518 2.2.518.69 0 1.32-.121 1.889-.363a3.907 3.907 0 0 0 1.501-1.087l1.501 1.527a5.7 5.7 0 0 1-2.174 1.579 6.822 6.822 0 0 1-2.717.543Zm-10.137-.258V26.38h2.329v18.48h-2.329Zm-8.542.258c-1.121 0-2.139-.276-3.053-.828a6.188 6.188 0 0 1-2.174-2.303c-.518-.966-.777-2.053-.777-3.261 0-1.208.259-2.295.777-3.26a6.258 6.258 0 0 1 2.148-2.304c.914-.57 1.941-.854 3.079-.854.932 0 1.76.198 2.485.595a4.58 4.58 0 0 1 1.786 1.605c.448.672.699 1.457.75 2.355v3.7c-.051.88-.302 1.665-.75 2.356a4.585 4.585 0 0 1-1.76 1.63c-.725.38-1.562.57-2.511.57Zm.389-2.2c1.156 0 2.087-.387 2.795-1.164.707-.794 1.061-1.803 1.061-3.028 0-.845-.164-1.579-.492-2.2a3.379 3.379 0 0 0-1.346-1.475c-.586-.362-1.268-.544-2.044-.544-.777 0-1.467.182-2.071.544a3.913 3.913 0 0 0-1.397 1.501c-.328.621-.492 1.337-.492 2.148 0 .828.164 1.562.492 2.2a3.895 3.895 0 0 0 1.423 1.475c.604.362 1.294.544 2.071.544Zm3.701 1.942v-3.313l.44-3.002-.44-2.976v-3.003h2.355V44.86h-2.355Zm-16.793.258c-1.415 0-2.623-.258-3.623-.776-1.001-.518-1.89-1.268-2.666-2.252l1.656-1.656c.57.794 1.225 1.398 1.967 1.812.742.396 1.657.595 2.744.595 1.069 0 1.923-.233 2.562-.699.655-.466.983-1.104.983-1.915 0-.673-.155-1.216-.466-1.63-.31-.415-.733-.751-1.268-1.01a11.03 11.03 0 0 0-1.708-.725 81.475 81.475 0 0 1-1.863-.698 8.994 8.994 0 0 1-1.708-.932 4.4 4.4 0 0 1-1.269-1.475c-.31-.604-.465-1.363-.465-2.278 0-1.018.241-1.88.724-2.588a4.771 4.771 0 0 1 2.019-1.656c.863-.397 1.829-.595 2.898-.595 1.174 0 2.226.233 3.158.698.932.449 1.691 1.044 2.277 1.786l-1.656 1.657c-.535-.622-1.113-1.087-1.734-1.398-.604-.31-1.303-.466-2.096-.466-.966 0-1.734.216-2.304.647-.569.414-.854 1-.854 1.76 0 .604.156 1.096.466 1.475.328.363.751.673 1.268.932.518.259 1.087.5 1.708.725.639.207 1.269.44 1.89.698.621.26 1.19.587 1.708.984a4.27 4.27 0 0 1 1.242 1.553c.328.62.492 1.406.492 2.355 0 1.587-.552 2.83-1.657 3.727-1.087.897-2.562 1.345-4.425 1.345Zm-15.251 0c-1.207 0-2.303-.284-3.286-.854a6.408 6.408 0 0 1-2.304-2.303c-.552-.983-.828-2.07-.828-3.26 0-1.209.276-2.296.828-3.262a6.207 6.207 0 0 1 2.304-2.277c.983-.57 2.079-.854 3.286-.854.949 0 1.829.18 2.64.543.811.345 1.51.854 2.097 1.527l-1.553 1.553a3.56 3.56 0 0 0-1.398-1.01 4.29 4.29 0 0 0-1.786-.362c-.776 0-1.466.181-2.07.544a3.707 3.707 0 0 0-1.423 1.449c-.346.621-.518 1.337-.518 2.148 0 .811.172 1.527.518 2.148a3.894 3.894 0 0 0 1.423 1.475c.604.363 1.294.544 2.07.544a4.58 4.58 0 0 0 1.786-.336 4.044 4.044 0 0 0 1.424-1.036l1.527 1.553a5.839 5.839 0 0 1-2.097 1.527 6.398 6.398 0 0 1-2.64.543Zm-10.084-.258V32.567h2.33V44.86h-2.33Zm1.165-14.752c-.431 0-.785-.138-1.061-.414a1.526 1.526 0 0 1-.414-1.087c0-.414.138-.76.414-1.035.276-.293.63-.44 1.061-.44.431 0 .785.146 1.061.44.276.276.414.62.414 1.035 0 .431-.138.794-.414 1.087-.276.276-.63.414-1.061.414Zm-5.634 14.752V26.38h2.33v18.48h-2.33Zm-7.299.258c-.932 0-1.777-.19-2.536-.569a4.784 4.784 0 0 1-1.786-1.63c-.449-.69-.699-1.476-.75-2.356v-3.7c.051-.898.301-1.683.75-2.356a4.777 4.777 0 0 1 1.812-1.604 5.334 5.334 0 0 1 2.51-.596c1.122 0 2.131.285 3.028.855a5.99 5.99 0 0 1 2.148 2.303c.518.966.777 2.053.777 3.26 0 1.209-.259 2.296-.777 3.262a5.99 5.99 0 0 1-2.148 2.303c-.897.552-1.906.828-3.028.828Zm-6.47-.258V26.38h2.329v9.189l-.44 2.976.44 3.002v3.313h-2.329Zm6.082-1.941c.776 0 1.458-.182 2.044-.544a3.96 3.96 0 0 0 1.398-1.475c.345-.639.518-1.372.518-2.2 0-.81-.173-1.536-.518-2.174a3.717 3.717 0 0 0-1.398-1.475c-.586-.363-1.259-.544-2.018-.544-.777 0-1.458.181-2.045.544a3.544 3.544 0 0 0-1.371 1.475c-.328.638-.492 1.372-.492 2.2 0 .81.155 1.535.466 2.174a3.764 3.764 0 0 0 1.371 1.475c.604.362 1.286.544 2.045.544Zm-13.189 2.199c-1.001 0-1.907-.224-2.718-.672a4.968 4.968 0 0 1-1.863-1.916c-.449-.81-.673-1.75-.673-2.82v-7.144h2.329v7.04c0 .673.112 1.26.337 1.76a2.58 2.58 0 0 0 1.035 1.113c.448.258.975.388 1.579.388.914 0 1.63-.285 2.148-.854.517-.587.776-1.39.776-2.407v-7.04h2.329v7.143c0 1.07-.224 2.01-.673 2.821a4.961 4.961 0 0 1-1.863 1.916c-.776.448-1.691.672-2.743.672Zm-17.3-7.246V35.75h4.891c.673 0 1.268-.138 1.786-.414a2.997 2.997 0 0 0 1.242-1.165c.311-.5.466-1.096.466-1.786s-.155-1.285-.466-1.786a2.997 2.997 0 0 0-1.242-1.164c-.518-.276-1.113-.414-1.786-.414h-4.891v-2.123h5.047c1.104 0 2.087.225 2.95.673a5.04 5.04 0 0 1 2.07 1.915c.518.811.777 1.778.777 2.9 0 1.103-.259 2.07-.777 2.898a5.28 5.28 0 0 1-2.07 1.915c-.863.449-1.846.673-2.95.673h-5.047Zm-1.631 6.988V26.898h2.433V44.86h-2.433Zm-52.876 4.313 16.056-26.798h5.314l-16.056 26.798h-5.314Zm16.777.38a5.515 5.515 0 0 1-2.847-.76 5.884 5.884 0 0 1-2.011-2.011 5.513 5.513 0 0 1-.76-2.847c0-1.063.254-2 .76-2.809a5.884 5.884 0 0 1 2.011-2.012c.835-.506 1.772-.759 2.809-.759 1.088 0 2.05.253 2.885.76a5.778 5.778 0 0 1 2.05 2.011c.506.81.759 1.746.759 2.809a5.513 5.513 0 0 1-.759 2.847 5.68 5.68 0 0 1-2.05 2.05c-.835.48-1.784.72-2.847.72Zm0-3.948c.481 0 .873-.152 1.177-.455.304-.304.455-.709.455-1.215 0-.456-.151-.835-.455-1.139-.304-.329-.696-.493-1.177-.493-.455 0-.835.164-1.138.493-.304.304-.456.684-.456 1.139 0 .506.152.911.456 1.215.303.303.683.455 1.138.455Zm-12.222-12.45c-1.038 0-1.987-.24-2.847-.721a5.887 5.887 0 0 1-2.012-2.012c-.506-.86-.759-1.822-.759-2.885 0-1.037.253-1.974.759-2.809a5.57 5.57 0 0 1 2.012-1.974c.835-.506 1.771-.759 2.809-.759 1.088 0 2.05.253 2.885.76a5.482 5.482 0 0 1 2.049 1.973c.506.835.76 1.771.76 2.809 0 1.063-.254 2.024-.76 2.885a5.784 5.784 0 0 1-2.049 2.012c-.835.48-1.784.72-2.847.72Zm0-3.948c.481 0 .873-.152 1.176-.455.304-.304.456-.696.456-1.177 0-.48-.152-.873-.456-1.177-.303-.303-.695-.455-1.176-.455-.456 0-.835.152-1.139.455-.304.304-.456.696-.456 1.177 0 .48.152.873.456 1.177.304.303.683.455 1.139.455ZM810.452 49.59c-2.151 0-4.099-.581-5.845-1.746-1.746-1.163-3.126-2.783-4.138-4.858-.987-2.1-1.48-4.517-1.48-7.25 0-2.758.493-5.162 1.48-7.212.987-2.075 2.341-3.682 4.062-4.82 1.72-1.165 3.669-1.747 5.845-1.747 2.202 0 4.163.582 5.884 1.746 1.721 1.139 3.074 2.746 4.061 4.82 1.013 2.076 1.519 4.493 1.519 7.25 0 2.76-.506 5.176-1.519 7.25-.987 2.076-2.34 3.695-4.061 4.86-1.696 1.138-3.632 1.708-5.808 1.708Zm-.038-5.276c1.114 0 2.075-.316 2.885-.949.81-.657 1.43-1.62 1.86-2.884.455-1.29.683-2.86.683-4.707 0-1.873-.228-3.442-.683-4.707-.43-1.265-1.05-2.214-1.86-2.847-.81-.658-1.784-.987-2.923-.987-1.088 0-2.05.316-2.885.95-.809.632-1.429 1.58-1.86 2.846-.43 1.265-.645 2.834-.645 4.707 0 1.873.215 3.441.645 4.707.431 1.265 1.051 2.227 1.86 2.885.835.657 1.81.986 2.923.986Zm-22.342 5.276c-1.847 0-3.542-.316-5.086-.949-1.544-.658-2.847-1.594-3.91-2.809l3.834-3.834c.481.709 1.177 1.291 2.088 1.747a7.01 7.01 0 0 0 2.96.645c.937 0 1.746-.165 2.43-.494a3.752 3.752 0 0 0 1.594-1.404c.405-.607.607-1.329.607-2.164 0-.835-.202-1.543-.607-2.125-.38-.608-.949-1.076-1.708-1.405-.734-.329-1.62-.493-2.657-.493-.481 0-.987.038-1.519.114a5.49 5.49 0 0 0-1.29.265l2.619-3.302a25.752 25.752 0 0 1 2.012-.494 8.144 8.144 0 0 1 1.822-.227c1.366 0 2.594.329 3.682.987 1.088.632 1.948 1.543 2.581 2.733.658 1.164.987 2.556.987 4.175 0 1.771-.443 3.34-1.329 4.707-.86 1.366-2.075 2.43-3.644 3.188-1.543.76-3.365 1.14-5.466 1.14Zm-3.264-12.906v-3.302l6.529-7.668 6.68-.038-6.794 7.744-6.415 3.264Zm-4.062-9.261v-5.049h17.271v3.302l-4.669 1.747h-12.602Zm36.142 224.482 16.056-26.799h5.314l-16.056 26.799h-5.314Zm16.778.379a5.511 5.511 0 0 1-2.847-.759 5.888 5.888 0 0 1-2.012-2.012 5.511 5.511 0 0 1-.759-2.847c0-1.062.253-1.999.759-2.809a5.885 5.885 0 0 1 2.012-2.011c.835-.506 1.771-.759 2.809-.759 1.088 0 2.049.253 2.884.759a5.776 5.776 0 0 1 2.05 2.011c.506.81.759 1.747.759 2.809a5.511 5.511 0 0 1-.759 2.847 5.675 5.675 0 0 1-2.05 2.05c-.835.481-1.784.721-2.846.721Zm0-3.947c.48 0 .873-.152 1.176-.456.304-.304.456-.708.456-1.215 0-.455-.152-.835-.456-1.138-.303-.329-.696-.494-1.176-.494-.456 0-.836.165-1.139.494-.304.303-.456.683-.456 1.138 0 .507.152.911.456 1.215.303.304.683.456 1.139.456Zm-12.223-12.451c-1.038 0-1.986-.24-2.847-.721a5.888 5.888 0 0 1-2.012-2.012c-.506-.86-.759-1.822-.759-2.885 0-1.037.253-1.973.759-2.808a5.564 5.564 0 0 1 2.012-1.974c.835-.506 1.772-.759 2.809-.759 1.088 0 2.05.253 2.885.759a5.48 5.48 0 0 1 2.05 1.974c.506.835.759 1.771.759 2.808 0 1.063-.253 2.025-.759 2.885a5.787 5.787 0 0 1-2.05 2.012c-.835.481-1.784.721-2.847.721Zm0-3.947c.481 0 .873-.152 1.177-.456.303-.304.455-.696.455-1.177 0-.48-.152-.873-.455-1.176-.304-.304-.696-.456-1.177-.456-.455 0-.835.152-1.139.456-.303.303-.455.696-.455 1.176 0 .481.152.873.455 1.177.304.304.684.456 1.139.456Zm-16.572 20.383c-1.847 0-3.58-.317-5.2-.949-1.594-.658-2.923-1.595-3.985-2.809l3.871-3.834c.481.708 1.177 1.29 2.088 1.746.936.43 1.949.645 3.037.645.961 0 1.796-.164 2.505-.493a4.136 4.136 0 0 0 1.67-1.481c.405-.658.607-1.417.607-2.277 0-.886-.202-1.645-.607-2.278-.405-.632-.974-1.113-1.708-1.442-.709-.354-1.518-.531-2.429-.531-.911 0-1.746.126-2.506.379a6.512 6.512 0 0 0-2.087 1.063l.493-3.796a11.212 11.212 0 0 1 1.67-1.101 6.65 6.65 0 0 1 1.746-.683c.633-.152 1.38-.228 2.24-.228 1.974 0 3.631.405 4.972 1.215 1.367.81 2.392 1.885 3.075 3.227.709 1.341 1.063 2.821 1.063 4.441 0 1.771-.443 3.353-1.329 4.744-.86 1.392-2.075 2.48-3.644 3.265-1.569.784-3.416 1.177-5.542 1.177Zm-4.744-12.261-2.582-2.391 1.291-12.565h5.39l-1.404 12.451-2.695 2.505Zm-.494-9.907-.797-5.049h15.069v5.049h-14.272Zm-10.929 21.75v-26.799h5.921v26.799h-5.921Zm-5.162-21.75v-5.049h10.704v5.049h-10.704Zm176.971 135.022a7.3 7.3 0 0 1-1.967-.259 7.062 7.062 0 0 1-1.682-.776 6.075 6.075 0 0 1-1.346-1.216l1.501-1.502c.449.553.966.967 1.553 1.243.587.259 1.242.388 1.967.388.725 0 1.285-.121 1.682-.362.397-.259.595-.613.595-1.062 0-.448-.164-.793-.491-1.035-.311-.259-.716-.466-1.217-.621-.5-.172-1.035-.336-1.604-.492a9.703 9.703 0 0 1-1.579-.647 3.51 3.51 0 0 1-1.242-1.061c-.311-.448-.466-1.044-.466-1.785 0-.742.181-1.381.543-1.916a3.505 3.505 0 0 1 1.501-1.268c.656-.293 1.441-.44 2.356-.44.966 0 1.82.173 2.562.518.759.328 1.38.828 1.863 1.501l-1.501 1.501a3.434 3.434 0 0 0-1.294-1.035c-.5-.242-1.07-.363-1.708-.363-.673 0-1.191.121-1.553.363a1.076 1.076 0 0 0-.518.957c0 .414.156.734.466.958.311.224.716.414 1.217.569.517.156 1.052.32 1.604.492a7.396 7.396 0 0 1 1.579.647c.5.276.906.647 1.216 1.113.328.466.492 1.078.492 1.837 0 1.156-.414 2.071-1.242 2.744-.811.673-1.907 1.009-3.287 1.009Zm-12.475 0c-1.139 0-2.157-.276-3.054-.828a6.26 6.26 0 0 1-2.148-2.304c-.518-.966-.777-2.053-.777-3.26 0-1.208.259-2.295.777-3.261a6.26 6.26 0 0 1 2.148-2.304c.897-.569 1.915-.854 3.054-.854.914 0 1.742.199 2.484.595.742.38 1.337.915 1.786 1.605.466.673.724 1.458.776 2.355v3.701c-.052.88-.302 1.665-.75 2.355a4.788 4.788 0 0 1-1.786 1.631c-.742.379-1.579.569-2.51.569Zm.388-2.2c.776 0 1.449-.181 2.018-.543a3.767 3.767 0 0 0 1.372-1.476c.328-.638.492-1.363.492-2.173 0-.846-.173-1.579-.518-2.2a3.778 3.778 0 0 0-1.371-1.476c-.57-.362-1.243-.543-2.019-.543-.777 0-1.458.181-2.045.543a3.916 3.916 0 0 0-1.397 1.502c-.328.621-.492 1.337-.492 2.148 0 .828.164 1.561.492 2.199a3.965 3.965 0 0 0 1.397 1.476c.604.362 1.294.543 2.071.543Zm6.082 1.941h-2.355v-3.312l.439-3.003-.439-2.976v-9.188h2.355v18.479Zm-20.362 0v-12.293h2.329v12.293h-2.329Zm2.329-7.013-.879-.389c0-1.57.362-2.821 1.087-3.752.724-.932 1.768-1.398 3.131-1.398.621 0 1.182.112 1.682.337.501.207.967.56 1.398 1.061l-1.527 1.579a2.328 2.328 0 0 0-.854-.596 2.987 2.987 0 0 0-1.087-.181c-.863 0-1.57.276-2.122.828-.552.552-.829 1.389-.829 2.511Zm-10.87 7.272c-1.122 0-2.14-.276-3.054-.828a6.202 6.202 0 0 1-2.174-2.303c-.518-.967-.776-2.054-.776-3.261 0-1.208.258-2.295.776-3.261a6.276 6.276 0 0 1 2.148-2.304c.915-.569 1.941-.854 3.08-.854.932 0 1.76.199 2.484.595a4.58 4.58 0 0 1 1.786 1.605c.449.673.699 1.458.751 2.355v3.701c-.052.88-.302 1.665-.751 2.355a4.582 4.582 0 0 1-1.76 1.631c-.724.379-1.561.569-2.51.569Zm.388-2.2c1.156 0 2.088-.388 2.795-1.164.708-.794 1.061-1.803 1.061-3.028 0-.846-.164-1.579-.491-2.2a3.387 3.387 0 0 0-1.346-1.475c-.587-.363-1.268-.544-2.045-.544-.776 0-1.466.181-2.07.544a3.901 3.901 0 0 0-1.398 1.501c-.328.621-.492 1.337-.492 2.148 0 .828.164 1.561.492 2.2.345.621.82 1.112 1.424 1.475.604.362 1.294.543 2.07.543Zm3.701 1.941v-3.312l.44-3.003-.44-2.976v-3.002h2.355v12.293h-2.355Zm-23.56 0-4.865-12.293h2.433l3.519 9.576h-.776l3.494-9.576h1.346l3.493 9.576h-.776l3.52-9.576h2.433l-4.84 12.293h-1.372l-3.545-9.291h.854l-3.572 9.291h-1.346Zm-10.255.259c-1.225 0-2.33-.276-3.313-.828a6.337 6.337 0 0 1-2.329-2.303c-.57-.967-.854-2.062-.854-3.287 0-1.208.276-2.295.828-3.261a6.264 6.264 0 0 1 2.277-2.278c.966-.569 2.045-.854 3.235-.854 1.139 0 2.14.259 3.002.777a5.323 5.323 0 0 1 2.045 2.148c.5.914.751 1.949.751 3.105 0 .173-.009.363-.026.57-.018.19-.052.414-.104.673h-10.378v-1.941h9.136l-.854.75c0-.828-.147-1.527-.44-2.096a3.137 3.137 0 0 0-1.242-1.346c-.535-.328-1.182-.492-1.941-.492-.794 0-1.493.173-2.097.518a3.527 3.527 0 0 0-1.397 1.449c-.328.621-.492 1.355-.492 2.2 0 .863.172 1.622.518 2.278a3.744 3.744 0 0 0 1.475 1.501c.638.345 1.371.517 2.2.517.69 0 1.32-.12 1.889-.362a3.915 3.915 0 0 0 1.501-1.087l1.501 1.527a5.718 5.718 0 0 1-2.174 1.579 6.827 6.827 0 0 1-2.717.543Zm-17.899-8.075v-2.044h4.865c1.053 0 1.864-.268 2.433-.803.57-.534.854-1.259.854-2.174 0-.862-.284-1.578-.854-2.148-.552-.569-1.354-.854-2.407-.854h-4.891v-2.122h4.969c1.139 0 2.131.224 2.976.673.846.431 1.493 1.027 1.941 1.786.466.759.699 1.63.699 2.614 0 1.018-.233 1.906-.699 2.665-.448.76-1.095 1.355-1.941 1.786-.845.414-1.837.621-2.976.621h-4.969Zm-1.631 7.816v-17.961h2.433v17.961h-2.433Zm10.353 0-6.522-8.049 2.303-.802 7.298 8.851h-3.079Zm247.518-30.022 7.19-20.005h2.18l-7.17 20.005h-2.2Zm-4.5-.776c-.69 0-1.34-.086-1.96-.258a7.106 7.106 0 0 1-1.69-.777 6.2 6.2 0 0 1-1.34-1.216l1.5-1.501c.45.552.96.966 1.55 1.242.59.259 1.24.388 1.97.388.72 0 1.28-.12 1.68-.362.4-.259.6-.613.6-1.061 0-.449-.17-.794-.5-1.035-.31-.259-.71-.466-1.21-.622-.5-.172-1.04-.336-1.61-.491a9.88 9.88 0 0 1-1.58-.647c-.5-.259-.91-.613-1.24-1.061-.31-.449-.46-1.044-.46-1.786s.18-1.38.54-1.915c.36-.552.86-.975 1.5-1.268.66-.294 1.44-.44 2.36-.44.96 0 1.82.172 2.56.517.76.328 1.38.828 1.86 1.501l-1.5 1.501a3.464 3.464 0 0 0-1.29-1.035c-.5-.241-1.07-.362-1.71-.362-.67 0-1.19.121-1.55.362a1.07 1.07 0 0 0-.52.958c0 .414.15.733.46.957.31.225.72.414 1.22.57.52.155 1.05.319 1.6.491.56.156 1.08.371 1.58.647s.91.647 1.22 1.113c.33.466.49 1.079.49 1.838 0 1.156-.41 2.07-1.24 2.743-.81.673-1.91 1.009-3.29 1.009Zm-11.2 0c-.94 0-1.78-.189-2.54-.569a4.82 4.82 0 0 1-1.79-1.63c-.45-.691-.7-1.476-.75-2.355v-3.701c.05-.898.3-1.683.75-2.356a4.811 4.811 0 0 1 1.81-1.604c.76-.397 1.6-.595 2.52-.595 1.12 0 2.13.284 3.02.854a5.98 5.98 0 0 1 2.15 2.303c.52.966.78 2.053.78 3.261 0 1.208-.26 2.295-.78 3.261a5.98 5.98 0 0 1-2.15 2.303c-.89.552-1.9.828-3.02.828Zm-6.47 4.892v-17.444h2.32v3.235l-.44 2.977.44 3.002v8.23h-2.32Zm6.08-7.091c.77 0 1.46-.182 2.04-.544a3.978 3.978 0 0 0 1.4-1.475c.34-.638.52-1.372.52-2.2 0-.811-.18-1.535-.52-2.174-.35-.638-.81-1.13-1.4-1.475-.58-.362-1.26-.544-2.02-.544-.77 0-1.45.182-2.04.544-.59.345-1.05.837-1.37 1.475-.33.639-.49 1.372-.49 2.2 0 .811.15 1.536.46 2.174.33.621.79 1.113 1.37 1.475.61.362 1.29.544 2.05.544Zm-10.55 1.94v-12.293h2.33v12.293h-2.33Zm1.16-14.752c-.43 0-.78-.138-1.06-.414-.28-.293-.41-.656-.41-1.087 0-.414.13-.759.41-1.035.28-.294.63-.44 1.06-.44.43 0 .79.146 1.06.44.28.276.42.621.42 1.035 0 .431-.14.794-.42 1.087-.27.276-.63.414-1.06.414Zm-5.38 14.753v-7.169c0-.932-.29-1.7-.88-2.304-.58-.604-1.34-.906-2.27-.906-.63 0-1.18.138-1.66.415a3.06 3.06 0 0 0-1.14 1.138c-.28.483-.41 1.036-.41 1.657l-.96-.544c0-.932.21-1.76.62-2.484.41-.725.99-1.294 1.73-1.708.75-.432 1.58-.648 2.51-.648.94 0 1.76.208 2.46.622a4.4 4.4 0 0 1 1.71 1.734c.41.742.62 1.596.62 2.562v7.635h-2.33Zm-8.69 0v-18.479h2.33v18.479h-2.33Zm-5.85.258c-.69 0-1.34-.086-1.96-.258a7.106 7.106 0 0 1-1.69-.777 6.2 6.2 0 0 1-1.34-1.216l1.5-1.501c.45.552.97.966 1.55 1.242.59.259 1.25.388 1.97.388s1.29-.12 1.68-.362c.4-.259.6-.613.6-1.061 0-.449-.17-.794-.49-1.035-.31-.259-.72-.466-1.22-.622-.5-.172-1.04-.336-1.61-.491a9.77 9.77 0 0 1-1.57-.647c-.5-.259-.92-.613-1.25-1.061-.31-.449-.46-1.044-.46-1.786s.18-1.38.54-1.915c.36-.552.86-.975 1.5-1.268.66-.294 1.44-.44 2.36-.44.96 0 1.82.172 2.56.517.76.328 1.38.828 1.86 1.501l-1.5 1.501a3.387 3.387 0 0 0-1.29-1.035c-.5-.241-1.07-.362-1.71-.362-.67 0-1.19.121-1.55.362a1.07 1.07 0 0 0-.52.958c0 .414.15.733.47.957.31.225.71.414 1.21.57.52.155 1.05.319 1.61.491.55.156 1.07.371 1.58.647.5.276.9.647 1.21 1.113.33.466.49 1.079.49 1.838 0 1.156-.41 2.07-1.24 2.743-.81.673-1.91 1.009-3.29 1.009Zm-12.72-.258v-12.294h2.33v12.294h-2.33Zm2.33-7.014-.88-.388c0-1.57.36-2.821 1.09-3.753.72-.932 1.77-1.397 3.13-1.397.62 0 1.18.112 1.68.336.5.207.97.561 1.4 1.061l-1.53 1.579a2.32 2.32 0 0 0-.85-.595 3.014 3.014 0 0 0-1.09-.182c-.86 0-1.57.277-2.12.829-.55.552-.83 1.389-.83 2.51Zm-9.22 7.272c-1.22 0-2.33-.276-3.31-.828a6.377 6.377 0 0 1-2.33-2.303c-.57-.966-.85-2.062-.85-3.287 0-1.208.27-2.295.83-3.261a6.168 6.168 0 0 1 2.27-2.277c.97-.57 2.05-.854 3.24-.854 1.14 0 2.14.258 3 .776a5.304 5.304 0 0 1 2.04 2.148c.5.915.76 1.95.76 3.106 0 .172-.01.362-.03.569-.02.19-.05.414-.1.673h-10.38v-1.941h9.13l-.85.751c0-.829-.15-1.527-.44-2.097a3.144 3.144 0 0 0-1.24-1.346c-.54-.327-1.18-.491-1.94-.491-.8 0-1.5.172-2.1.517-.6.345-1.07.828-1.4 1.45-.33.621-.49 1.354-.49 2.199 0 .863.17 1.622.52 2.278.34.638.83 1.139 1.47 1.501.64.345 1.37.518 2.2.518.69 0 1.32-.121 1.89-.363a3.85 3.85 0 0 0 1.5-1.087l1.5 1.527a5.664 5.664 0 0 1-2.17 1.579 6.81 6.81 0 0 1-2.72.543Zm-9.88-.258v-7.169c0-.932-.29-1.7-.88-2.304-.59-.603-1.35-.905-2.28-.905-.62 0-1.17.138-1.65.414-.49.276-.87.655-1.14 1.138-.28.484-.42 1.036-.42 1.657l-.95-.544c0-.931.2-1.76.62-2.484.41-.725.99-1.294 1.73-1.708.74-.432 1.58-.647 2.51-.647.93 0 1.75.233 2.46.698a5.09 5.09 0 0 1 1.71 1.838c.41.742.62 1.535.62 2.381v7.635h-2.33Zm-8.7 0v-12.294h2.33v12.294h-2.33Zm-6.34 0v-17.444h2.33v17.444h-2.33Zm-3.03-10.172v-2.122h8.39v2.122h-8.39Z"/>
  <path fill="#fff" d="M1033.36 333.861v-12.294h2.33v12.294h-2.33Zm2.33-7.014-.88-.388c0-1.57.36-2.821 1.08-3.753.73-.932 1.77-1.397 3.13-1.397.63 0 1.19.112 1.69.336.5.207.96.561 1.39 1.061l-1.52 1.579a2.353 2.353 0 0 0-.86-.595 2.959 2.959 0 0 0-1.08-.182c-.87 0-1.57.277-2.13.829-.55.552-.82 1.389-.82 2.51Zm-10.87 7.272c-1.13 0-2.14-.276-3.06-.828a6.184 6.184 0 0 1-2.17-2.303c-.52-.966-.78-2.053-.78-3.261 0-1.208.26-2.295.78-3.261a6.213 6.213 0 0 1 2.15-2.303c.91-.57 1.94-.854 3.08-.854.93 0 1.76.198 2.48.595.74.379 1.34.914 1.79 1.604.44.673.69 1.458.75 2.356v3.701c-.06.879-.31 1.664-.75 2.355a4.658 4.658 0 0 1-1.76 1.63c-.73.38-1.57.569-2.51.569Zm.38-2.199c1.16 0 2.09-.389 2.8-1.165.71-.794 1.06-1.803 1.06-3.028 0-.845-.16-1.579-.49-2.2a3.371 3.371 0 0 0-1.35-1.475c-.58-.362-1.27-.544-2.04-.544-.78 0-1.47.182-2.07.544-.59.362-1.06.863-1.4 1.501-.33.621-.49 1.337-.49 2.148 0 .828.16 1.562.49 2.2.34.621.82 1.113 1.42 1.475.61.362 1.3.544 2.07.544Zm3.7 1.941v-3.313l.44-3.002-.44-2.976v-3.003h2.36v12.294h-2.36Zm-20.96-6.989v-2.122h4.89c.67 0 1.27-.138 1.79-.414.53-.277.94-.665 1.24-1.165.31-.5.46-1.096.46-1.786s-.15-1.285-.46-1.786c-.3-.5-.71-.888-1.24-1.164-.52-.276-1.12-.414-1.79-.414h-4.89v-2.123h5.05c1.1 0 2.08.225 2.95.673a5.043 5.043 0 0 1 2.07 1.915c.51.811.77 1.778.77 2.899 0 1.104-.26 2.071-.77 2.899a5.28 5.28 0 0 1-2.07 1.915c-.87.449-1.85.673-2.95.673h-5.05Zm-1.63 6.988v-17.962h2.43v17.962h-2.43Zm-10.905 1.035 7.195-20.005h2.17l-7.166 20.005h-2.199Zm-6.618-.931-5.331-12.397h2.588l3.96 9.706h-.829l4.167-9.706h2.588l-5.745 12.397h-1.398Zm-3.52 5.047 3.624-7.428 1.294 2.381-2.329 5.047h-2.589Z"/>
  <path fill="#fff" d="M978.405 333.861v-17.444h2.329v17.444h-2.329Zm-3.028-10.172v-2.122h8.386v2.122h-8.386Zm-3.329 10.171v-12.293h2.329v12.293h-2.329Zm1.164-14.752c-.431 0-.785-.138-1.061-.414a1.526 1.526 0 0 1-.414-1.087c0-.414.138-.759.414-1.035.276-.294.63-.44 1.061-.44.432 0 .786.146 1.062.44.276.276.414.621.414 1.035 0 .431-.138.794-.414 1.087-.276.276-.63.414-1.062.414Zm-5.379 14.753v-7.169c0-.932-.293-1.7-.88-2.304-.586-.603-1.346-.905-2.277-.905-.621 0-1.174.138-1.657.414a3.004 3.004 0 0 0-1.138 1.138c-.277.484-.415 1.036-.415 1.657l-.957-.544c0-.931.207-1.76.621-2.484a4.456 4.456 0 0 1 1.734-1.708c.742-.432 1.579-.647 2.51-.647.932 0 1.752.233 2.459.698a4.992 4.992 0 0 1 1.708 1.838c.414.742.621 1.535.621 2.381v7.635h-2.329Zm-8.696 0v-12.294h2.329v12.294h-2.329Zm-7.107.258c-1.001 0-1.907-.224-2.718-.672a4.978 4.978 0 0 1-1.863-1.916c-.449-.811-.673-1.751-.673-2.821v-7.143h2.329v7.04c0 .673.113 1.259.337 1.76.241.483.586.854 1.035 1.113.449.258.975.388 1.579.388.914 0 1.63-.285 2.148-.854.517-.587.776-1.389.776-2.407v-7.04h2.33v7.143c0 1.07-.225 2.01-.673 2.821a4.974 4.974 0 0 1-1.864 1.916c-.776.448-1.691.672-2.743.672Zm-25.79-.258v-12.294h2.33v12.294h-2.33Zm8.308 0v-7.428c0-.914-.285-1.631-.854-2.148-.552-.535-1.251-.802-2.096-.802-.57 0-1.079.12-1.527.362a2.902 2.902 0 0 0-1.087 1.009c-.276.432-.414.949-.414 1.553l-.958-.466c0-.931.199-1.742.595-2.433a4.29 4.29 0 0 1 1.683-1.604c.707-.397 1.501-.595 2.381-.595.862 0 1.639.189 2.329.569a4.12 4.12 0 0 1 1.656 1.605c.414.69.621 1.509.621 2.458v7.92h-2.329Zm8.308 0v-7.428c0-.914-.285-1.631-.854-2.148-.552-.535-1.243-.802-2.071-.802-.569 0-1.087.12-1.553.362-.448.241-.81.578-1.087 1.009-.276.432-.414.949-.414 1.553l-1.32-.466c.052-.949.302-1.76.751-2.433a4.825 4.825 0 0 1 1.786-1.604 4.871 4.871 0 0 1 2.381-.595c.897 0 1.699.189 2.407.569.707.38 1.268.914 1.682 1.605.431.69.647 1.518.647 2.484v7.894h-2.355Zm-37.461 0v-12.294h2.329v12.294h-2.329Zm8.307 0v-7.428c0-.914-.284-1.631-.854-2.148-.552-.535-1.251-.802-2.096-.802-.57 0-1.079.12-1.527.362a2.902 2.902 0 0 0-1.087 1.009c-.276.432-.414.949-.414 1.553l-.958-.466c0-.931.199-1.742.595-2.433a4.297 4.297 0 0 1 1.683-1.604c.707-.397 1.501-.595 2.381-.595.862 0 1.639.189 2.329.569a4.12 4.12 0 0 1 1.656 1.605c.414.69.621 1.509.621 2.458v7.92h-2.329Zm8.308 0v-7.428c0-.914-.285-1.631-.854-2.148-.552-.535-1.242-.802-2.071-.802-.569 0-1.087.12-1.552.362a2.902 2.902 0 0 0-1.087 1.009c-.277.432-.415.949-.415 1.553l-1.319-.466c.051-.949.301-1.76.75-2.433a4.825 4.825 0 0 1 1.786-1.604 4.874 4.874 0 0 1 2.381-.595c.897 0 1.699.189 2.407.569.707.38 1.268.914 1.682 1.605.431.69.647 1.518.647 2.484v7.894h-2.355Zm-24.364.258c-1.208 0-2.295-.284-3.261-.854a6.403 6.403 0 0 1-2.303-2.303c-.57-.983-.854-2.079-.854-3.287 0-1.19.284-2.26.854-3.209a6.403 6.403 0 0 1 2.303-2.303c.966-.57 2.053-.854 3.261-.854 1.19 0 2.269.284 3.235.854a6.15 6.15 0 0 1 2.329 2.277c.57.966.854 2.045.854 3.235 0 1.208-.284 2.304-.854 3.287a6.344 6.344 0 0 1-2.329 2.303c-.966.57-2.045.854-3.235.854Zm0-2.251c.776 0 1.466-.181 2.07-.544a3.895 3.895 0 0 0 1.424-1.475c.345-.638.517-1.363.517-2.174 0-.793-.181-1.501-.543-2.122a3.709 3.709 0 0 0-1.424-1.449c-.586-.363-1.268-.544-2.044-.544s-1.467.181-2.071.544a3.713 3.713 0 0 0-1.423 1.449c-.345.621-.518 1.329-.518 2.122 0 .811.173 1.536.518 2.174a3.9 3.9 0 0 0 1.423 1.475c.604.363 1.295.544 2.071.544Zm-13.144 2.251c-1.294 0-2.493-.233-3.598-.698a9.17 9.17 0 0 1-2.898-1.993 9.107 9.107 0 0 1-1.89-2.951 9.602 9.602 0 0 1-.672-3.597c0-1.294.224-2.502.672-3.623a8.806 8.806 0 0 1 1.89-2.925 8.89 8.89 0 0 1 2.873-1.967c1.104-.483 2.303-.724 3.597-.724 1.415 0 2.657.241 3.727.724a9.576 9.576 0 0 1 2.847 1.967l-1.683 1.682a5.986 5.986 0 0 0-2.096-1.501c-.811-.362-1.743-.543-2.795-.543-.949 0-1.82.172-2.614.517a5.924 5.924 0 0 0-2.07 1.424 6.675 6.675 0 0 0-1.372 2.2c-.311.845-.466 1.768-.466 2.769 0 1.001.155 1.924.466 2.769a6.675 6.675 0 0 0 1.372 2.2 6.226 6.226 0 0 0 2.07 1.449c.794.328 1.665.492 2.614.492 1.121 0 2.096-.181 2.924-.543a6.279 6.279 0 0 0 2.097-1.527l1.682 1.656a8.873 8.873 0 0 1-2.924 2.019c-1.105.483-2.356.724-3.753.724Zm-63.573 19.583 16.056-26.798h5.314l-16.056 26.798h-5.314Zm16.777.38a5.516 5.516 0 0 1-2.847-.759 5.885 5.885 0 0 1-2.011-2.012 5.511 5.511 0 0 1-.759-2.847c0-1.063.253-1.999.759-2.809a5.882 5.882 0 0 1 2.011-2.011c.836-.507 1.772-.76 2.809-.76 1.089 0 2.05.253 2.885.76a5.776 5.776 0 0 1 2.05 2.011c.506.81.759 1.746.759 2.809a5.511 5.511 0 0 1-.759 2.847 5.675 5.675 0 0 1-2.05 2.05c-.835.481-1.784.721-2.847.721Zm0-3.948c.481 0 .873-.151 1.177-.455.304-.304.456-.709.456-1.215 0-.455-.152-.835-.456-1.138-.304-.329-.696-.494-1.177-.494-.455 0-.835.165-1.138.494-.304.303-.456.683-.456 1.138 0 .506.152.911.456 1.215.303.304.683.455 1.138.455Zm-12.222-12.45c-1.038 0-1.987-.24-2.847-.721a5.888 5.888 0 0 1-2.012-2.012c-.506-.86-.759-1.822-.759-2.885 0-1.037.253-1.974.759-2.809a5.562 5.562 0 0 1 2.012-1.973c.835-.507 1.771-.76 2.809-.76 1.088 0 2.05.253 2.885.76a5.474 5.474 0 0 1 2.049 1.973c.506.835.76 1.772.76 2.809 0 1.063-.254 2.025-.76 2.885a5.784 5.784 0 0 1-2.049 2.012c-.835.481-1.784.721-2.847.721Zm0-3.948c.481 0 .873-.151 1.176-.455.304-.304.456-.696.456-1.177 0-.481-.152-.873-.456-1.176-.303-.304-.695-.456-1.176-.456-.456 0-.835.152-1.139.456-.304.303-.455.695-.455 1.176s.151.873.455 1.177c.304.304.683.455 1.139.455Zm-17.576 20.384c-2.151 0-4.099-.582-5.845-1.746-1.746-1.164-3.126-2.784-4.138-4.859-.987-2.1-1.48-4.517-1.48-7.25 0-2.758.493-5.162 1.48-7.212.987-2.075 2.341-3.682 4.062-4.821 1.72-1.164 3.669-1.746 5.845-1.746 2.202 0 4.163.582 5.884 1.746 1.721 1.139 3.074 2.746 4.061 4.821 1.013 2.075 1.519 4.492 1.519 7.25s-.506 5.175-1.519 7.25c-.987 2.075-2.34 3.695-4.061 4.859-1.696 1.139-3.632 1.708-5.808 1.708Zm-.038-5.276c1.114 0 2.075-.317 2.885-.949.81-.658 1.43-1.62 1.86-2.885.456-1.291.683-2.86.683-4.707 0-1.872-.227-3.441-.683-4.707-.43-1.265-1.05-2.214-1.86-2.847-.81-.658-1.784-.986-2.923-.986-1.088 0-2.049.316-2.885.948-.809.633-1.429 1.582-1.859 2.847-.431 1.266-.646 2.835-.646 4.707 0 1.873.215 3.442.646 4.707.43 1.265 1.05 2.227 1.859 2.885.836.658 1.81.987 2.923.987Zm-19.166 4.858v-26.799h5.922v26.799h-5.922Zm-5.162-21.75v-5.049h10.704v5.049h-10.704Zm250.538 119.493c-1.14 0-2.16-.276-3.05-.829a6.213 6.213 0 0 1-2.15-2.303c-.52-.966-.78-2.053-.78-3.261 0-1.208.26-2.295.78-3.261a6.213 6.213 0 0 1 2.15-2.303c.89-.57 1.91-.854 3.05-.854.91 0 1.74.198 2.48.595.75.38 1.34.914 1.79 1.605.47.672.73 1.457.78 2.355v3.701c-.05.88-.3 1.665-.75 2.355a4.82 4.82 0 0 1-1.79 1.63c-.74.38-1.58.57-2.51.57Zm.39-2.2c.77 0 1.45-.181 2.02-.544a3.825 3.825 0 0 0 1.37-1.475c.33-.638.49-1.363.49-2.174 0-.845-.17-1.579-.52-2.2a3.681 3.681 0 0 0-1.37-1.475c-.57-.362-1.24-.543-2.02-.543-.77 0-1.46.181-2.04.543-.59.362-1.05.863-1.4 1.501-.33.621-.49 1.337-.49 2.148 0 .828.16 1.562.49 2.2.35.621.81 1.113 1.4 1.475.6.363 1.29.544 2.07.544Zm6.08 1.941h-2.35v-3.313l.44-3.002-.44-2.976v-9.188h2.35v18.479Zm-15.86 0v-7.169c0-.932-.29-1.7-.88-2.303-.59-.604-1.35-.906-2.28-.906-.62 0-1.17.138-1.65.414-.49.276-.87.655-1.14 1.139-.28.483-.42 1.035-.42 1.656l-.95-.544c0-.931.2-1.759.62-2.484.41-.725.99-1.294 1.73-1.708.74-.432 1.58-.647 2.51-.647.93 0 1.75.233 2.46.699a5.079 5.079 0 0 1 1.71 1.837c.41.742.62 1.536.62 2.381v7.635h-2.33Zm-8.7 0v-12.293h2.33v12.293h-2.33Zm-7.1.259c-1 0-1.91-.225-2.72-.673a4.926 4.926 0 0 1-1.86-1.915c-.45-.811-.68-1.752-.68-2.821v-7.143h2.33v7.039c0 .673.11 1.26.34 1.76.24.483.58.854 1.03 1.113.45.259.98.388 1.58.388.92 0 1.63-.285 2.15-.854.52-.587.78-1.389.78-2.407v-7.039h2.33v7.143c0 1.069-.23 2.01-.68 2.821a4.996 4.996 0 0 1-1.86 1.915c-.78.448-1.69.673-2.74.673Zm-17.898-.259v-17.961h2.433v17.961h-2.433Zm1.657-7.894v-2.226h9.371v2.226h-9.371Zm0-7.842v-2.225h9.811v2.225h-9.811Zm-27.006 15.736v-12.293h2.329v12.293h-2.329Zm8.307 0v-7.428c0-.914-.284-1.63-.854-2.148-.552-.535-1.251-.802-2.096-.802-.57 0-1.079.121-1.527.362a2.91 2.91 0 0 0-1.087 1.009c-.276.432-.414.949-.414 1.553l-.958-.466c0-.931.199-1.742.596-2.432a4.29 4.29 0 0 1 1.682-1.605c.707-.397 1.501-.595 2.381-.595.862 0 1.639.19 2.329.569a4.12 4.12 0 0 1 1.656 1.605c.414.69.621 1.509.621 2.458v7.92h-2.329Zm8.308 0v-7.428c0-.914-.285-1.63-.854-2.148-.552-.535-1.242-.802-2.071-.802-.569 0-1.087.121-1.552.362a2.91 2.91 0 0 0-1.087 1.009c-.276.432-.415.949-.415 1.553l-1.319-.466c.051-.949.302-1.759.75-2.432a4.828 4.828 0 0 1 1.786-1.605 4.874 4.874 0 0 1 2.381-.595c.897 0 1.699.19 2.407.569.707.38 1.268.915 1.682 1.605.431.69.647 1.518.647 2.484v7.894h-2.355Zm-23.503.259c-1.225 0-2.329-.276-3.313-.828a6.354 6.354 0 0 1-2.329-2.304c-.569-.966-.854-2.062-.854-3.287 0-1.207.276-2.294.828-3.261a6.272 6.272 0 0 1 2.278-2.277c.966-.57 2.044-.854 3.235-.854 1.139 0 2.139.259 3.002.776a5.333 5.333 0 0 1 2.044 2.148c.501.915.751 1.95.751 3.106 0 .173-.009.362-.026.569a6.63 6.63 0 0 1-.103.673H953.89v-1.941h9.135l-.854.751c0-.828-.146-1.527-.44-2.097a3.128 3.128 0 0 0-1.242-1.345c-.535-.328-1.182-.492-1.941-.492-.794 0-1.492.172-2.096.517a3.544 3.544 0 0 0-1.398 1.45c-.328.621-.492 1.354-.492 2.2 0 .862.173 1.622.518 2.277a3.737 3.737 0 0 0 1.475 1.501c.639.345 1.372.518 2.2.518.69 0 1.32-.121 1.889-.362a3.915 3.915 0 0 0 1.501-1.087l1.501 1.526a5.694 5.694 0 0 1-2.173 1.579 6.819 6.819 0 0 1-2.718.544Zm-11.66-.259v-17.444h2.33v17.444h-2.33Zm-3.028-10.171v-2.123h8.386v2.123h-8.386Zm-4.704 10.43c-.69 0-1.345-.087-1.967-.259a7.14 7.14 0 0 1-1.682-.777 6.072 6.072 0 0 1-1.346-1.216l1.501-1.501c.449.552.967.966 1.553 1.242.587.259 1.243.388 1.967.388.725 0 1.286-.12 1.682-.362.397-.259.596-.612.596-1.061 0-.449-.164-.794-.492-1.035-.311-.259-.716-.466-1.216-.621a25.282 25.282 0 0 0-1.605-.492 9.83 9.83 0 0 1-1.579-.647 3.53 3.53 0 0 1-1.242-1.061c-.311-.449-.466-1.044-.466-1.786s.181-1.38.544-1.915a3.487 3.487 0 0 1 1.501-1.268c.655-.294 1.44-.44 2.355-.44.966 0 1.82.172 2.562.517.759.328 1.38.829 1.863 1.501l-1.501 1.502a3.446 3.446 0 0 0-1.294-1.036c-.5-.241-1.069-.362-1.708-.362-.673 0-1.19.121-1.553.362a1.078 1.078 0 0 0-.517.958c0 .414.155.733.466.957.31.225.716.415 1.216.57.518.155 1.053.319 1.605.492a7.388 7.388 0 0 1 1.578.647c.501.276.906.647 1.217 1.112.328.466.491 1.079.491 1.838 0 1.156-.414 2.07-1.242 2.743-.811.673-1.906 1.01-3.287 1.01Zm-11.415-.156-5.332-12.396h2.588l3.96 9.705h-.828l4.167-9.705h2.588l-5.746 12.396h-1.397Zm-3.52 5.047 3.623-7.428 1.294 2.381-2.329 5.047h-2.588Zm-6.361-4.891c-.69 0-1.345-.087-1.966-.259a7.13 7.13 0 0 1-1.683-.777 6.045 6.045 0 0 1-1.345-1.216l1.501-1.501a4.42 4.42 0 0 0 1.552 1.242c.587.259 1.243.388 1.967.388.725 0 1.286-.12 1.683-.362.396-.259.595-.612.595-1.061 0-.449-.164-.794-.492-1.035-.31-.259-.716-.466-1.216-.621a25.282 25.282 0 0 0-1.605-.492 9.83 9.83 0 0 1-1.579-.647 3.53 3.53 0 0 1-1.242-1.061c-.31-.449-.466-1.044-.466-1.786s.181-1.38.544-1.915a3.487 3.487 0 0 1 1.501-1.268c.655-.294 1.441-.44 2.355-.44.966 0 1.82.172 2.562.517.759.328 1.38.829 1.864 1.501l-1.502 1.502a3.446 3.446 0 0 0-1.294-1.036c-.5-.241-1.069-.362-1.708-.362-.673 0-1.19.121-1.552.362a1.077 1.077 0 0 0-.518.958c0 .414.155.733.466.957.31.225.716.415 1.216.57.518.155 1.053.319 1.605.492a7.388 7.388 0 0 1 1.578.647c.501.276.906.647 1.217 1.112.328.466.492 1.079.492 1.838 0 1.156-.415 2.07-1.243 2.743-.811.673-1.906 1.01-3.287 1.01Zm-11.656 0c-1.208 0-2.295-.285-3.261-.854a6.424 6.424 0 0 1-2.304-2.304c-.569-.983-.854-2.079-.854-3.287 0-1.19.285-2.26.854-3.209a6.414 6.414 0 0 1 2.304-2.303c.966-.57 2.053-.854 3.261-.854 1.19 0 2.269.284 3.235.854a6.15 6.15 0 0 1 2.329 2.277c.57.967.854 2.045.854 3.235 0 1.208-.284 2.304-.854 3.287a6.354 6.354 0 0 1-2.329 2.304c-.966.569-2.045.854-3.235.854Zm0-2.252c.776 0 1.466-.181 2.07-.543a3.897 3.897 0 0 0 1.424-1.476c.345-.638.517-1.363.517-2.174 0-.793-.181-1.501-.543-2.122a3.709 3.709 0 0 0-1.424-1.449c-.586-.362-1.268-.544-2.044-.544-.777 0-1.467.182-2.071.544a3.706 3.706 0 0 0-1.423 1.449c-.345.621-.518 1.329-.518 2.122 0 .811.173 1.536.518 2.174a3.895 3.895 0 0 0 1.423 1.476c.604.362 1.294.543 2.071.543Z"/>
  <path fill="#fff" d="M895.295 451.445c-1.208 0-2.303-.285-3.287-.854a6.414 6.414 0 0 1-2.303-2.304c-.552-.983-.828-2.07-.828-3.261 0-1.207.276-2.294.828-3.261a6.203 6.203 0 0 1 2.303-2.277c.984-.57 2.079-.854 3.287-.854.949 0 1.829.181 2.64.543.811.345 1.51.854 2.096 1.527l-1.553 1.553a3.542 3.542 0 0 0-1.397-1.009 4.284 4.284 0 0 0-1.786-.363c-.776 0-1.466.182-2.07.544a3.709 3.709 0 0 0-1.424 1.449c-.345.621-.517 1.337-.517 2.148 0 .811.172 1.527.517 2.148.345.622.82 1.113 1.424 1.476.604.362 1.294.543 2.07.543a4.58 4.58 0 0 0 1.786-.336 4.042 4.042 0 0 0 1.423-1.036l1.527 1.553a5.818 5.818 0 0 1-2.096 1.527 6.387 6.387 0 0 1-2.64.544Zm-18.946-.259v-17.961h2.433v17.961h-2.433Zm1.656 0v-2.226h10.301v2.226h-10.301Zm0-8.127v-2.122h9.447v2.122h-9.447Zm0-7.609v-2.225h10.172v2.225h-10.172Zm-57.076 20.049 16.056-26.798h5.314l-16.056 26.798h-5.314Zm16.777.38a5.516 5.516 0 0 1-2.847-.759 5.896 5.896 0 0 1-2.012-2.012 5.511 5.511 0 0 1-.759-2.847c0-1.063.253-1.999.759-2.809a5.905 5.905 0 0 1 2.012-2.012c.835-.506 1.772-.759 2.809-.759 1.088 0 2.05.253 2.885.759a5.795 5.795 0 0 1 2.05 2.012c.506.81.759 1.746.759 2.809a5.511 5.511 0 0 1-.759 2.847 5.69 5.69 0 0 1-2.05 2.05c-.835.481-1.784.721-2.847.721Zm0-3.948c.481 0 .873-.152 1.177-.455.303-.304.455-.709.455-1.215a1.55 1.55 0 0 0-.455-1.139c-.304-.329-.696-.493-1.177-.493-.455 0-.835.164-1.139.493a1.55 1.55 0 0 0-.455 1.139c0 .506.152.911.455 1.215a1.55 1.55 0 0 0 1.139.455Zm-12.222-12.45c-1.038 0-1.987-.24-2.847-.721a5.888 5.888 0 0 1-2.012-2.012c-.506-.86-.759-1.822-.759-2.885 0-1.037.253-1.974.759-2.809a5.572 5.572 0 0 1 2.012-1.974c.835-.506 1.771-.759 2.809-.759 1.088 0 2.049.253 2.884.759a5.48 5.48 0 0 1 2.05 1.974c.506.835.759 1.772.759 2.809 0 1.063-.253 2.025-.759 2.885a5.779 5.779 0 0 1-2.05 2.012c-.835.481-1.784.721-2.846.721Zm0-3.948c.48 0 .873-.151 1.176-.455.304-.304.456-.696.456-1.177 0-.481-.152-.873-.456-1.177-.303-.303-.696-.455-1.176-.455-.456 0-.836.152-1.139.455-.304.304-.456.696-.456 1.177 0 .481.152.873.456 1.177.303.304.683.455 1.139.455Zm-17.576 20.384c-2.151 0-4.099-.582-5.845-1.746-1.746-1.164-3.126-2.784-4.138-4.859-.987-2.1-1.48-4.517-1.48-7.25 0-2.758.493-5.162 1.48-7.212.987-2.075 2.341-3.682 4.062-4.821 1.72-1.164 3.669-1.746 5.845-1.746 2.202 0 4.163.582 5.884 1.746 1.721 1.139 3.074 2.746 4.061 4.821 1.013 2.075 1.519 4.492 1.519 7.25s-.506 5.175-1.519 7.25c-.987 2.075-2.34 3.695-4.061 4.859-1.696 1.138-3.632 1.708-5.808 1.708Zm-.038-5.276c1.114 0 2.075-.317 2.885-.949.81-.658 1.43-1.62 1.86-2.885.456-1.291.683-2.86.683-4.707 0-1.873-.227-3.442-.683-4.707-.43-1.265-1.05-2.214-1.86-2.847-.81-.658-1.784-.987-2.923-.987-1.088 0-2.049.317-2.885.949-.809.633-1.429 1.582-1.859 2.847-.431 1.265-.646 2.834-.646 4.707 0 1.873.215 3.442.646 4.707.43 1.265 1.05 2.227 1.859 2.885.836.658 1.81.987 2.923.987Zm-19.166 4.858V428.7h5.922v26.799h-5.922Zm-5.162-21.75V428.7h10.704v5.049h-10.704Zm171.489 138.447c-1.26 0-2.381-.233-3.365-.699a5.9 5.9 0 0 1-2.329-1.967l1.501-1.527a4.966 4.966 0 0 0 1.786 1.449c.69.345 1.51.518 2.459.518 1.259 0 2.251-.337 2.976-1.01.742-.655 1.113-1.544 1.113-2.665v-3.054l.414-2.769-.414-2.744v-3.235h2.329v11.802c0 1.173-.276 2.2-.828 3.08-.535.879-1.294 1.57-2.278 2.07-.966.5-2.087.751-3.364.751Zm0-5.617c-1.122 0-2.131-.267-3.028-.802a5.835 5.835 0 0 1-2.096-2.2c-.518-.949-.777-2.01-.777-3.183s.259-2.217.777-3.132a5.832 5.832 0 0 1 2.096-2.199c.897-.553 1.906-.829 3.028-.829.966 0 1.82.19 2.562.57a4.384 4.384 0 0 1 1.76 1.604c.449.673.69 1.467.725 2.381v3.261c-.052.898-.302 1.691-.751 2.381a4.456 4.456 0 0 1-1.76 1.579c-.742.38-1.587.569-2.536.569Zm.466-2.199c.759 0 1.423-.164 1.993-.492a3.323 3.323 0 0 0 1.345-1.372c.311-.604.466-1.302.466-2.096s-.164-1.484-.492-2.071a3.333 3.333 0 0 0-1.319-1.397c-.57-.345-1.243-.518-2.019-.518-.777 0-1.458.173-2.045.518a3.634 3.634 0 0 0-1.397 1.397c-.328.587-.492 1.269-.492 2.045s.164 1.467.492 2.07a3.82 3.82 0 0 0 1.397 1.424c.604.328 1.294.492 2.071.492Zm-9.753 2.406v-7.168c0-.932-.294-1.7-.88-2.304-.587-.604-1.346-.906-2.278-.906-.621 0-1.173.138-1.656.414a3.01 3.01 0 0 0-1.139 1.139c-.276.483-.414 1.035-.414 1.657l-.957-.544c0-.932.207-1.76.621-2.484a4.458 4.458 0 0 1 1.734-1.709c.742-.431 1.578-.647 2.51-.647.932 0 1.751.233 2.459.699a5 5 0 0 1 1.708 1.838c.414.742.621 1.535.621 2.381v7.634h-2.329Zm-8.696 0v-12.293h2.329v12.293h-2.329Zm-4.468 0v-12.293h2.329v12.293h-2.329Zm1.164-14.752c-.431 0-.785-.138-1.061-.414a1.528 1.528 0 0 1-.414-1.087c0-.414.138-.759.414-1.035.276-.294.63-.44 1.061-.44.432 0 .786.146 1.062.44.276.276.414.621.414 1.035 0 .431-.138.793-.414 1.087-.276.276-.63.414-1.062.414Zm-22.036 14.752v-12.293h2.329v12.293h-2.329Zm8.308 0v-7.427c0-.915-.285-1.631-.854-2.148-.552-.535-1.251-.803-2.097-.803-.569 0-1.078.121-1.527.363a2.91 2.91 0 0 0-1.087 1.009c-.276.431-.414.949-.414 1.553l-.957-.466c0-.932.198-1.743.595-2.433a4.294 4.294 0 0 1 1.682-1.604c.708-.397 1.501-.596 2.381-.596.863 0 1.639.19 2.329.57.708.379 1.26.914 1.657 1.604.414.69.621 1.51.621 2.459v7.919h-2.329Zm8.307 0v-7.427c0-.915-.284-1.631-.854-2.148-.552-.535-1.242-.803-2.07-.803-.57 0-1.087.121-1.553.363a2.902 2.902 0 0 0-1.087 1.009c-.276.431-.414.949-.414 1.553l-1.32-.466c.052-.949.302-1.76.751-2.433a4.822 4.822 0 0 1 1.785-1.604 4.878 4.878 0 0 1 2.381-.596c.898 0 1.7.19 2.407.57a4.288 4.288 0 0 1 1.682 1.604c.432.69.647 1.519.647 2.485v7.893h-2.355Zm-25.759 0v-12.293h2.329v12.293h-2.329Zm2.329-7.013-.88-.388c0-1.57.363-2.821 1.087-3.753.725-.932 1.769-1.398 3.132-1.398.621 0 1.182.113 1.682.337.5.207.966.561 1.398 1.061l-1.527 1.579a2.34 2.34 0 0 0-.854-.596 3.008 3.008 0 0 0-1.087-.181c-.863 0-1.57.276-2.123.828-.552.553-.828 1.389-.828 2.511Zm-10.87 7.272c-1.122 0-2.14-.276-3.054-.828a6.194 6.194 0 0 1-2.174-2.303c-.518-.966-.777-2.053-.777-3.261 0-1.208.259-2.295.777-3.261a6.284 6.284 0 0 1 2.148-2.304c.914-.569 1.941-.854 3.08-.854.931 0 1.759.199 2.484.596a4.577 4.577 0 0 1 1.786 1.604c.449.673.699 1.458.75 2.355v3.701c-.051.88-.301 1.665-.75 2.355a4.574 4.574 0 0 1-1.76 1.631c-.725.379-1.561.569-2.51.569Zm.388-2.2c1.156 0 2.088-.388 2.795-1.164.707-.794 1.061-1.803 1.061-3.028 0-.846-.164-1.579-.492-2.2a3.384 3.384 0 0 0-1.345-1.475c-.587-.363-1.269-.544-2.045-.544s-1.467.181-2.071.544a3.906 3.906 0 0 0-1.397 1.501c-.328.621-.492 1.337-.492 2.148 0 .828.164 1.561.492 2.2a3.892 3.892 0 0 0 1.423 1.475c.604.362 1.294.543 2.071.543Zm3.701 1.941v-3.312l.44-3.002-.44-2.977v-3.002h2.355v12.293h-2.355Zm-21.763-.001v-17.961h2.433v17.961h-2.433Zm1.657-7.893v-2.226h9.369v2.226h-9.369Zm0-7.842v-2.226h9.808v2.226h-9.808Zm164.354-11.611c-1.14 0-2.16-.276-3.06-.828-.9-.57-1.61-1.338-2.15-2.304-.51-.966-.77-2.053-.77-3.261 0-1.208.26-2.295.77-3.261.54-.966 1.25-1.734 2.15-2.303.9-.569 1.92-.854 3.06-.854.91 0 1.74.198 2.48.595.74.38 1.34.915 1.79 1.605.46.673.72 1.458.77 2.355v3.701c-.05.88-.3 1.665-.75 2.355a4.783 4.783 0 0 1-1.78 1.63c-.75.38-1.58.57-2.51.57Zm.38-2.2c.78 0 1.45-.181 2.02-.544a3.681 3.681 0 0 0 1.37-1.475c.33-.638.5-1.363.5-2.174 0-.845-.18-1.579-.52-2.2a3.832 3.832 0 0 0-1.37-1.475c-.57-.362-1.25-.543-2.02-.543-.78 0-1.46.181-2.05.543-.58.363-1.05.863-1.39 1.501-.33.621-.5 1.337-.5 2.148 0 .829.17 1.562.5 2.2.34.621.81 1.113 1.39 1.475.61.363 1.3.544 2.07.544Zm6.09 1.941h-2.36v-3.313l.44-3.002-.44-2.976v-9.188h2.36v18.479Zm-16.12 0v-18.479h2.33v18.479h-2.33Zm-6.89.259c-1.22 0-2.33-.276-3.31-.828a6.387 6.387 0 0 1-2.33-2.304c-.57-.966-.85-2.062-.85-3.287 0-1.207.27-2.294.82-3.261a6.27 6.27 0 0 1 2.28-2.277c.97-.569 2.05-.854 3.24-.854 1.14 0 2.14.259 3 .776a5.304 5.304 0 0 1 2.04 2.148c.5.915.75 1.95.75 3.106 0 .173 0 .362-.02.569-.02.19-.05.415-.11.673h-10.37v-1.941h9.13l-.85.751c0-.828-.15-1.527-.44-2.096a3.133 3.133 0 0 0-1.24-1.346c-.54-.328-1.19-.492-1.94-.492-.8 0-1.5.173-2.1.518-.61.345-1.07.828-1.4 1.449-.33.621-.49 1.354-.49 2.2 0 .862.17 1.622.52 2.277.34.639.83 1.139 1.47 1.501.64.345 1.37.518 2.2.518.69 0 1.32-.121 1.89-.362a3.86 3.86 0 0 0 1.5-1.087l1.5 1.527a5.661 5.661 0 0 1-2.17 1.578c-.85.363-1.75.544-2.72.544Zm-10.16-.259v-12.293h2.33v12.293h-2.33Zm1.17-14.752c-.44 0-.79-.138-1.07-.414a1.547 1.547 0 0 1-.41-1.087c0-.414.14-.759.41-1.035.28-.293.63-.44 1.07-.44.43 0 .78.147 1.06.44.27.276.41.621.41 1.035 0 .432-.14.794-.41 1.087-.28.276-.63.414-1.06.414Zm-10.02 7.454-7.065-10.663h2.825l5.69 8.722h-1.27l5.72-8.722h2.77l-7.12 10.663h-1.55Zm-.41 7.298v-8.903h2.43v8.903h-2.43Zm-17.621.259c-1.139 0-2.157-.276-3.054-.828a6.284 6.284 0 0 1-2.148-2.304c-.517-.966-.776-2.053-.776-3.261 0-1.208.259-2.295.776-3.261a6.273 6.273 0 0 1 2.148-2.303c.897-.569 1.915-.854 3.054-.854.915 0 1.743.198 2.485.595.742.38 1.337.915 1.786 1.605.465.673.724 1.458.776 2.355v3.701c-.052.88-.302 1.665-.751 2.355a4.767 4.767 0 0 1-1.785 1.63c-.742.38-1.579.57-2.511.57Zm.388-2.2c.777 0 1.45-.181 2.019-.544a3.764 3.764 0 0 0 1.372-1.475c.328-.638.492-1.363.492-2.174 0-.845-.173-1.579-.518-2.2a3.77 3.77 0 0 0-1.372-1.475c-.569-.362-1.242-.543-2.018-.543-.777 0-1.458.181-2.045.543a3.915 3.915 0 0 0-1.398 1.501c-.327.621-.491 1.337-.491 2.148 0 .829.164 1.562.491 2.2a3.957 3.957 0 0 0 1.398 1.475c.604.363 1.294.544 2.07.544Zm6.082 1.941h-2.355v-3.313l.44-3.002-.44-2.976v-9.188h2.355v18.479Zm-15.86 0v-7.169c0-.932-.294-1.699-.88-2.303-.587-.604-1.346-.906-2.278-.906-.621 0-1.173.138-1.656.414a3.01 3.01 0 0 0-1.139 1.139c-.276.483-.414 1.035-.414 1.656l-.958-.543c0-.932.207-1.76.621-2.485a4.47 4.47 0 0 1 1.734-1.708c.742-.431 1.579-.647 2.511-.647.932 0 1.751.233 2.459.699a4.997 4.997 0 0 1 1.708 1.837c.414.742.621 1.536.621 2.381v7.635h-2.329Zm-8.696 0v-12.293h2.329v12.293h-2.329Zm-8.542.259c-1.121 0-2.139-.276-3.054-.828a6.213 6.213 0 0 1-2.174-2.304c-.517-.966-.776-2.053-.776-3.261 0-1.207.259-2.294.776-3.261a6.273 6.273 0 0 1 2.148-2.303c.915-.569 1.942-.854 3.08-.854.932 0 1.76.198 2.485.595.742.38 1.337.915 1.786 1.605.448.673.698 1.458.75 2.355v3.701c-.052.88-.302 1.665-.75 2.355a4.579 4.579 0 0 1-1.76 1.63c-.725.38-1.562.57-2.511.57Zm.388-2.2c1.156 0 2.088-.388 2.796-1.165.707-.793 1.061-1.803 1.061-3.028 0-.845-.164-1.578-.492-2.2a3.386 3.386 0 0 0-1.346-1.475c-.586-.362-1.268-.543-2.044-.543-.777 0-1.467.181-2.071.543a3.92 3.92 0 0 0-1.397 1.501c-.328.621-.492 1.338-.492 2.148 0 .829.164 1.562.492 2.2a3.892 3.892 0 0 0 1.423 1.475c.604.363 1.294.544 2.07.544Zm3.701 1.941v-3.313l.44-3.002-.44-2.976v-3.002h2.356v12.293h-2.356Zm-22.001 5.409c-1.26 0-2.381-.233-3.365-.699a5.891 5.891 0 0 1-2.329-1.967l1.501-1.527a4.959 4.959 0 0 0 1.786 1.45c.69.345 1.51.517 2.459.517 1.259 0 2.251-.336 2.976-1.009.742-.656 1.113-1.544 1.113-2.666v-3.054l.414-2.769-.414-2.743v-3.235h2.329v11.801c0 1.174-.276 2.2-.828 3.08-.535.88-1.294 1.57-2.278 2.071-.966.5-2.087.75-3.364.75Zm0-5.616c-1.122 0-2.131-.267-3.028-.802a5.835 5.835 0 0 1-2.096-2.2c-.518-.949-.777-2.01-.777-3.183 0-1.174.259-2.218.777-3.132a5.835 5.835 0 0 1 2.096-2.2c.897-.552 1.906-.828 3.028-.828.966 0 1.82.19 2.562.569.742.38 1.329.915 1.76 1.605.449.673.69 1.466.725 2.381v3.261c-.052.897-.302 1.691-.751 2.381a4.456 4.456 0 0 1-1.76 1.579c-.742.379-1.587.569-2.536.569Zm.466-2.2c.759 0 1.423-.164 1.993-.492a3.32 3.32 0 0 0 1.345-1.371c.311-.604.466-1.303.466-2.097 0-.793-.164-1.483-.492-2.07a3.33 3.33 0 0 0-1.319-1.398c-.57-.345-1.243-.517-2.019-.517-.777 0-1.458.172-2.045.517a3.63 3.63 0 0 0-1.397 1.398c-.328.587-.492 1.268-.492 2.045 0 .776.164 1.466.492 2.07a3.817 3.817 0 0 0 1.397 1.423c.604.328 1.294.492 2.071.492Zm-9.753 2.407v-7.169c0-.932-.294-1.699-.88-2.303-.587-.604-1.346-.906-2.278-.906-.621 0-1.173.138-1.656.414a3.01 3.01 0 0 0-1.139 1.139c-.276.483-.414 1.035-.414 1.656l-.957-.543c0-.932.207-1.76.621-2.485a4.456 4.456 0 0 1 1.734-1.708c.742-.431 1.578-.647 2.51-.647.932 0 1.751.233 2.459.699a4.997 4.997 0 0 1 1.708 1.837c.414.742.621 1.536.621 2.381v7.635h-2.329Zm-8.696 0v-12.293h2.329v12.293h-2.329Zm-4.468 0v-12.293h2.329v12.293h-2.329Zm1.164-14.752c-.431 0-.785-.138-1.061-.414-.276-.293-.414-.655-.414-1.087 0-.414.138-.759.414-1.035.276-.293.63-.44 1.061-.44.432 0 .786.147 1.062.44.276.276.414.621.414 1.035 0 .432-.138.794-.414 1.087-.276.276-.63.414-1.062.414Zm-4.463 14.752-5.745-6.289 5.693-6.004h2.821l-6.34 6.625.103-1.346 6.47 7.014h-3.002Zm-7.868 0v-18.479h2.33v18.479h-2.33Zm-8.541.259c-1.122 0-2.139-.276-3.054-.828a6.213 6.213 0 0 1-2.174-2.304c-.518-.966-.776-2.053-.776-3.261 0-1.207.258-2.294.776-3.261a6.273 6.273 0 0 1 2.148-2.303c.915-.569 1.941-.854 3.08-.854.932 0 1.76.198 2.485.595.741.38 1.337.915 1.785 1.605.449.673.699 1.458.751 2.355v3.701c-.052.88-.302 1.665-.751 2.355a4.572 4.572 0 0 1-1.76 1.63c-.724.38-1.561.57-2.51.57Zm.388-2.2c1.156 0 2.088-.388 2.795-1.165.708-.793 1.061-1.803 1.061-3.028 0-.845-.164-1.578-.491-2.2a3.386 3.386 0 0 0-1.346-1.475c-.587-.362-1.268-.543-2.045-.543-.776 0-1.466.181-2.07.543a3.915 3.915 0 0 0-1.398 1.501c-.328.621-.491 1.338-.491 2.148 0 .829.163 1.562.491 2.2.345.621.82 1.113 1.424 1.475.604.363 1.294.544 2.07.544Zm3.701 1.941v-3.313l.44-3.002-.44-2.976v-3.002h2.355v12.293h-2.355Zm-15.283 0v-17.444h2.329v17.444h-2.329Zm-3.028-10.171v-2.122h8.385v2.122h-8.385Zm-6.514 10.43c-1.415 0-2.622-.259-3.623-.777-1.001-.517-1.889-1.268-2.666-2.251l1.657-1.657c.569.794 1.225 1.398 1.966 1.812.742.397 1.657.595 2.744.595 1.07 0 1.924-.233 2.562-.699.656-.465.983-1.104.983-1.915 0-.673-.155-1.216-.465-1.63-.311-.414-.734-.751-1.269-1.01a11.029 11.029 0 0 0-1.708-.724 82.922 82.922 0 0 1-1.863-.699 8.967 8.967 0 0 1-1.708-.932 4.38 4.38 0 0 1-1.268-1.475c-.311-.604-.466-1.363-.466-2.277 0-1.018.241-1.881.724-2.588.501-.725 1.174-1.277 2.019-1.657.863-.397 1.829-.595 2.899-.595 1.173 0 2.226.233 3.157.699.932.448 1.691 1.044 2.278 1.785l-1.657 1.657c-.535-.621-1.113-1.087-1.734-1.398-.604-.31-1.302-.466-2.096-.466-.966 0-1.734.216-2.303.647-.57.415-.854 1.001-.854 1.76 0 .604.155 1.096.465 1.476.328.362.751.672 1.269.931.517.259 1.087.501 1.708.725.638.207 1.268.44 1.889.699.621.258 1.19.586 1.708.983s.932.915 1.242 1.553c.328.621.492 1.406.492 2.355 0 1.587-.552 2.83-1.656 3.727-1.087.897-2.562 1.346-4.426 1.346Zm-76.904 17.857 16.057-26.798h5.314l-16.057 26.798h-5.314Zm16.778.38a5.511 5.511 0 0 1-2.847-.759 5.888 5.888 0 0 1-2.012-2.012 5.514 5.514 0 0 1-.759-2.847c0-1.063.253-1.999.759-2.809a5.888 5.888 0 0 1 2.012-2.012c.835-.506 1.771-.759 2.809-.759 1.088 0 2.05.253 2.885.759a5.784 5.784 0 0 1 2.049 2.012c.507.81.76 1.746.76 2.809a5.505 5.505 0 0 1-.76 2.847 5.687 5.687 0 0 1-2.049 2.05c-.835.48-1.784.721-2.847.721Zm0-3.948c.481 0 .873-.152 1.177-.455.303-.304.455-.709.455-1.215a1.55 1.55 0 0 0-.455-1.139c-.304-.329-.696-.493-1.177-.493-.456 0-.835.164-1.139.493-.304.304-.455.684-.455 1.139 0 .506.151.911.455 1.215.304.303.683.455 1.139.455Zm-12.223-12.45a5.748 5.748 0 0 1-2.847-.721 5.885 5.885 0 0 1-2.011-2.012c-.507-.86-.76-1.822-.76-2.885 0-1.037.253-1.974.76-2.809a5.57 5.57 0 0 1 2.011-1.974c.835-.506 1.772-.759 2.809-.759 1.088 0 2.05.253 2.885.759a5.48 5.48 0 0 1 2.05 1.974c.506.835.759 1.772.759 2.809 0 1.063-.253 2.025-.759 2.885a5.779 5.779 0 0 1-2.05 2.012c-.835.48-1.784.721-2.847.721Zm0-3.948c.481 0 .873-.152 1.177-.455.304-.304.455-.696.455-1.177 0-.481-.151-.873-.455-1.177-.304-.303-.696-.455-1.177-.455-.455 0-.835.152-1.138.455-.304.304-.456.696-.456 1.177 0 .481.152.873.456 1.177.303.303.683.455 1.138.455Zm-16.571 20.383c-1.847 0-3.581-.316-5.2-.949-1.595-.658-2.923-1.594-3.986-2.809l3.872-3.834c.481.709 1.176 1.291 2.087 1.747.937.43 1.949.645 3.037.645.962 0 1.797-.165 2.505-.494a4.123 4.123 0 0 0 1.671-1.48c.404-.658.607-1.417.607-2.277 0-.886-.203-1.645-.607-2.278-.405-.633-.975-1.113-1.709-1.442-.708-.355-1.518-.532-2.429-.532-.911 0-1.746.127-2.505.38a6.528 6.528 0 0 0-2.088 1.063l.494-3.796a11.007 11.007 0 0 1 1.67-1.101 6.588 6.588 0 0 1 1.746-.683c.632-.152 1.379-.228 2.239-.228 1.974 0 3.632.405 4.973 1.215 1.366.809 2.391 1.885 3.075 3.226.708 1.341 1.062 2.822 1.062 4.441 0 1.772-.442 3.353-1.328 4.745-.861 1.392-2.075 2.48-3.644 3.264-1.569.785-3.416 1.177-5.542 1.177Zm-4.745-12.26-2.581-2.392 1.291-12.564h5.39l-1.405 12.45-2.695 2.506Zm-.493-9.907-.797-5.049h15.069v5.049h-14.272Zm385.054-287.955v-7.169c0-.931-.29-1.699-.88-2.303-.59-.604-1.35-.906-2.28-.906-.62 0-1.17.138-1.65.414-.49.276-.87.656-1.14 1.139-.28.483-.42 1.035-.42 1.656l-.95-.543c0-.932.2-1.76.62-2.485.41-.724.99-1.294 1.73-1.708.74-.431 1.58-.647 2.51-.647.93 0 1.75.233 2.46.699a5.087 5.087 0 0 1 1.71 1.837c.41.742.62 1.536.62 2.381v7.635h-2.33Zm-8.7 0v-12.293h2.33v12.293h-2.33Zm-7.75.259c-1.2 0-2.29-.285-3.26-.854a6.45 6.45 0 0 1-2.3-2.303c-.57-.984-.85-2.08-.85-3.287 0-1.191.28-2.261.85-3.21a6.45 6.45 0 0 1 2.3-2.303c.97-.569 2.06-.854 3.26-.854 1.2 0 2.27.285 3.24.854a6.177 6.177 0 0 1 2.33 2.278c.57.966.85 2.044.85 3.235 0 1.207-.28 2.303-.85 3.287a6.377 6.377 0 0 1-2.33 2.303c-.97.569-2.04.854-3.24.854Zm0-2.252c.78 0 1.47-.181 2.08-.543.6-.362 1.07-.854 1.42-1.475.34-.639.52-1.363.52-2.174 0-.794-.18-1.501-.55-2.123a3.692 3.692 0 0 0-1.42-1.449c-.59-.362-1.27-.543-2.05-.543-.77 0-1.46.181-2.07.543a3.76 3.76 0 0 0-1.42 1.449c-.34.622-.52 1.329-.52 2.123 0 .811.18 1.535.52 2.174.35.621.82 1.113 1.42 1.475.61.362 1.3.543 2.07.543Zm-10.08 1.993v-12.293h2.33v12.293h-2.33Zm1.17-14.751c-.44 0-.79-.138-1.07-.415a1.547 1.547 0 0 1-.41-1.087c0-.414.14-.759.41-1.035.28-.293.63-.44 1.07-.44.43 0 .78.147 1.06.44.27.276.41.621.41 1.035 0 .432-.14.794-.41 1.087-.28.277-.63.415-1.06.415Zm-7.54 14.751v-17.444h2.33v17.444h-2.33Zm-3.03-10.171v-2.122h8.39v2.122h-8.39Zm-7.35 10.43c-1.12 0-2.14-.276-3.05-.828a6.213 6.213 0 0 1-2.18-2.304c-.52-.966-.77-2.053-.77-3.261 0-1.207.25-2.294.77-3.261.54-.966 1.25-1.734 2.15-2.303.91-.569 1.94-.854 3.08-.854.93 0 1.76.198 2.48.595.75.38 1.34.915 1.79 1.605.45.673.7 1.458.75 2.355v3.701c-.05.88-.3 1.665-.75 2.355a4.589 4.589 0 0 1-1.76 1.631c-.72.379-1.56.569-2.51.569Zm.39-2.2c1.15 0 2.09-.388 2.79-1.165.71-.793 1.06-1.803 1.06-3.028 0-.845-.16-1.578-.49-2.199a3.406 3.406 0 0 0-1.34-1.476c-.59-.362-1.27-.543-2.05-.543-.77 0-1.46.181-2.07.543-.58.363-1.05.863-1.4 1.501-.32.622-.49 1.338-.49 2.149 0 .828.17 1.561.49 2.199.35.622.82 1.113 1.43 1.476.6.362 1.29.543 2.07.543Zm3.7 1.941v-3.313l.44-3.002-.44-2.976v-3.002h2.35v12.293h-2.35Z"/>
  <path fill="#fff" d="M1118.23 247.85c-1.21 0-2.3-.285-3.28-.854a6.399 6.399 0 0 1-2.31-2.303c-.55-.984-.83-2.071-.83-3.261 0-1.208.28-2.295.83-3.261a6.195 6.195 0 0 1 2.31-2.278c.98-.569 2.07-.854 3.28-.854.95 0 1.83.181 2.64.544.81.345 1.51.854 2.1 1.527l-1.55 1.552a3.584 3.584 0 0 0-1.4-1.009 4.305 4.305 0 0 0-1.79-.362c-.77 0-1.46.181-2.07.543-.6.345-1.08.828-1.42 1.449-.35.622-.52 1.338-.52 2.149 0 .81.17 1.527.52 2.148.34.621.82 1.113 1.42 1.475.61.362 1.3.543 2.07.543.66 0 1.25-.112 1.79-.336a4.087 4.087 0 0 0 1.42-1.035l1.53 1.553a5.834 5.834 0 0 1-2.1 1.526 6.38 6.38 0 0 1-2.64.544Zm-13.36 0c-1.21 0-2.3-.285-3.26-.854a6.399 6.399 0 0 1-2.31-2.303c-.57-.984-.85-2.08-.85-3.287 0-1.191.28-2.261.85-3.21a6.399 6.399 0 0 1 2.31-2.303c.96-.569 2.05-.854 3.26-.854 1.19 0 2.27.285 3.23.854a6.106 6.106 0 0 1 2.33 2.278c.57.966.86 2.044.86 3.235 0 1.207-.29 2.303-.86 3.287a6.302 6.302 0 0 1-2.33 2.303c-.96.569-2.04.854-3.23.854Zm0-2.252c.77 0 1.46-.181 2.07-.543.6-.362 1.08-.854 1.42-1.475.35-.639.52-1.363.52-2.174 0-.794-.18-1.501-.54-2.123a3.717 3.717 0 0 0-1.43-1.449c-.58-.362-1.27-.543-2.04-.543-.78 0-1.47.181-2.07.543-.61.345-1.08.828-1.43 1.449-.34.622-.51 1.329-.51 2.123 0 .811.17 1.535.51 2.174.35.621.82 1.113 1.43 1.475.6.362 1.29.543 2.07.543Zm-10.06 1.993v-18.479h2.33v18.479h-2.33Zm-4.45 0v-18.479h2.33v18.479h-2.33Zm-17.63 0 7.35-17.961h1.76l7.33 17.961h-2.64l-6.03-15.192h.9l-6.08 15.192h-2.59Zm3.5-4.063v-2.122h9.44v2.122h-9.44Zm-11.79 4.322c-.69 0-1.35-.086-1.97-.259-.6-.19-1.16-.448-1.68-.776a6.031 6.031 0 0 1-1.35-1.217l1.51-1.501c.44.552.96.966 1.55 1.243.59.258 1.24.388 1.97.388.72 0 1.28-.121 1.68-.363.39-.258.59-.612.59-1.061 0-.448-.16-.793-.49-1.035-.31-.259-.71-.466-1.21-.621-.51-.173-1.04-.336-1.61-.492a9.788 9.788 0 0 1-1.58-.647 3.53 3.53 0 0 1-1.24-1.061c-.31-.448-.47-1.044-.47-1.786s.18-1.38.55-1.915c.36-.552.86-.975 1.5-1.268.65-.293 1.44-.44 2.35-.44.97 0 1.82.173 2.57.518.75.327 1.38.828 1.86 1.501l-1.5 1.501a3.477 3.477 0 0 0-1.3-1.035c-.5-.242-1.07-.363-1.7-.363-.68 0-1.19.121-1.56.363a1.08 1.08 0 0 0-.51.957c0 .414.15.733.46.958.31.224.72.414 1.22.569.52.155 1.05.319 1.6.492.55.155 1.08.371 1.58.647s.91.647 1.22 1.113c.32.466.49 1.078.49 1.837 0 1.156-.42 2.071-1.24 2.744-.81.673-1.91 1.009-3.29 1.009Zm-12.72-.259v-12.293h2.33v12.293h-2.33Zm2.33-7.013-.88-.389c0-1.57.36-2.821 1.08-3.752.73-.932 1.77-1.398 3.13-1.398.63 0 1.19.112 1.69.337.5.207.96.56 1.39 1.061l-1.52 1.578a2.365 2.365 0 0 0-.86-.595 2.96 2.96 0 0 0-1.08-.181c-.87 0-1.57.276-2.13.828-.55.552-.82 1.389-.82 2.511Zm-10.08 7.272c-1.21 0-2.3-.285-3.26-.854a6.399 6.399 0 0 1-2.31-2.303c-.57-.984-.85-2.08-.85-3.287 0-1.191.28-2.261.85-3.21a6.399 6.399 0 0 1 2.31-2.303c.96-.569 2.05-.854 3.26-.854 1.19 0 2.27.285 3.23.854a6.106 6.106 0 0 1 2.33 2.278c.57.966.86 2.044.86 3.235 0 1.207-.29 2.303-.86 3.287a6.302 6.302 0 0 1-2.33 2.303c-.96.569-2.04.854-3.23.854Zm0-2.252c.77 0 1.46-.181 2.07-.543.6-.362 1.08-.854 1.42-1.475.35-.639.52-1.363.52-2.174 0-.794-.18-1.501-.54-2.123a3.717 3.717 0 0 0-1.43-1.449c-.58-.362-1.27-.543-2.04-.543-.78 0-1.47.181-2.07.543-.61.345-1.08.828-1.43 1.449-.34.622-.51 1.329-.51 2.123 0 .811.17 1.535.51 2.174.35.621.82 1.113 1.43 1.475.6.362 1.29.543 2.07.543Zm-11.46 2.252c-.69 0-1.35-.086-1.97-.259-.6-.19-1.16-.448-1.68-.776a6.031 6.031 0 0 1-1.35-1.217l1.5-1.501c.45.552.97.966 1.56 1.243.58.258 1.24.388 1.96.388.73 0 1.29-.121 1.69-.363.39-.258.59-.612.59-1.061 0-.448-.16-.793-.49-1.035-.31-.259-.72-.466-1.22-.621-.5-.173-1.03-.336-1.6-.492a9.788 9.788 0 0 1-1.58-.647 3.53 3.53 0 0 1-1.24-1.061c-.31-.448-.47-1.044-.47-1.786s.18-1.38.55-1.915c.36-.552.86-.975 1.5-1.268.65-.293 1.44-.44 2.35-.44.97 0 1.82.173 2.56.518a4.45 4.45 0 0 1 1.87 1.501l-1.5 1.501a3.477 3.477 0 0 0-1.3-1.035c-.5-.242-1.07-.363-1.71-.363-.67 0-1.19.121-1.55.363-.34.224-.52.543-.52.957 0 .414.16.733.47.958.31.224.72.414 1.22.569.51.155 1.05.319 1.6.492.55.155 1.08.371 1.58.647s.91.647 1.22 1.113c.32.466.49 1.078.49 1.837 0 1.156-.42 2.071-1.24 2.744-.82.673-1.91 1.009-3.29 1.009Zm-8.38-.259v-12.293h2.33v12.293h-2.33Zm1.17-14.751c-.43 0-.79-.138-1.06-.415a1.512 1.512 0 0 1-.42-1.087c0-.414.14-.759.42-1.035.27-.293.63-.44 1.06-.44.43 0 .78.147 1.06.44.27.276.41.621.41 1.035 0 .432-.14.794-.41 1.087-.28.277-.63.415-1.06.415Zm-8.9 14.751-5.64-12.293h2.59l4.53 10.378h-1.5l4.55-10.378h2.48l-5.64 12.293h-1.37Zm-12.78.259c-1.14 0-2.16-.276-3.06-.828a6.282 6.282 0 0 1-2.147-2.304c-.517-.966-.776-2.053-.776-3.261 0-1.207.259-2.294.776-3.261a6.279 6.279 0 0 1 2.147-2.303c.9-.569 1.92-.854 3.06-.854.91 0 1.74.198 2.48.595.74.38 1.34.915 1.79 1.605.46.673.72 1.458.77 2.355v3.701c-.05.88-.3 1.665-.75 2.355a4.783 4.783 0 0 1-1.78 1.63c-.75.38-1.58.57-2.51.57Zm.38-2.2c.78 0 1.45-.181 2.02-.543a3.69 3.69 0 0 0 1.37-1.476c.33-.638.5-1.363.5-2.174 0-.845-.18-1.578-.52-2.2a3.832 3.832 0 0 0-1.37-1.475c-.57-.362-1.25-.543-2.02-.543-.78 0-1.46.181-2.05.543-.58.363-1.05.863-1.39 1.501-.33.622-.5 1.338-.5 2.148 0 .829.17 1.562.5 2.2.34.621.81 1.113 1.39 1.476.61.362 1.3.543 2.07.543Zm6.09 1.941h-2.36v-3.313l.44-3.002-.44-2.976v-9.188h2.36v18.479Zm-28.525 0 7.35-17.961h1.76l7.324 17.961h-2.64l-6.03-15.192h.906l-6.082 15.192h-2.588Zm3.494-4.063v-2.122h9.446v2.122h-9.446Zm-14.512 4.322c-1.139 0-2.157-.276-3.054-.828a6.26 6.26 0 0 1-2.148-2.304c-.518-.966-.777-2.053-.777-3.261 0-1.207.259-2.294.777-3.261a6.257 6.257 0 0 1 2.148-2.303c.897-.569 1.915-.854 3.054-.854.914 0 1.742.198 2.484.595.742.38 1.337.915 1.786 1.605.466.673.724 1.458.776 2.355v3.701c-.052.88-.302 1.665-.75 2.355a4.777 4.777 0 0 1-1.786 1.63c-.742.38-1.579.57-2.51.57Zm.388-2.2c.776 0 1.449-.181 2.018-.543a3.773 3.773 0 0 0 1.372-1.476c.328-.638.492-1.363.492-2.174 0-.845-.173-1.578-.518-2.2a3.776 3.776 0 0 0-1.371-1.475c-.57-.362-1.243-.543-2.019-.543-.777 0-1.458.181-2.045.543a3.92 3.92 0 0 0-1.397 1.501c-.328.622-.492 1.338-.492 2.148 0 .829.164 1.562.492 2.2a3.973 3.973 0 0 0 1.397 1.476c.604.362 1.294.543 2.071.543Zm6.082 1.941h-2.355v-3.313l.44-3.002-.44-2.976v-9.188h2.355v18.479Zm-15.861 0v-7.169c0-.931-.293-1.699-.88-2.303-.587-.604-1.346-.906-2.278-.906-.621 0-1.173.138-1.656.414a3.01 3.01 0 0 0-1.139 1.139c-.276.483-.414 1.035-.414 1.656l-.957-.543c0-.932.207-1.76.621-2.485a4.463 4.463 0 0 1 1.734-1.708c.742-.431 1.578-.647 2.51-.647.932 0 1.751.233 2.459.699a4.997 4.997 0 0 1 1.708 1.837c.414.742.621 1.536.621 2.381v7.635h-2.329Zm-8.696 0v-12.293h2.329v12.293h-2.329Zm-8.541.259c-1.122 0-2.14-.276-3.054-.828a6.197 6.197 0 0 1-2.174-2.304c-.518-.966-.777-2.053-.777-3.261 0-1.207.259-2.294.777-3.261a6.273 6.273 0 0 1 2.148-2.303c.914-.569 1.941-.854 3.08-.854.931 0 1.759.198 2.484.595.742.38 1.337.915 1.786 1.605.448.673.699 1.458.75 2.355v3.701c-.051.88-.302 1.665-.75 2.355a4.582 4.582 0 0 1-1.76 1.631c-.725.379-1.561.569-2.51.569Zm.388-2.2c1.156 0 2.088-.388 2.795-1.165.707-.793 1.061-1.803 1.061-3.028 0-.845-.164-1.578-.492-2.199a3.381 3.381 0 0 0-1.345-1.476c-.587-.362-1.269-.543-2.045-.543s-1.467.181-2.071.543a3.92 3.92 0 0 0-1.397 1.501c-.328.622-.492 1.338-.492 2.149 0 .828.164 1.561.492 2.199a3.895 3.895 0 0 0 1.423 1.476c.604.362 1.294.543 2.071.543Zm3.701 1.941v-3.313l.44-3.002-.44-2.976v-3.002h2.355v12.293h-2.355Zm-34.253 0v-12.293h2.329v12.293h-2.329Zm8.308 0v-7.428c0-.914-.285-1.63-.854-2.148-.552-.535-1.251-.802-2.097-.802-.569 0-1.078.121-1.527.362a2.92 2.92 0 0 0-1.087 1.01c-.276.431-.414.949-.414 1.553l-.957-.466c0-.932.198-1.743.595-2.433a4.304 4.304 0 0 1 1.682-1.605c.708-.397 1.501-.595 2.381-.595.863 0 1.639.19 2.33.569.707.38 1.259.915 1.656 1.605.414.69.621 1.51.621 2.459v7.919h-2.329Zm8.307 0v-7.428c0-.914-.284-1.63-.854-2.148-.552-.535-1.242-.802-2.07-.802-.569 0-1.087.121-1.553.362a2.912 2.912 0 0 0-1.087 1.01c-.276.431-.414.949-.414 1.553l-1.32-.466c.052-.949.302-1.76.751-2.433a4.841 4.841 0 0 1 1.785-1.605 4.877 4.877 0 0 1 2.381-.595c.898 0 1.7.19 2.407.569a4.3 4.3 0 0 1 1.683 1.605c.431.69.647 1.518.647 2.485v7.893h-2.356Zm-25.156.259c-1.121 0-2.139-.276-3.054-.828a6.205 6.205 0 0 1-2.174-2.304c-.517-.966-.776-2.053-.776-3.261 0-1.207.259-2.294.776-3.261a6.273 6.273 0 0 1 2.148-2.303c.915-.569 1.941-.854 3.08-.854.932 0 1.76.198 2.485.595.741.38 1.337.915 1.785 1.605.449.673.699 1.458.751 2.355v3.701c-.052.88-.302 1.665-.751 2.355a4.582 4.582 0 0 1-1.76 1.631c-.724.379-1.561.569-2.51.569Zm.388-2.2c1.156 0 2.088-.388 2.795-1.165.708-.793 1.061-1.803 1.061-3.028 0-.845-.163-1.578-.491-2.199a3.383 3.383 0 0 0-1.346-1.476c-.587-.362-1.268-.543-2.045-.543-.776 0-1.466.181-2.07.543a3.915 3.915 0 0 0-1.398 1.501c-.327.622-.491 1.338-.491 2.149 0 .828.164 1.561.491 2.199.345.622.82 1.113 1.424 1.476.604.362 1.294.543 2.07.543Zm3.701 1.941v-3.313l.44-3.002-.44-2.976v-3.002h2.355v12.293h-2.355Zm-16.204.259c-1.225 0-2.33-.276-3.313-.828a6.34 6.34 0 0 1-2.329-2.304c-.57-.966-.854-2.061-.854-3.286 0-1.208.276-2.295.828-3.261a6.257 6.257 0 0 1 2.277-2.278c.966-.569 2.045-.854 3.235-.854 1.139 0 2.14.259 3.002.776a5.332 5.332 0 0 1 2.045 2.149c.5.914.751 1.949.751 3.105 0 .173-.009.363-.026.57a6.706 6.706 0 0 1-.104.673h-10.378v-1.942h9.136l-.854.751c0-.828-.147-1.527-.44-2.096a3.131 3.131 0 0 0-1.242-1.346c-.535-.328-1.182-.492-1.941-.492-.794 0-1.493.173-2.097.518a3.527 3.527 0 0 0-1.397 1.449c-.328.621-.492 1.354-.492 2.2 0 .863.172 1.622.518 2.277a3.731 3.731 0 0 0 1.475 1.501c.638.346 1.371.518 2.2.518a4.8 4.8 0 0 0 1.889-.362 3.922 3.922 0 0 0 1.501-1.087l1.501 1.527a5.706 5.706 0 0 1-2.174 1.578 6.81 6.81 0 0 1-2.717.544Zm-11.988-.259v-17.444h2.433v17.444h-2.433Zm-6.107-15.735v-2.226h14.622v2.226h-14.622Z"/>
  <defs>
    <linearGradient id="a" x1="343.5" x2="171.75" y1="64.929" y2="64.929" gradientUnits="userSpaceOnUse">
      <stop stop-color="#55C982"/>
      <stop offset=".5" stop-color="#6AD08F"/>
      <stop offset="1" stop-color="#80D79E"/>
    </linearGradient>
    <linearGradient id="b" x1="171.75" x2="46.02" y1="125.047" y2="125.047" gradientUnits="userSpaceOnUse">
      <stop stop-color="#80D79E"/>
      <stop offset=".5" stop-color="#99DFB0"/>
      <stop offset="1" stop-color="#A2E2B6"/>
    </linearGradient>
    <linearGradient id="c" x1="46.02" x2="0" y1="229.172" y2="229.172" gradientUnits="userSpaceOnUse">
      <stop stop-color="#A2E2B6"/>
      <stop offset=".5" stop-color="#7ED69C"/>
      <stop offset="1" stop-color="#55C982"/>
    </linearGradient>
    <linearGradient id="d" x1="343.5" x2="46.02" y1="349.406" y2="349.406" gradientUnits="userSpaceOnUse">
      <stop stop-color="#80D79E"/>
      <stop offset="1" stop-color="#80D79E"/>
    </linearGradient>
    <linearGradient id="e" x1="343.5" x2="46.02" y1="349.407" y2="349.407" gradientUnits="userSpaceOnUse">
      <stop stop-color="#698BF3"/>
      <stop offset="1" stop-color="#698BF3"/>
    </linearGradient>
    <linearGradient id="f" x1="343.5" x2="122.702" y1="381.394" y2="381.394" gradientUnits="userSpaceOnUse">
      <stop stop-color="#93A9F6"/>
      <stop offset="1" stop-color="#93A9F6"/>
    </linearGradient>
    <linearGradient id="g" x1="564.297" x2="343.5" y1="76.951" y2="76.951" gradientUnits="userSpaceOnUse">
      <stop stop-color="#350DFF"/>
      <stop offset=".5" stop-color="#5236FF"/>
      <stop offset="1" stop-color="#6D5AFF"/>
    </linearGradient>
    <linearGradient id="h" x1="681.781" x2="564.298" y1="176.306" y2="176.306" gradientUnits="userSpaceOnUse">
      <stop stop-color="#5236FF"/>
      <stop offset=".5" stop-color="#2D00F5"/>
      <stop offset="1" stop-color="#350DFF"/>
    </linearGradient>
    <linearGradient id="i" x1="681.781" x2="343.5" y1="268.41" y2="268.41" gradientUnits="userSpaceOnUse">
      <stop stop-color="#7F6CFF"/>
      <stop offset="1" stop-color="#7F6CFF"/>
    </linearGradient>
    <linearGradient id="j" x1="687" x2="681.781" y1="268.389" y2="268.389" gradientUnits="userSpaceOnUse">
      <stop stop-color="#FF746A"/>
      <stop offset=".5" stop-color="#FF6158"/>
      <stop offset="1" stop-color="#FF4E46"/>
    </linearGradient>
    <linearGradient id="k" x1="681.781" x2="343.5" y1="268.41" y2="268.41" gradientUnits="userSpaceOnUse">
      <stop stop-color="#FF837C"/>
      <stop offset="1" stop-color="#FF837C"/>
    </linearGradient>
    <linearGradient id="l" x1="564.297" x2="343.5" y1="381.393" y2="381.393" gradientUnits="userSpaceOnUse">
      <stop stop-color="#FF0505"/>
      <stop offset="1" stop-color="#FF0505"/>
    </linearGradient>
    <linearGradient id="m" x1="564.297" x2="343.5" y1="381.394" y2="381.394" gradientUnits="userSpaceOnUse">
      <stop stop-color="#14627A"/>
      <stop offset="1" stop-color="#14627A"/>
    </linearGradient>
    <linearGradient id="n" x1="343.5" x2="122.702" y1="381.394" y2="381.394" gradientUnits="userSpaceOnUse">
      <stop stop-color="#FFC690"/>
      <stop offset="1" stop-color="#FFC690"/>
    </linearGradient>
    <linearGradient id="o" x1="750" x2="1195.15" y1="136.304" y2="136.304" gradientUnits="userSpaceOnUse">
      <stop stop-color="#5136F4" stop-opacity=".075"/>
      <stop offset="1" stop-color="#5136F4" stop-opacity="0"/>
    </linearGradient>
    <linearGradient id="p" x1="750" x2="1195.15" y1="34.508" y2="34.508" gradientUnits="userSpaceOnUse">
      <stop stop-color="#907EFF" stop-opacity=".4"/>
      <stop offset="1" stop-color="#907EFF" stop-opacity="0"/>
    </linearGradient>
    <linearGradient id="q" x1="750" x2="1195.15" y1="238.101" y2="238.101" gradientUnits="userSpaceOnUse">
      <stop stop-color="#294CBD" stop-opacity=".4"/>
      <stop offset="1" stop-color="#294CBD" stop-opacity="0"/>
    </linearGradient>
    <linearGradient id="r" x1="750" x2="1195.15" y1="339.898" y2="339.898" gradientUnits="userSpaceOnUse">
      <stop stop-color="#2B889B" stop-opacity=".4"/>
      <stop offset="1" stop-color="#2B889B" stop-opacity="0"/>
    </linearGradient>
    <linearGradient id="s" x1="750" x2="1195.15" y1="441.696" y2="441.696" gradientUnits="userSpaceOnUse">
      <stop stop-color="#0F732D" stop-opacity=".4"/>
      <stop offset="1" stop-color="#0F732D" stop-opacity="0"/>
    </linearGradient>
    <linearGradient id="t" x1="750" x2="1195.15" y1="543.493" y2="543.493" gradientUnits="userSpaceOnUse">
      <stop stop-color="#005F6C" stop-opacity=".4"/>
      <stop offset="1" stop-color="#005F6C" stop-opacity="0"/>
    </linearGradient>
  </defs>
</svg>
