<svg width="32" height="32" viewBox="0 0 32 32" fill="none" xmlns="http://www.w3.org/2000/svg">
<g id="ChatCenteredDots" clip-path="url(#clip0_4289_2552)">
<path id="Vector" d="M13.2913 24.485C13.2023 24.337 13.0766 24.2146 12.9264 24.1296C12.7761 24.0446 12.6064 23.9999 12.4338 24H5C4.73478 24 4.48043 23.8946 4.29289 23.7071C4.10536 23.5196 4 23.2652 4 23V7C4 6.73478 4.10536 6.48043 4.29289 6.29289C4.48043 6.10536 4.73478 6 5 6H27C27.2652 6 27.5196 6.10536 27.7071 6.29289C27.8946 6.48043 28 6.73478 28 7V23C28 23.2652 27.8946 23.5196 27.7071 23.7071C27.5196 23.8946 27.2652 24 27 24H19.5662C19.3936 23.9999 19.2239 24.0446 19.0736 24.1296C18.9234 24.2146 18.7977 24.337 18.7087 24.485L16.8575 27.515C16.7687 27.6631 16.643 27.7856 16.4927 27.8707C16.3424 27.9558 16.1727 28.0005 16 28.0005C15.8273 28.0005 15.6576 27.9558 15.5073 27.8707C15.357 27.7856 15.2313 27.6631 15.1425 27.515L13.2913 24.485Z" stroke="white" stroke-width="2" stroke-linecap="round" stroke-linejoin="round"/>
<path id="Vector_2" d="M16 16.5C16.8284 16.5 17.5 15.8284 17.5 15C17.5 14.1716 16.8284 13.5 16 13.5C15.1716 13.5 14.5 14.1716 14.5 15C14.5 15.8284 15.1716 16.5 16 16.5Z" fill="white"/>
<path id="Vector_3" d="M10.5 16.5C11.3284 16.5 12 15.8284 12 15C12 14.1716 11.3284 13.5 10.5 13.5C9.67157 13.5 9 14.1716 9 15C9 15.8284 9.67157 16.5 10.5 16.5Z" fill="white"/>
<path id="Vector_4" d="M21.5 16.5C22.3284 16.5 23 15.8284 23 15C23 14.1716 22.3284 13.5 21.5 13.5C20.6716 13.5 20 14.1716 20 15C20 15.8284 20.6716 16.5 21.5 16.5Z" fill="white"/>
</g>
<defs>
<clipPath id="clip0_4289_2552">
<rect width="32" height="32" fill="white"/>
</clipPath>
</defs>
</svg>
