<svg width="18" height="17" viewBox="0 0 18 17" fill="none" xmlns="http://www.w3.org/2000/svg">
<g id="Send">
<path id="Fill 1" d="M16.8565 0.648542C16.4398 0.222708 15.8232 0.0652081 15.2482 0.231875L1.83984 4.10604C1.23318 4.27438 0.803176 4.75521 0.687342 5.36521C0.569009 5.98688 0.982342 6.77688 1.52234 7.10688L5.71484 9.66688C6.14484 9.93021 6.69984 9.86438 7.05568 9.50771L11.8565 4.70688C12.0982 4.45604 12.4982 4.45604 12.7398 4.70688C12.9815 4.94771 12.9815 5.34021 12.7398 5.59021L7.93068 10.391C7.57401 10.7477 7.50734 11.301 7.76984 11.7319L10.3315 15.9402C10.6315 16.4394 11.1482 16.7235 11.7148 16.7235C11.7815 16.7235 11.8565 16.7235 11.9232 16.7144C12.5732 16.6319 13.0898 16.1894 13.2815 15.5644L17.2565 2.25688C17.4315 1.69021 17.2732 1.07354 16.8565 0.648542Z" fill="white"/>
<path id="Combined Shape" opacity="0.4" fill-rule="evenodd" clip-rule="evenodd" d="M1.50956 12.5065C1.34956 12.5065 1.18956 12.4457 1.06789 12.3232C0.823724 12.079 0.823724 11.684 1.06789 11.4399L2.20539 10.3015C2.44956 10.0582 2.84539 10.0582 3.08956 10.3015C3.33289 10.5457 3.33289 10.9415 3.08956 11.1857L1.95122 12.3232C1.82956 12.4457 1.66956 12.5065 1.50956 12.5065ZM4.64389 13.5002C4.48389 13.5002 4.32389 13.4394 4.20222 13.3169C3.95806 13.0727 3.95806 12.6777 4.20222 12.4335L5.33973 11.2952C5.58389 11.0519 5.97972 11.0519 6.22389 11.2952C6.46723 11.5394 6.46723 11.9352 6.22389 12.1794L5.08556 13.3169C4.96389 13.4394 4.80389 13.5002 4.64389 13.5002ZM4.85531 16.4735C4.97697 16.596 5.13697 16.6569 5.29698 16.6569C5.45697 16.6569 5.61697 16.596 5.73864 16.4735L6.87698 15.336C7.12031 15.0919 7.12031 14.696 6.87698 14.4519C6.63281 14.2085 6.23698 14.2085 5.99281 14.4519L4.85531 15.5902C4.61114 15.8344 4.61114 16.2294 4.85531 16.4735Z" fill="white"/>
</g>
</svg>
