<svg width="35" height="36" viewBox="0 0 35 36" fill="none" xmlns="http://www.w3.org/2000/svg">
<g id="Group 33">
<path id="Vector" d="M17.5605 35.2686C27.0974 35.2686 34.8286 27.5374 34.8286 18.0005C34.8286 8.4636 27.0974 0.732422 17.5605 0.732422C8.02366 0.732422 0.29248 8.4636 0.29248 18.0005C0.29248 27.5374 8.02366 35.2686 17.5605 35.2686Z" fill="url(#paint0_linear_4617_2539)"/>
<path id="Vector_2" d="M11.2812 21.2488L13.5245 27.5064C13.5245 27.5064 13.805 28.0919 14.1053 28.0919C14.4057 28.0919 18.8725 23.4086 18.8725 23.4086L23.8398 13.7393L11.3613 19.6334L11.2812 21.2488Z" fill="#C8DAEA"/>
<path id="Vector_3" d="M12.2621 19.3763L7.65326 17.8959C7.65326 17.8959 7.10246 17.6756 7.27982 17.1761C7.31633 17.0731 7.38998 16.9854 7.6103 16.8348C8.6315 16.1331 26.5119 9.79757 26.5119 9.79757C26.5119 9.79757 27.0167 9.62986 27.3145 9.74141C27.3881 9.76389 27.4544 9.80525 27.5065 9.86127C27.5586 9.91728 27.5947 9.98594 27.6111 10.0602C27.6433 10.1914 27.6567 10.3264 27.6511 10.4613C27.6497 10.5779 27.6353 10.6861 27.6245 10.8556C27.5156 12.5878 24.2567 25.5154 24.2567 25.5154C24.2567 25.5154 24.0617 26.2718 23.3631 26.2978C23.1914 26.3032 23.0204 26.2746 22.8602 26.2135C22.7 26.1524 22.5539 26.0601 22.4307 25.9422C21.0598 24.7797 16.3216 21.6406 15.2746 20.9502C15.251 20.9343 15.2311 20.9137 15.2162 20.8896C15.2014 20.8655 15.192 20.8385 15.1886 20.8106C15.174 20.7378 15.2543 20.6477 15.2543 20.6477C15.2543 20.6477 23.5048 13.4181 23.7243 12.6591C23.7413 12.6003 23.6771 12.5713 23.5908 12.5971C23.0429 12.7958 13.5435 18.7096 12.495 19.3623C12.4196 19.3848 12.3398 19.3896 12.2621 19.3763Z" fill="white"/>
</g>
<defs>
<linearGradient id="paint0_linear_4617_2539" x1="17.5605" y1="35.2686" x2="17.5605" y2="0.732422" gradientUnits="userSpaceOnUse">
<stop stop-color="#1D93D2"/>
<stop offset="1" stop-color="#38B0E3"/>
</linearGradient>
</defs>
</svg>
